<svg width="235" height="86" viewBox="0 0 235 86" fill="none" xmlns="http://www.w3.org/2000/svg">
<path d="M16.2002 69.3137C11.4307 69.3137 8.04295 67.9889 6.03677 65.3392C4.06844 62.6517 3.08428 58.8664 3.08428 53.9835V37.5744C3.08428 32.5401 4.06844 28.717 6.03677 26.1051C8.0051 23.4933 11.3929 22.1874 16.2002 22.1874C20.7046 22.1874 23.9031 23.323 25.7957 25.5941C27.6884 27.8653 28.6347 31.1395 28.6347 35.4168V39.2778H20.5721V35.3033C20.5721 33.6756 20.4964 32.4076 20.345 31.4991C20.1936 30.5528 19.7961 29.7958 19.1526 29.228C18.547 28.6223 17.5818 28.3195 16.2569 28.3195C14.8942 28.3195 13.8722 28.6413 13.1909 29.2848C12.5095 29.8904 12.0553 30.7231 11.8282 31.783C11.6389 32.805 11.5443 34.1488 11.5443 35.8143V55.7436C11.5443 58.3554 11.885 60.2481 12.5663 61.4215C13.2477 62.5571 14.4779 63.1248 16.2569 63.1248C17.5439 63.1248 18.4902 62.822 19.0959 62.2164C19.7394 61.6107 20.1368 60.8158 20.2882 59.8317C20.4775 58.8097 20.5721 57.4659 20.5721 55.8004V51.6555H28.6347V55.3462C28.6347 59.7749 27.7073 63.2195 25.8525 65.6799C23.9978 68.1024 20.7803 69.3137 16.2002 69.3137ZM47.0332 69.3137C42.2638 69.3137 38.8571 68.0457 36.813 65.5095C34.769 62.9356 33.747 59.1882 33.747 54.2674V37.0066C33.747 32.1237 34.769 28.4331 36.813 25.9348C38.8571 23.4365 42.2638 22.1874 47.0332 22.1874C51.7647 22.1874 55.1525 23.4365 57.1966 25.9348C59.2406 28.4331 60.2626 32.1237 60.2626 37.0066V54.2674C60.2626 59.1503 59.2217 62.8788 57.1398 65.4528C55.0958 68.0267 51.7269 69.3137 47.0332 69.3137ZM47.0332 63.1248C48.888 63.1248 50.1371 62.5381 50.7806 61.3647C51.4241 60.1913 51.7458 58.4879 51.7458 56.2546V35.0762C51.7458 32.8429 51.4241 31.1584 50.7806 30.0229C50.1749 28.8873 48.9258 28.3195 47.0332 28.3195C45.1406 28.3195 43.8725 28.9062 43.229 30.0797C42.5855 31.2152 42.2638 32.8807 42.2638 35.0762V56.2546C42.2638 58.4879 42.5855 60.1913 43.229 61.3647C43.8725 62.5381 45.1406 63.1248 47.0332 63.1248ZM66.4785 22.6984H72.3268L83.5121 48.9302V22.6984H90.4391V68.6891H84.8748L73.6327 41.2083V68.6891H66.4785V22.6984ZM102.018 28.8873H94.6931V22.6984H117.575V28.8873H110.421V68.6891H102.018V28.8873ZM127.521 22.6984H136.492L145.691 68.6891H137.912L136.095 58.0715H128.089L126.215 68.6891H118.323L127.521 22.6984ZM135.187 52.7343L132.064 33.4296L128.941 52.7343H135.187ZM162.25 69.3137C157.481 69.3137 154.093 67.9889 152.087 65.3392C150.118 62.6517 149.134 58.8664 149.134 53.9835V37.5744C149.134 32.5401 150.118 28.717 152.087 26.1051C154.055 23.4933 157.443 22.1874 162.25 22.1874C166.754 22.1874 169.953 23.323 171.846 25.5941C173.738 27.8653 174.684 31.1395 174.684 35.4168V39.2778H166.622V35.3033C166.622 33.6756 166.546 32.4076 166.395 31.4991C166.243 30.5528 165.846 29.7958 165.202 29.228C164.597 28.6223 163.632 28.3195 162.307 28.3195C160.944 28.3195 159.922 28.6413 159.241 29.2848C158.559 29.8904 158.105 30.7231 157.878 31.783C157.689 32.805 157.594 34.1488 157.594 35.8143V55.7436C157.594 58.3554 157.935 60.2481 158.616 61.4215C159.297 62.5571 160.528 63.1248 162.307 63.1248C163.594 63.1248 164.54 62.822 165.146 62.2164C165.789 61.6107 166.187 60.8158 166.338 59.8317C166.527 58.8097 166.622 57.4659 166.622 55.8004V51.6555H174.684V55.3462C174.684 59.7749 173.757 63.2195 171.902 65.6799C170.048 68.1024 166.83 69.3137 162.25 69.3137ZM185.134 28.8873H177.81V22.6984H200.691V28.8873H193.537V68.6891H185.134V28.8873ZM217.203 69.3137C212.433 69.3137 209.027 68.0457 206.983 65.5095C204.939 62.9356 203.917 59.1882 203.917 54.2674V37.0066C203.917 32.1237 204.939 28.4331 206.983 25.9348C209.027 23.4365 212.433 22.1874 217.203 22.1874C221.934 22.1874 225.322 23.4365 227.366 25.9348C229.41 28.4331 230.432 32.1237 230.432 37.0066V54.2674C230.432 59.1503 229.391 62.8788 227.309 65.4528C225.265 68.0267 221.897 69.3137 217.203 69.3137ZM217.203 63.1248C219.058 63.1248 220.307 62.5381 220.95 61.3647C221.594 60.1913 221.915 58.4879 221.915 56.2546V35.0762C221.915 32.8429 221.594 31.1584 220.95 30.0229C220.345 28.8873 219.095 28.3195 217.203 28.3195C215.31 28.3195 214.042 28.9062 213.399 30.0797C212.755 31.2152 212.433 32.8807 212.433 35.0762V56.2546C212.433 58.4879 212.755 60.1913 213.399 61.3647C214.042 62.5381 215.31 63.1248 217.203 63.1248Z" fill="#889397"/>
</svg>
