<svg width="372" height="116" viewBox="0 0 372 116" fill="none" xmlns="http://www.w3.org/2000/svg">
<path d="M17.8412 68.6246C14.4724 68.6246 11.8227 67.9621 9.89224 66.6373C7.99961 65.3125 6.67478 63.5145 5.91773 61.2433C5.16068 58.9343 4.78215 56.2847 4.78215 53.2943V36.8853C4.78215 33.7435 5.16068 31.0182 5.91773 28.7092C6.67478 26.4002 7.99961 24.6211 9.89224 23.372C11.8227 22.1228 14.4724 21.4983 17.8412 21.4983C21.0209 21.4983 23.5002 22.0471 25.2793 23.1449C27.0962 24.2047 28.3832 25.7377 29.1402 27.7439C29.8973 29.7501 30.2758 32.078 30.2758 34.7277V38.5886H22.2132V34.6141C22.2132 33.3272 22.1375 32.1537 21.9861 31.0939C21.8725 30.034 21.5129 29.2012 20.9073 28.5956C20.3395 27.9521 19.3364 27.6304 17.898 27.6304C16.4596 27.6304 15.3998 27.971 14.7184 28.6524C14.0749 29.2959 13.6586 30.1854 13.4693 31.321C13.28 32.4187 13.1854 33.6678 13.1854 35.0684V55.0545C13.1854 56.72 13.3179 58.1016 13.5828 59.1993C13.8478 60.2592 14.321 61.073 15.0023 61.6408C15.7215 62.1707 16.6867 62.4357 17.898 62.4357C19.2986 62.4357 20.2827 62.1139 20.8505 61.4705C21.4562 60.7891 21.8347 59.8996 21.9861 58.8019C22.1375 57.7041 22.2132 56.4739 22.2132 55.1112V50.9664H30.2758V54.657C30.2758 57.3824 29.9162 59.8049 29.197 61.9247C28.4778 64.0066 27.2097 65.6531 25.3928 66.8644C23.6137 68.0379 21.0966 68.6246 17.8412 68.6246ZM48.7311 68.6246C45.3243 68.6246 42.6747 68 40.782 66.7509C38.8894 65.5017 37.5835 63.7227 36.8643 61.4137C36.1451 59.1047 35.7855 56.3414 35.7855 53.124V22.0093H43.9617V54.0892C43.9617 55.5276 44.0563 56.8903 44.2455 58.1773C44.4348 59.4264 44.8701 60.4484 45.5515 61.2433C46.2707 62.0004 47.3305 62.3789 48.7311 62.3789C50.2073 62.3789 51.2672 62.0004 51.9107 61.2433C52.592 60.4484 53.0273 59.4264 53.2166 58.1773C53.4437 56.8903 53.5573 55.5276 53.5573 54.0892V22.0093H61.6766V53.124C61.6766 56.3414 61.317 59.1047 60.5978 61.4137C59.8786 63.7227 58.5727 65.5017 56.6801 66.7509C54.8253 68 52.1756 68.6246 48.7311 68.6246ZM68.286 68V22.0093H79.3011C82.405 22.0093 85.0168 22.3878 87.1365 23.1449C89.2941 23.864 90.9218 25.1132 92.0195 26.8922C93.1551 28.6713 93.7228 31.0939 93.7228 34.1599C93.7228 36.0147 93.5525 37.6802 93.2118 39.1564C92.8712 40.6327 92.2844 41.9007 91.4517 42.9606C90.6568 43.9826 89.5401 44.7775 88.1017 45.3453L94.5177 68H86.1145L80.5502 46.9351H76.6892V68H68.286ZM76.6892 41.6547H79.3011C80.9287 41.6547 82.2157 41.4276 83.162 40.9734C84.1462 40.4813 84.8464 39.7242 85.2628 38.7022C85.6792 37.6423 85.8874 36.2986 85.8874 34.6709C85.8874 32.3619 85.4521 30.6396 84.5815 29.5041C83.7487 28.3306 82.14 27.7439 79.7553 27.7439H76.6892V41.6547ZM111.585 68.6246C108.822 68.6246 106.513 68.0946 104.658 67.0348C102.803 65.937 101.403 64.3472 100.456 62.2654C99.5101 60.1835 98.9802 57.6284 98.8666 54.6002L106.078 53.1808C106.153 54.9598 106.361 56.5307 106.702 57.8934C107.081 59.2561 107.629 60.316 108.349 61.073C109.106 61.7922 110.09 62.1518 111.301 62.1518C112.664 62.1518 113.629 61.7543 114.197 60.9594C114.765 60.1267 115.049 59.0857 115.049 57.8366C115.049 55.8304 114.594 54.1839 113.686 52.8969C112.777 51.6099 111.566 50.3229 110.052 49.0359L104.261 43.9258C102.633 42.5253 101.327 40.9734 100.343 39.27C99.3966 37.5288 98.9234 35.3901 98.9234 32.854C98.9234 29.2202 99.9833 26.4191 102.103 24.4508C104.223 22.4824 107.118 21.4983 110.79 21.4983C112.948 21.4983 114.746 21.8389 116.184 22.5203C117.623 23.1638 118.758 24.0722 119.591 25.2457C120.461 26.4191 121.105 27.7628 121.521 29.2769C121.938 30.7532 122.203 32.3241 122.316 33.9896L115.162 35.2387C115.086 33.8003 114.916 32.5133 114.651 31.3778C114.424 30.2422 113.989 29.3527 113.345 28.7092C112.74 28.0657 111.831 27.7439 110.62 27.7439C109.371 27.7439 108.405 28.1603 107.724 28.9931C107.081 29.788 106.759 30.791 106.759 32.0023C106.759 33.5543 107.081 34.8413 107.724 35.8633C108.368 36.8474 109.295 37.8695 110.506 38.9293L116.241 43.9826C118.134 45.5724 119.742 47.4461 121.067 49.6037C122.43 51.7234 123.111 54.2974 123.111 57.3256C123.111 59.5211 122.619 61.4705 121.635 63.1738C120.689 64.8772 119.345 66.2209 117.604 67.2051C115.9 68.1514 113.894 68.6246 111.585 68.6246ZM140.55 68.6246C137.295 68.6246 134.702 68.0189 132.771 66.8076C130.841 65.5964 129.459 63.8552 128.627 61.584C127.794 59.3129 127.378 56.6253 127.378 53.5214V36.3175C127.378 33.2136 127.794 30.5639 128.627 28.3685C129.459 26.1352 130.841 24.4318 132.771 23.2584C134.702 22.085 137.295 21.4983 140.55 21.4983C143.881 21.4983 146.493 22.085 148.386 23.2584C150.316 24.4318 151.698 26.1352 152.53 28.3685C153.401 30.5639 153.836 33.2136 153.836 36.3175V53.5782C153.836 56.6443 153.401 59.3129 152.53 61.584C151.698 63.8173 150.316 65.5585 148.386 66.8076C146.493 68.0189 143.881 68.6246 140.55 68.6246ZM140.55 62.4357C141.951 62.4357 142.973 62.1329 143.616 61.5272C144.298 60.9216 144.752 60.0888 144.979 59.029C145.206 57.9691 145.32 56.8146 145.32 55.5655V34.387C145.32 33.1 145.206 31.9455 144.979 30.9235C144.752 29.9015 144.298 29.1066 143.616 28.5388C142.973 27.9332 141.951 27.6304 140.55 27.6304C139.225 27.6304 138.222 27.9332 137.541 28.5388C136.86 29.1066 136.405 29.9015 136.178 30.9235C135.951 31.9455 135.838 33.1 135.838 34.387V55.5655C135.838 56.8146 135.932 57.9691 136.121 59.029C136.349 60.0888 136.803 60.9216 137.484 61.5272C138.165 62.1329 139.187 62.4357 140.55 62.4357ZM171.635 68.6246C168.872 68.6246 166.563 68.0946 164.708 67.0348C162.853 65.937 161.453 64.3472 160.507 62.2654C159.56 60.1835 159.03 57.6284 158.917 54.6002L166.128 53.1808C166.203 54.9598 166.412 56.5307 166.752 57.8934C167.131 59.2561 167.68 60.316 168.399 61.073C169.156 61.7922 170.14 62.1518 171.351 62.1518C172.714 62.1518 173.679 61.7543 174.247 60.9594C174.815 60.1267 175.099 59.0857 175.099 57.8366C175.099 55.8304 174.644 54.1839 173.736 52.8969C172.827 51.6099 171.616 50.3229 170.102 49.0359L164.311 43.9258C162.683 42.5253 161.377 40.9734 160.393 39.27C159.447 37.5288 158.973 35.3901 158.973 32.854C158.973 29.2202 160.033 26.4191 162.153 24.4508C164.273 22.4824 167.169 21.4983 170.84 21.4983C172.998 21.4983 174.796 21.8389 176.234 22.5203C177.673 23.1638 178.808 24.0722 179.641 25.2457C180.512 26.4191 181.155 27.7628 181.571 29.2769C181.988 30.7532 182.253 32.3241 182.366 33.9896L175.212 35.2387C175.136 33.8003 174.966 32.5133 174.701 31.3778C174.474 30.2422 174.039 29.3527 173.395 28.7092C172.79 28.0657 171.881 27.7439 170.67 27.7439C169.421 27.7439 168.456 28.1603 167.774 28.9931C167.131 29.788 166.809 30.791 166.809 32.0023C166.809 33.5543 167.131 34.8413 167.774 35.8633C168.418 36.8474 169.345 37.8695 170.556 38.9293L176.291 43.9826C178.184 45.5724 179.792 47.4461 181.117 49.6037C182.48 51.7234 183.161 54.2974 183.161 57.3256C183.161 59.5211 182.669 61.4705 181.685 63.1738C180.739 64.8772 179.395 66.2209 177.654 67.2051C175.95 68.1514 173.944 68.6246 171.635 68.6246Z" fill="#889397"/>
<path d="M2 113.557H273.473" stroke="#889397" stroke-width="3.54867" stroke-linecap="round"/>
</svg>
