<svg width="593" height="81" viewBox="0 0 593 81" fill="none" xmlns="http://www.w3.org/2000/svg">
<g clip-path="url(#clip0_1_113)">
<g clip-path="url(#clip1_1_113)">
<path d="M30.2067 66.7363L30.1926 66.7128L30.1778 66.6897C28.389 63.9071 25.6113 59.5423 22.8335 54.9796C22.6281 54.6099 22.4249 54.2445 22.2241 53.8833C19.4839 48.9559 17.174 44.802 15.5448 41.0007L15.5361 40.9804L15.5269 40.9603C13.3484 36.2071 12.2949 32.5106 12.2949 30.3217C12.2949 19.5245 21.0819 10.7375 31.8791 10.7375C42.6763 10.7375 51.4633 19.5245 51.4633 30.3217C51.4633 32.5139 50.4097 36.2071 48.2232 41.1777C46.4515 45.1142 44.0871 49.843 40.9321 55.1671L40.932 55.1671L40.9259 55.1777C38.1482 59.9394 35.3783 64.2905 33.614 66.8389L33.5811 66.8864L33.5514 66.936C33.3337 67.2988 33.1202 67.6265 32.8989 67.9664C32.8366 68.0621 32.7737 68.1587 32.7099 68.2573C32.4523 68.6553 32.1779 69.0898 31.9419 69.5461L31.9388 69.5508L31.8318 69.3769C31.5924 68.9095 31.3115 68.4645 31.0482 68.0577C30.9844 67.959 30.9215 67.8624 30.8592 67.7668C30.6379 67.4269 30.4245 67.0992 30.2067 66.7363ZM15.8917 41.0365L15.8974 41.0493L15.9034 41.0619C17.722 44.901 20.1369 49.5282 23.142 54.9373L23.1591 54.9681L23.1774 54.9981C23.7659 55.965 24.3488 56.9285 24.9196 57.872C27.0305 61.3613 28.9751 64.5756 30.4202 66.6631L31.9337 68.8493L33.3716 66.6126C35.1801 63.7993 37.7842 59.5925 40.5807 54.9981L40.5916 54.9803L40.602 54.9622C43.6151 49.7395 46.04 45.0949 47.8678 41.0336C49.8829 36.5998 51.0197 32.7169 51.0197 30.3217V30.3032L51.0193 30.2847C50.8003 19.7727 42.2607 11.1811 31.8791 11.1811C21.3177 11.1811 12.7384 19.7603 12.7384 30.3217C12.7384 32.7175 13.8758 36.6015 15.8917 41.0365Z" stroke="#FBFBFE" stroke-width="3.54867"/>
<path d="M31.2802 38.7276C27.4695 38.7276 24.2716 35.5297 24.2716 31.719C24.2716 27.9082 27.4695 24.7104 31.2802 24.7104C35.091 24.7104 38.2888 27.9082 38.2888 31.719C38.2888 35.5297 35.091 38.7276 31.2802 38.7276ZM31.2802 25.1539C27.7053 25.1539 24.7152 28.1441 24.7152 31.719C24.7152 35.2939 27.7053 38.284 31.2802 38.284C34.8551 38.284 37.8453 35.2939 37.8453 31.719C37.8453 28.1441 34.8551 25.1539 31.2802 25.1539Z" stroke="#FBFBFE" stroke-width="3.54867"/>
</g>
<path d="M111.744 10.2053H103.664V30.9011H101.428V10.2053H93.3482V8.22516H111.744V10.2053ZM111.852 24.0345V14.2614H114.024V23.6512C114.024 25.5462 114.343 26.9621 114.982 27.899C115.642 28.8358 116.611 29.3042 117.888 29.3042C118.74 29.3042 119.56 29.1233 120.348 28.7613C121.157 28.378 121.87 27.8457 122.487 27.1644C123.105 26.4618 123.573 25.6527 123.893 24.7371V14.2614H126.064V28.2822C126.064 28.5803 126.128 28.8039 126.256 28.9529C126.384 29.0807 126.575 29.1552 126.831 29.1765V30.9011C126.575 30.9224 126.373 30.9331 126.224 30.9331C126.075 30.9544 125.937 30.965 125.809 30.965C125.383 30.9224 125.01 30.7521 124.691 30.454C124.393 30.1559 124.233 29.794 124.212 29.3681L124.148 27.1325C123.424 28.41 122.434 29.4107 121.178 30.1346C119.943 30.8586 118.602 31.2205 117.154 31.2205C115.408 31.2205 114.088 30.6137 113.193 29.4001C112.299 28.1864 111.852 26.3979 111.852 24.0345ZM138.193 31.2205C136.979 31.2205 135.861 30.997 134.839 30.5498C133.839 30.0814 132.955 29.4426 132.189 28.6335C131.443 27.8245 130.858 26.8982 130.432 25.8549C130.027 24.8116 129.825 23.7044 129.825 22.5334C129.825 20.9578 130.176 19.5206 130.879 18.2218C131.582 16.9229 132.561 15.8903 133.817 15.1238C135.074 14.3573 136.521 13.974 138.161 13.974C139.715 13.974 141.089 14.336 142.281 15.0599C143.473 15.7625 144.357 16.7207 144.932 17.9343L142.824 18.605C142.355 17.7533 141.695 17.0933 140.844 16.6249C140.013 16.1351 139.087 15.8903 138.065 15.8903C136.958 15.8903 135.947 16.1777 135.031 16.7526C134.115 17.3275 133.381 18.1153 132.827 19.116C132.295 20.1167 132.029 21.2559 132.029 22.5334C132.029 23.7896 132.306 24.9287 132.859 25.9508C133.413 26.9728 134.147 27.7925 135.063 28.41C135.979 29.0062 136.99 29.3042 138.097 29.3042C138.821 29.3042 139.513 29.1765 140.173 28.921C140.854 28.6655 141.44 28.3248 141.93 27.899C142.441 27.4518 142.781 26.9728 142.952 26.4618L145.091 27.1005C144.793 27.8883 144.293 28.6016 143.59 29.2404C142.909 29.8578 142.1 30.3476 141.163 30.7095C140.248 31.0502 139.257 31.2205 138.193 31.2205ZM148.344 24.0345V14.2614H150.515V23.6512C150.515 25.5462 150.835 26.9621 151.474 27.899C152.134 28.8358 153.102 29.3042 154.38 29.3042C155.232 29.3042 156.051 29.1233 156.839 28.7613C157.648 28.378 158.362 27.8457 158.979 27.1644C159.596 26.4618 160.065 25.6527 160.384 24.7371V14.2614H162.556V28.2822C162.556 28.5803 162.62 28.8039 162.748 28.9529C162.875 29.0807 163.067 29.1552 163.323 29.1765V30.9011C163.067 30.9224 162.865 30.9331 162.716 30.9331C162.567 30.9544 162.428 30.965 162.301 30.965C161.875 30.9224 161.502 30.7521 161.183 30.454C160.885 30.1559 160.725 29.794 160.704 29.3681L160.64 27.1325C159.916 28.41 158.926 29.4107 157.67 30.1346C156.435 30.8586 155.093 31.2205 153.645 31.2205C151.899 31.2205 150.579 30.6137 149.685 29.4001C148.791 28.1864 148.344 26.3979 148.344 24.0345ZM192.218 30.9011H190.047V21.6072C190.047 19.6696 189.738 18.2431 189.121 17.3275C188.503 16.4119 187.587 15.9542 186.374 15.9542C185.118 15.9542 183.989 16.4013 182.988 17.2956C182.009 18.1898 181.317 19.3396 180.912 20.7449V30.9011H178.741V21.6072C178.741 19.6483 178.443 18.2218 177.846 17.3275C177.25 16.4119 176.335 15.9542 175.1 15.9542C173.865 15.9542 172.747 16.3906 171.746 17.2636C170.746 18.1366 170.043 19.2864 169.638 20.7129V30.9011H167.467V14.2614H169.447V18.0301C170.149 16.7313 171.044 15.7306 172.129 15.028C173.237 14.3253 174.461 13.974 175.802 13.974C177.186 13.974 178.304 14.3679 179.156 15.1557C180.008 15.9435 180.529 16.9762 180.721 18.2537C181.487 16.8484 182.403 15.7838 183.467 15.0599C184.553 14.336 185.778 13.974 187.14 13.974C188.077 13.974 188.865 14.1443 189.504 14.485C190.164 14.8257 190.685 15.3154 191.069 15.9542C191.473 16.5716 191.761 17.3275 191.931 18.2218C192.123 19.0947 192.218 20.0742 192.218 21.1601V30.9011ZM195.474 26.1104C195.474 25.0671 195.773 24.1729 196.369 23.4277C196.965 22.6611 197.785 22.0756 198.828 21.6711C199.893 21.2452 201.117 21.0323 202.501 21.0323C203.31 21.0323 204.151 21.0962 205.024 21.2239C205.897 21.3517 206.674 21.5433 207.355 21.7988V20.3935C207.355 18.9883 206.94 17.8704 206.11 17.0401C205.279 16.2097 204.13 15.7945 202.66 15.7945C201.766 15.7945 200.883 15.9648 200.01 16.3055C199.158 16.6249 198.264 17.1039 197.327 17.7427L196.496 16.2097C197.582 15.4644 198.647 14.9109 199.69 14.5489C200.734 14.1656 201.798 13.974 202.884 13.974C204.928 13.974 206.546 14.5595 207.739 15.7306C208.931 16.9017 209.527 18.5198 209.527 20.5852V28.2822C209.527 28.5803 209.591 28.8039 209.719 28.9529C209.847 29.0807 210.049 29.1552 210.326 29.1765V30.9011C210.091 30.9224 209.889 30.9437 209.719 30.965C209.548 30.9863 209.421 30.9863 209.336 30.965C208.803 30.9437 208.399 30.7734 208.122 30.454C207.845 30.1346 207.696 29.794 207.675 29.432L207.643 28.2184C206.898 29.1765 205.929 29.9217 204.736 30.454C203.544 30.965 202.33 31.2205 201.096 31.2205C200.031 31.2205 199.062 30.997 198.189 30.5498C197.337 30.0814 196.667 29.4639 196.177 28.6974C195.709 27.9096 195.474 27.0473 195.474 26.1104ZM206.621 27.388C206.855 27.0899 207.036 26.8024 207.164 26.5256C207.291 26.2488 207.355 26.004 207.355 25.7911V23.3638C206.631 23.087 205.876 22.8741 205.088 22.725C204.321 22.576 203.544 22.5015 202.756 22.5015C201.202 22.5015 199.946 22.8102 198.988 23.4277C198.029 24.0451 197.55 24.8862 197.55 25.9508C197.55 26.5682 197.71 27.1538 198.029 27.7073C198.349 28.2396 198.817 28.6868 199.435 29.0487C200.052 29.3894 200.776 29.5597 201.607 29.5597C202.65 29.5597 203.619 29.3575 204.513 28.9529C205.428 28.5484 206.131 28.0267 206.621 27.388ZM203.587 11.0996L202.149 10.5566L204.034 7.58641H206.333L203.587 11.0996ZM228.208 30.9011H226.037V21.6072C226.037 19.6483 225.749 18.2218 225.174 17.3275C224.599 16.4119 223.694 15.9542 222.46 15.9542C221.608 15.9542 220.767 16.1671 219.936 16.5929C219.106 16.9975 218.371 17.5617 217.733 18.2856C217.115 18.9883 216.668 19.7974 216.391 20.7129V30.9011H214.22V14.2614H216.2V18.0301C216.647 17.221 217.232 16.5184 217.956 15.9222C218.68 15.3048 219.5 14.8257 220.416 14.485C221.331 14.1443 222.279 13.974 223.258 13.974C224.174 13.974 224.951 14.1443 225.589 14.485C226.228 14.8257 226.739 15.3154 227.122 15.9542C227.506 16.5716 227.783 17.3275 227.953 18.2218C228.123 19.0947 228.208 20.0742 228.208 21.1601V30.9011ZM233.191 33.4881L233.734 30.8053H232.999V27.7712H235.107V30.8053L234.309 33.4881H233.191ZM261.855 12.4729C261.536 12.111 261.163 11.7916 260.737 11.5148C260.311 11.2167 259.832 10.9612 259.3 10.7483C258.768 10.5353 258.193 10.365 257.575 10.2373C256.979 10.1095 256.34 10.0456 255.659 10.0456C253.679 10.0456 252.22 10.4289 251.284 11.1954C250.368 11.9406 249.91 12.9626 249.91 14.2614C249.91 15.1557 250.123 15.8583 250.549 16.3694C250.996 16.8804 251.688 17.2956 252.625 17.6149C253.562 17.9343 254.754 18.2643 256.202 18.605C257.82 18.9457 259.215 19.3502 260.386 19.8187C261.557 20.2871 262.462 20.9258 263.101 21.7349C263.739 22.5227 264.059 23.598 264.059 24.9607C264.059 26.004 263.857 26.9089 263.452 27.6754C263.047 28.4419 262.483 29.0807 261.759 29.5917C261.035 30.1027 260.173 30.486 259.172 30.7415C258.172 30.9757 257.075 31.0928 255.883 31.0928C254.712 31.0928 253.583 30.9757 252.497 30.7415C251.433 30.486 250.421 30.124 249.463 29.6556C248.505 29.1658 247.611 28.5484 246.78 27.8032L247.898 25.9827C248.303 26.4085 248.782 26.8131 249.335 27.1963C249.91 27.5583 250.538 27.8883 251.22 28.1864C251.922 28.4845 252.668 28.7187 253.455 28.8891C254.264 29.0381 255.095 29.1126 255.947 29.1126C257.756 29.1126 259.162 28.7826 260.162 28.1225C261.184 27.4625 261.695 26.4831 261.695 25.1842C261.695 24.2474 261.44 23.5022 260.929 22.9486C260.418 22.3737 259.651 21.9053 258.629 21.5433C257.607 21.1813 256.351 20.83 254.861 20.4894C253.285 20.1274 251.954 19.7228 250.868 19.2757C249.783 18.8286 248.963 18.2431 248.409 17.5191C247.877 16.7739 247.611 15.7945 247.611 14.5808C247.611 13.1756 247.951 11.9938 248.633 11.0357C249.335 10.0563 250.294 9.3217 251.507 8.83199C252.721 8.32098 254.115 8.06548 255.691 8.06548C256.692 8.06548 257.618 8.17193 258.47 8.38485C259.343 8.57648 260.141 8.86392 260.865 9.24718C261.61 9.63044 262.302 10.1095 262.941 10.6844L261.855 12.4729ZM266.212 26.1104C266.212 25.0671 266.51 24.1729 267.106 23.4277C267.703 22.6611 268.522 22.0756 269.566 21.6711C270.63 21.2452 271.854 21.0323 273.238 21.0323C274.048 21.0323 274.889 21.0962 275.762 21.2239C276.635 21.3517 277.412 21.5433 278.093 21.7988V20.3935C278.093 18.9883 277.678 17.8704 276.847 17.0401C276.017 16.2097 274.867 15.7945 273.398 15.7945C272.504 15.7945 271.62 15.9648 270.747 16.3055C269.896 16.6249 269.001 17.1039 268.065 17.7427L267.234 16.2097C268.32 15.4644 269.385 14.9109 270.428 14.5489C271.471 14.1656 272.536 13.974 273.622 13.974C275.666 13.974 277.284 14.5595 278.476 15.7306C279.669 16.9017 280.265 18.5198 280.265 20.5852V28.2822C280.265 28.5803 280.329 28.8039 280.456 28.9529C280.584 29.0807 280.786 29.1552 281.063 29.1765V30.9011C280.829 30.9224 280.627 30.9437 280.456 30.965C280.286 30.9863 280.158 30.9863 280.073 30.965C279.541 30.9437 279.136 30.7734 278.86 30.454C278.583 30.1346 278.434 29.794 278.412 29.432L278.38 28.2184C277.635 29.1765 276.666 29.9217 275.474 30.454C274.282 30.965 273.068 31.2205 271.833 31.2205C270.769 31.2205 269.8 30.997 268.927 30.5498C268.075 30.0814 267.404 29.4639 266.915 28.6974C266.446 27.9096 266.212 27.0473 266.212 26.1104ZM277.358 27.388C277.593 27.0899 277.774 26.8024 277.901 26.5256C278.029 26.2488 278.093 26.004 278.093 25.7911V23.3638C277.369 23.087 276.613 22.8741 275.825 22.725C275.059 22.576 274.282 22.5015 273.494 22.5015C271.94 22.5015 270.683 22.8102 269.725 23.4277C268.767 24.0451 268.288 24.8862 268.288 25.9508C268.288 26.5682 268.448 27.1538 268.767 27.7073C269.087 28.2396 269.555 28.6868 270.172 29.0487C270.79 29.3894 271.514 29.5597 272.344 29.5597C273.388 29.5597 274.356 29.3575 275.251 28.9529C276.166 28.5484 276.869 28.0267 277.358 27.388ZM298.946 30.9011H296.774V21.6072C296.774 19.6483 296.487 18.2218 295.912 17.3275C295.337 16.4119 294.432 15.9542 293.197 15.9542C292.346 15.9542 291.505 16.1671 290.674 16.5929C289.844 16.9975 289.109 17.5617 288.47 18.2856C287.853 18.9883 287.406 19.7974 287.129 20.7129V30.9011H284.957V14.2614H286.937V18.0301C287.385 17.221 287.97 16.5184 288.694 15.9222C289.418 15.3048 290.238 14.8257 291.153 14.485C292.069 14.1443 293.016 13.974 293.996 13.974C294.911 13.974 295.688 14.1443 296.327 14.485C296.966 14.8257 297.477 15.3154 297.86 15.9542C298.243 16.5716 298.52 17.3275 298.691 18.2218C298.861 19.0947 298.946 20.0742 298.946 21.1601V30.9011ZM332.254 30.9011V12.441L324.046 26.7811H322.641L314.401 12.441V30.9011H312.165V8.22516H314.464L323.311 23.747L332.222 8.22516H334.49V30.9011H332.254ZM339.726 30.9011V14.2614H341.898V30.9011H339.726ZM339.726 10.7802V7.58641H341.898V10.7802H339.726ZM353.356 31.1247C352.228 31.1247 351.184 30.8905 350.226 30.4221C349.268 29.9537 348.438 29.3255 347.735 28.5377C347.054 27.7286 346.521 26.8131 346.138 25.7911C345.755 24.769 345.563 23.7151 345.563 22.6292C345.563 21.4581 345.744 20.3616 346.106 19.3396C346.49 18.2963 347.022 17.3701 347.703 16.561C348.406 15.7519 349.226 15.1238 350.162 14.6766C351.099 14.2082 352.143 13.974 353.292 13.974C354.719 13.974 355.954 14.336 356.997 15.0599C358.062 15.7838 358.956 16.6781 359.68 17.7427V14.2614H361.628V30.965C361.628 32.498 361.256 33.7862 360.51 34.8295C359.786 35.8941 358.796 36.6926 357.54 37.2249C356.305 37.7572 354.953 38.0233 353.484 38.0233C351.589 38.0233 350.056 37.6826 348.885 37.0013C347.714 36.32 346.756 35.4044 346.01 34.2546L347.352 33.2007C348.012 34.244 348.885 35.0211 349.971 35.5322C351.078 36.0432 352.249 36.2987 353.484 36.2987C354.57 36.2987 355.56 36.0964 356.454 35.6918C357.37 35.3086 358.094 34.7231 358.626 33.9353C359.18 33.1475 359.456 32.1574 359.456 30.965V27.6754C358.818 28.7187 357.945 29.5597 356.837 30.1985C355.73 30.816 354.57 31.1247 353.356 31.1247ZM353.963 29.3042C354.623 29.3042 355.251 29.1871 355.847 28.9529C356.465 28.7187 357.029 28.41 357.54 28.0267C358.051 27.6222 358.477 27.175 358.818 26.6853C359.158 26.1956 359.371 25.6953 359.456 25.1842V20.0422C359.137 19.2331 358.679 18.5198 358.083 17.9024C357.487 17.2636 356.805 16.7739 356.039 16.4332C355.294 16.0713 354.517 15.8903 353.708 15.8903C352.771 15.8903 351.93 16.0926 351.184 16.4971C350.46 16.8804 349.843 17.402 349.332 18.0621C348.842 18.7008 348.459 19.4248 348.182 20.2339C347.905 21.0429 347.767 21.852 347.767 22.6611C347.767 23.5554 347.927 24.4071 348.246 25.2162C348.565 26.004 349.002 26.7173 349.556 27.356C350.13 27.9735 350.791 28.4526 351.536 28.7932C352.302 29.1339 353.111 29.3042 353.963 29.3042ZM366.264 24.0345V14.2614H368.436V23.6512C368.436 25.5462 368.756 26.9621 369.394 27.899C370.054 28.8358 371.023 29.3042 372.301 29.3042C373.152 29.3042 373.972 29.1233 374.76 28.7613C375.569 28.378 376.282 27.8457 376.9 27.1644C377.517 26.4618 377.986 25.6527 378.305 24.7371V14.2614H380.477V28.2822C380.477 28.5803 380.541 28.8039 380.668 28.9529C380.796 29.0807 380.988 29.1552 381.243 29.1765V30.9011C380.988 30.9224 380.786 30.9331 380.636 30.9331C380.487 30.9544 380.349 30.965 380.221 30.965C379.795 30.9224 379.423 30.7521 379.103 30.454C378.805 30.1559 378.646 29.794 378.624 29.3681L378.561 27.1325C377.837 28.41 376.847 29.4107 375.59 30.1346C374.355 30.8586 373.014 31.2205 371.566 31.2205C369.82 31.2205 368.5 30.6137 367.606 29.4001C366.712 28.1864 366.264 26.3979 366.264 24.0345ZM392.573 31.2205C391.381 31.2205 390.274 30.997 389.252 30.5498C388.23 30.0814 387.346 29.4533 386.601 28.6655C385.856 27.8564 385.27 26.9302 384.844 25.8869C384.44 24.8436 384.237 23.7257 384.237 22.5334C384.237 20.9791 384.589 19.5525 385.291 18.2537C386.015 16.9549 387.005 15.9222 388.262 15.1557C389.518 14.3679 390.944 13.974 392.541 13.974C394.181 13.974 395.607 14.3679 396.821 15.1557C398.056 15.9435 399.025 16.9868 399.727 18.2856C400.43 19.5632 400.781 20.9684 400.781 22.5015C400.781 22.6718 400.781 22.8421 400.781 23.0125C400.781 23.1615 400.771 23.2786 400.749 23.3638H386.505C386.612 24.5561 386.942 25.6207 387.495 26.5576C388.07 27.4731 388.805 28.2077 389.699 28.7613C390.614 29.2936 391.605 29.5597 392.669 29.5597C393.755 29.5597 394.777 29.283 395.735 28.7294C396.715 28.1758 397.396 27.4518 397.779 26.5576L399.664 27.0686C399.323 27.8564 398.801 28.5697 398.099 29.2084C397.396 29.8472 396.566 30.3476 395.607 30.7095C394.671 31.0502 393.659 31.2205 392.573 31.2205ZM386.441 21.7988H398.737C398.652 20.5852 398.322 19.5206 397.747 18.605C397.194 17.6895 396.459 16.9762 395.544 16.4652C394.649 15.9329 393.659 15.6667 392.573 15.6667C391.487 15.6667 390.497 15.9329 389.603 16.4652C388.709 16.9762 387.974 17.7001 387.399 18.637C386.846 19.5525 386.526 20.6065 386.441 21.7988ZM404.228 7.58641H406.4V27.1325C406.4 27.9628 406.549 28.5058 406.847 28.7613C407.145 29.0168 407.507 29.1446 407.933 29.1446C408.316 29.1446 408.699 29.102 409.083 29.0168C409.466 28.9316 409.796 28.8465 410.073 28.7613L410.456 30.5179C410.051 30.6882 409.551 30.8266 408.955 30.9331C408.38 31.0395 407.88 31.0928 407.454 31.0928C406.474 31.0928 405.686 30.8053 405.09 30.2304C404.515 29.6556 404.228 28.8678 404.228 27.867V7.58641ZM418.89 22.6292C418.89 21.0536 419.209 19.6164 419.848 18.3176C420.508 16.9975 421.413 15.9435 422.563 15.1557C423.712 14.3679 425.022 13.974 426.491 13.974C427.875 13.974 429.11 14.3466 430.196 15.0918C431.303 15.8158 432.165 16.6994 432.783 17.7427V7.58641H434.955V28.2822C434.955 28.5803 435.018 28.8039 435.146 28.9529C435.274 29.0807 435.466 29.1552 435.721 29.1765V30.9011C435.295 30.965 434.965 30.9863 434.731 30.965C434.284 30.9437 433.89 30.7627 433.549 30.4221C433.209 30.0814 433.038 29.7088 433.038 29.3042V27.6754C432.378 28.7613 431.484 29.6236 430.355 30.2624C429.227 30.9011 428.056 31.2205 426.842 31.2205C425.693 31.2205 424.628 30.9863 423.648 30.5179C422.69 30.0495 421.849 29.4107 421.125 28.6016C420.423 27.7925 419.869 26.877 419.465 25.8549C419.081 24.8116 418.89 23.7364 418.89 22.6292ZM432.783 25.1842V20.0422C432.506 19.2757 432.059 18.5837 431.441 17.9663C430.824 17.3275 430.121 16.8271 429.333 16.4652C428.567 16.0819 427.8 15.8903 427.034 15.8903C426.14 15.8903 425.331 16.0819 424.607 16.4652C423.883 16.8271 423.255 17.3275 422.722 17.9663C422.211 18.605 421.817 19.3289 421.541 20.138C421.264 20.9471 421.125 21.7775 421.125 22.6292C421.125 23.5235 421.274 24.3751 421.573 25.1842C421.892 25.9933 422.339 26.7173 422.914 27.356C423.489 27.9735 424.149 28.4526 424.894 28.7932C425.639 29.1339 426.448 29.3042 427.321 29.3042C427.875 29.3042 428.45 29.1978 429.046 28.9849C429.642 28.7719 430.206 28.4845 430.739 28.1225C431.292 27.7393 431.75 27.2922 432.112 26.7811C432.474 26.2701 432.698 25.7378 432.783 25.1842ZM447.061 31.2205C445.869 31.2205 444.762 30.997 443.74 30.5498C442.718 30.0814 441.834 29.4533 441.089 28.6655C440.344 27.8564 439.758 26.9302 439.332 25.8869C438.928 24.8436 438.725 23.7257 438.725 22.5334C438.725 20.9791 439.077 19.5525 439.779 18.2537C440.503 16.9549 441.493 15.9222 442.75 15.1557C444.006 14.3679 445.432 13.974 447.029 13.974C448.669 13.974 450.095 14.3679 451.309 15.1557C452.544 15.9435 453.513 16.9868 454.215 18.2856C454.918 19.5632 455.269 20.9684 455.269 22.5015C455.269 22.6718 455.269 22.8421 455.269 23.0125C455.269 23.1615 455.259 23.2786 455.237 23.3638H440.993C441.1 24.5561 441.43 25.6207 441.983 26.5576C442.558 27.4731 443.293 28.2077 444.187 28.7613C445.102 29.2936 446.093 29.5597 447.157 29.5597C448.243 29.5597 449.265 29.283 450.223 28.7294C451.203 28.1758 451.884 27.4518 452.267 26.5576L454.152 27.0686C453.811 27.8564 453.289 28.5697 452.587 29.2084C451.884 29.8472 451.054 30.3476 450.095 30.7095C449.159 31.0502 448.147 31.2205 447.061 31.2205ZM440.929 21.7988H453.225C453.14 20.5852 452.81 19.5206 452.235 18.605C451.682 17.6895 450.947 16.9762 450.032 16.4652C449.137 15.9329 448.147 15.6667 447.061 15.6667C445.975 15.6667 444.985 15.9329 444.091 16.4652C443.197 16.9762 442.462 17.7001 441.887 18.637C441.334 19.5525 441.014 20.6065 440.929 21.7988ZM111.744 47.2053H103.664V67.9011H101.428V47.2053H93.3482V45.2252H111.744V47.2053ZM111.852 61.0345V51.2614H114.024V60.6512C114.024 62.5462 114.343 63.9621 114.982 64.899C115.642 65.8358 116.611 66.3042 117.888 66.3042C118.74 66.3042 119.56 66.1233 120.348 65.7613C121.157 65.378 121.87 64.8457 122.487 64.1644C123.105 63.4618 123.573 62.6527 123.893 61.7371V51.2614H126.064V65.2822C126.064 65.5803 126.128 65.8039 126.256 65.9529C126.384 66.0807 126.575 66.1552 126.831 66.1765V67.9011C126.575 67.9224 126.373 67.9331 126.224 67.9331C126.075 67.9544 125.937 67.965 125.809 67.965C125.383 67.9224 125.01 67.7521 124.691 67.454C124.393 67.1559 124.233 66.794 124.212 66.3681L124.148 64.1325C123.424 65.41 122.434 66.4107 121.178 67.1346C119.943 67.8586 118.602 68.2205 117.154 68.2205C115.408 68.2205 114.088 67.6137 113.193 66.4001C112.299 65.1864 111.852 63.3979 111.852 61.0345ZM138.193 68.2205C136.979 68.2205 135.861 67.997 134.839 67.5498C133.839 67.0814 132.955 66.4426 132.189 65.6335C131.443 64.8245 130.858 63.8982 130.432 62.8549C130.027 61.8116 129.825 60.7044 129.825 59.5334C129.825 57.9578 130.176 56.5206 130.879 55.2218C131.582 53.9229 132.561 52.8903 133.817 52.1238C135.074 51.3573 136.521 50.974 138.161 50.974C139.715 50.974 141.089 51.336 142.281 52.0599C143.473 52.7625 144.357 53.7207 144.932 54.9343L142.824 55.605C142.355 54.7533 141.695 54.0933 140.844 53.6249C140.013 53.1351 139.087 52.8903 138.065 52.8903C136.958 52.8903 135.947 53.1777 135.031 53.7526C134.115 54.3275 133.381 55.1153 132.827 56.116C132.295 57.1167 132.029 58.2559 132.029 59.5334C132.029 60.7896 132.306 61.9287 132.859 62.9508C133.413 63.9728 134.147 64.7925 135.063 65.41C135.979 66.0062 136.99 66.3042 138.097 66.3042C138.821 66.3042 139.513 66.1765 140.173 65.921C140.854 65.6655 141.44 65.3248 141.93 64.899C142.441 64.4518 142.781 63.9728 142.952 63.4618L145.091 64.1005C144.793 64.8883 144.293 65.6016 143.59 66.2404C142.909 66.8578 142.1 67.3476 141.163 67.7095C140.248 68.0502 139.257 68.2205 138.193 68.2205ZM148.344 61.0345V51.2614H150.515V60.6512C150.515 62.5462 150.835 63.9621 151.474 64.899C152.134 65.8358 153.102 66.3042 154.38 66.3042C155.232 66.3042 156.051 66.1233 156.839 65.7613C157.648 65.378 158.362 64.8457 158.979 64.1644C159.596 63.4618 160.065 62.6527 160.384 61.7371V51.2614H162.556V65.2822C162.556 65.5803 162.62 65.8039 162.748 65.9529C162.875 66.0807 163.067 66.1552 163.323 66.1765V67.9011C163.067 67.9224 162.865 67.9331 162.716 67.9331C162.567 67.9544 162.428 67.965 162.301 67.965C161.875 67.9224 161.502 67.7521 161.183 67.454C160.885 67.1559 160.725 66.794 160.704 66.3681L160.64 64.1325C159.916 65.41 158.926 66.4107 157.67 67.1346C156.435 67.8586 155.093 68.2205 153.645 68.2205C151.899 68.2205 150.579 67.6137 149.685 66.4001C148.791 65.1864 148.344 63.3979 148.344 61.0345ZM192.218 67.9011H190.047V58.6072C190.047 56.6696 189.738 55.2431 189.121 54.3275C188.503 53.4119 187.587 52.9542 186.374 52.9542C185.118 52.9542 183.989 53.4013 182.988 54.2956C182.009 55.1898 181.317 56.3396 180.912 57.7449V67.9011H178.741V58.6072C178.741 56.6483 178.443 55.2218 177.846 54.3275C177.25 53.4119 176.335 52.9542 175.1 52.9542C173.865 52.9542 172.747 53.3906 171.746 54.2636C170.746 55.1366 170.043 56.2864 169.638 57.7129V67.9011H167.467V51.2614H169.447V55.0301C170.149 53.7313 171.044 52.7306 172.129 52.028C173.237 51.3253 174.461 50.974 175.802 50.974C177.186 50.974 178.304 51.3679 179.156 52.1557C180.008 52.9435 180.529 53.9762 180.721 55.2537C181.487 53.8484 182.403 52.7838 183.467 52.0599C184.553 51.336 185.778 50.974 187.14 50.974C188.077 50.974 188.865 51.1443 189.504 51.485C190.164 51.8257 190.685 52.3154 191.069 52.9542C191.473 53.5716 191.761 54.3275 191.931 55.2218C192.123 56.0947 192.218 57.0742 192.218 58.1601V67.9011ZM195.474 63.1104C195.474 62.0671 195.773 61.1729 196.369 60.4277C196.965 59.6611 197.785 59.0756 198.828 58.6711C199.893 58.2452 201.117 58.0323 202.501 58.0323C203.31 58.0323 204.151 58.0962 205.024 58.2239C205.897 58.3517 206.674 58.5433 207.355 58.7988V57.3935C207.355 55.9883 206.94 54.8704 206.11 54.0401C205.279 53.2097 204.13 52.7945 202.66 52.7945C201.766 52.7945 200.883 52.9648 200.01 53.3055C199.158 53.6249 198.264 54.1039 197.327 54.7427L196.496 53.2097C197.582 52.4644 198.647 51.9109 199.69 51.5489C200.734 51.1656 201.798 50.974 202.884 50.974C204.928 50.974 206.546 51.5595 207.739 52.7306C208.931 53.9017 209.527 55.5198 209.527 57.5852V65.2822C209.527 65.5803 209.591 65.8039 209.719 65.9529C209.847 66.0807 210.049 66.1552 210.326 66.1765V67.9011C210.091 67.9224 209.889 67.9437 209.719 67.965C209.548 67.9863 209.421 67.9863 209.336 67.965C208.803 67.9437 208.399 67.7734 208.122 67.454C207.845 67.1346 207.696 66.794 207.675 66.432L207.643 65.2184C206.898 66.1765 205.929 66.9217 204.736 67.454C203.544 67.965 202.33 68.2205 201.096 68.2205C200.031 68.2205 199.062 67.997 198.189 67.5498C197.337 67.0814 196.667 66.4639 196.177 65.6974C195.709 64.9096 195.474 64.0473 195.474 63.1104ZM206.621 64.388C206.855 64.0899 207.036 63.8024 207.164 63.5256C207.291 63.2488 207.355 63.004 207.355 62.7911V60.3638C206.631 60.087 205.876 59.8741 205.088 59.725C204.321 59.576 203.544 59.5015 202.756 59.5015C201.202 59.5015 199.946 59.8102 198.988 60.4277C198.029 61.0451 197.55 61.8862 197.55 62.9508C197.55 63.5682 197.71 64.1538 198.029 64.7073C198.349 65.2396 198.817 65.6868 199.435 66.0487C200.052 66.3894 200.776 66.5597 201.607 66.5597C202.65 66.5597 203.619 66.3575 204.513 65.9529C205.428 65.5484 206.131 65.0267 206.621 64.388ZM203.587 48.0996L202.149 47.5566L204.034 44.5864H206.333L203.587 48.0996ZM228.208 67.9011H226.037V58.6072C226.037 56.6483 225.749 55.2218 225.174 54.3275C224.599 53.4119 223.694 52.9542 222.46 52.9542C221.608 52.9542 220.767 53.1671 219.936 53.5929C219.106 53.9975 218.371 54.5617 217.733 55.2856C217.115 55.9883 216.668 56.7974 216.391 57.7129V67.9011H214.22V51.2614H216.2V55.0301C216.647 54.221 217.232 53.5184 217.956 52.9222C218.68 52.3048 219.5 51.8257 220.416 51.485C221.331 51.1443 222.279 50.974 223.258 50.974C224.174 50.974 224.951 51.1443 225.589 51.485C226.228 51.8257 226.739 52.3154 227.122 52.9542C227.506 53.5716 227.783 54.3275 227.953 55.2218C228.123 56.0947 228.208 57.0742 228.208 58.1601V67.9011ZM233.191 70.4881L233.734 67.8053H232.999V64.7712H235.107V67.8053L234.309 70.4881H233.191ZM254.629 45.2252H256.513L265.935 67.9011H263.572L260.633 60.8109H250.445L247.539 67.9011H245.144L254.629 45.2252ZM260.122 59.0543L255.555 47.8441L250.924 59.0543H260.122ZM277.043 53.1777C275.595 53.2203 274.317 53.6249 273.21 54.3914C272.124 55.1579 271.358 56.2118 270.91 57.5532V67.9011H268.739V51.2614H270.783V55.2537C271.358 54.0826 272.113 53.1351 273.05 52.4112C274.008 51.6873 275.02 51.2827 276.084 51.1976C276.297 51.1763 276.478 51.1656 276.627 51.1656C276.798 51.1656 276.936 51.1763 277.043 51.1976V53.1777ZM286.143 68.1247C285.014 68.1247 283.971 67.8905 283.013 67.4221C282.055 66.9537 281.224 66.3255 280.522 65.5377C279.84 64.7286 279.308 63.8131 278.925 62.7911C278.542 61.769 278.35 60.7151 278.35 59.6292C278.35 58.4581 278.531 57.3616 278.893 56.3396C279.276 55.2963 279.809 54.3701 280.49 53.561C281.193 52.7519 282.012 52.1238 282.949 51.6766C283.886 51.2082 284.929 50.974 286.079 50.974C287.506 50.974 288.741 51.336 289.784 52.0599C290.848 52.7838 291.743 53.6781 292.467 54.7427V51.2614H294.415V67.965C294.415 69.498 294.042 70.7862 293.297 71.8295C292.573 72.8941 291.583 73.6926 290.327 74.2249C289.092 74.7572 287.74 75.0233 286.271 75.0233C284.376 75.0233 282.843 74.6826 281.672 74.0013C280.501 73.32 279.542 72.4044 278.797 71.2546L280.139 70.2007C280.799 71.244 281.672 72.0211 282.757 72.5322C283.865 73.0432 285.036 73.2987 286.271 73.2987C287.357 73.2987 288.347 73.0964 289.241 72.6918C290.156 72.3086 290.88 71.7231 291.413 70.9353C291.966 70.1475 292.243 69.1574 292.243 67.965V64.6754C291.604 65.7187 290.731 66.5597 289.624 67.1985C288.517 67.816 287.357 68.1247 286.143 68.1247ZM286.75 66.3042C287.41 66.3042 288.038 66.1871 288.634 65.9529C289.252 65.7187 289.816 65.41 290.327 65.0267C290.838 64.6222 291.264 64.175 291.604 63.6853C291.945 63.1956 292.158 62.6953 292.243 62.1842V57.0422C291.924 56.2331 291.466 55.5198 290.87 54.9024C290.274 54.2636 289.592 53.7739 288.826 53.4332C288.08 53.0713 287.303 52.8903 286.494 52.8903C285.557 52.8903 284.716 53.0926 283.971 53.4971C283.247 53.8804 282.63 54.402 282.119 55.0621C281.629 55.7008 281.246 56.4248 280.969 57.2339C280.692 58.0429 280.554 58.852 280.554 59.6611C280.554 60.5554 280.713 61.4071 281.033 62.2162C281.352 63.004 281.789 63.7173 282.342 64.356C282.917 64.9735 283.577 65.4526 284.322 65.7932C285.089 66.1339 285.898 66.3042 286.75 66.3042ZM306.397 68.2205C305.204 68.2205 304.097 67.997 303.075 67.5498C302.053 67.0814 301.17 66.4533 300.424 65.6655C299.679 64.8564 299.094 63.9302 298.668 62.8869C298.263 61.8436 298.061 60.7257 298.061 59.5334C298.061 57.9791 298.412 56.5525 299.115 55.2537C299.839 53.9549 300.829 52.9222 302.085 52.1557C303.341 51.3679 304.768 50.974 306.365 50.974C308.004 50.974 309.431 51.3679 310.645 52.1557C311.88 52.9435 312.848 53.9868 313.551 55.2856C314.254 56.5632 314.605 57.9684 314.605 59.5015C314.605 59.6718 314.605 59.8421 314.605 60.0125C314.605 60.1615 314.594 60.2786 314.573 60.3638H300.329C300.435 61.5561 300.765 62.6207 301.319 63.5576C301.894 64.4731 302.628 65.2077 303.522 65.7613C304.438 66.2936 305.428 66.5597 306.493 66.5597C307.579 66.5597 308.601 66.283 309.559 65.7294C310.538 65.1758 311.219 64.4518 311.603 63.5576L313.487 64.0686C313.146 64.8564 312.625 65.5697 311.922 66.2084C311.219 66.8472 310.389 67.3476 309.431 67.7095C308.494 68.0502 307.483 68.2205 306.397 68.2205ZM300.265 58.7988H312.561C312.476 57.5852 312.146 56.5206 311.571 55.605C311.017 54.6895 310.283 53.9762 309.367 53.4652C308.473 52.9329 307.483 52.6667 306.397 52.6667C305.311 52.6667 304.321 52.9329 303.427 53.4652C302.532 53.9762 301.798 54.7001 301.223 55.637C300.669 56.5525 300.35 57.6065 300.265 58.7988ZM331.945 67.9011H329.773V58.6072C329.773 56.6483 329.485 55.2218 328.91 54.3275C328.336 53.4119 327.431 52.9542 326.196 52.9542C325.344 52.9542 324.503 53.1671 323.673 53.5929C322.842 53.9975 322.108 54.5617 321.469 55.2856C320.851 55.9883 320.404 56.7974 320.127 57.7129V67.9011H317.956V51.2614H319.936V55.0301C320.383 54.221 320.968 53.5184 321.692 52.9222C322.416 52.3048 323.236 51.8257 324.152 51.485C325.067 51.1443 326.015 50.974 326.994 50.974C327.91 50.974 328.687 51.1443 329.326 51.485C329.964 51.8257 330.475 52.3154 330.859 52.9542C331.242 53.5716 331.519 54.3275 331.689 55.2218C331.859 56.0947 331.945 57.0742 331.945 58.1601V67.9011ZM344.404 67.1027C344.234 67.1666 343.968 67.2837 343.606 67.454C343.244 67.6243 342.807 67.7734 342.296 67.9011C341.785 68.0289 341.232 68.0928 340.636 68.0928C340.018 68.0928 339.433 67.9757 338.879 67.7415C338.347 67.5072 337.921 67.1559 337.602 66.6875C337.282 66.1978 337.122 65.6016 337.122 64.899V52.9861H334.823V51.2614H337.122V45.6404H339.294V51.2614H343.127V52.9861H339.294V64.2922C339.337 64.8883 339.55 65.3355 339.933 65.6335C340.338 65.9316 340.795 66.0807 341.306 66.0807C341.903 66.0807 342.445 65.9849 342.935 65.7932C343.425 65.5803 343.723 65.4313 343.829 65.3461L344.404 67.1027ZM347.118 67.9011V51.2614H349.29V67.9011H347.118ZM347.118 47.7802V44.5864H349.29V47.7802H347.118ZM368.062 67.9011H365.89V58.6072C365.89 56.6483 365.603 55.2218 365.028 54.3275C364.453 53.4119 363.548 52.9542 362.313 52.9542C361.461 52.9542 360.62 53.1671 359.79 53.5929C358.96 53.9975 358.225 54.5617 357.586 55.2856C356.969 55.9883 356.522 56.7974 356.245 57.7129V67.9011H354.073V51.2614H356.053V55.0301C356.5 54.221 357.086 53.5184 357.81 52.9222C358.534 52.3048 359.353 51.8257 360.269 51.485C361.185 51.1443 362.132 50.974 363.112 50.974C364.027 50.974 364.804 51.1443 365.443 51.485C366.082 51.8257 366.593 52.3154 366.976 52.9542C367.359 53.5716 367.636 54.3275 367.806 55.2218C367.977 56.0947 368.062 57.0742 368.062 58.1601V67.9011ZM371.352 63.1104C371.352 62.0671 371.65 61.1729 372.246 60.4277C372.842 59.6611 373.662 59.0756 374.705 58.6711C375.77 58.2452 376.994 58.0323 378.378 58.0323C379.187 58.0323 380.028 58.0962 380.901 58.2239C381.774 58.3517 382.551 58.5433 383.233 58.7988V57.3935C383.233 55.9883 382.817 54.8704 381.987 54.0401C381.157 53.2097 380.007 52.7945 378.538 52.7945C377.644 52.7945 376.76 52.9648 375.887 53.3055C375.035 53.6249 374.141 54.1039 373.204 54.7427L372.374 53.2097C373.46 52.4644 374.524 51.9109 375.568 51.5489C376.611 51.1656 377.675 50.974 378.761 50.974C380.805 50.974 382.424 51.5595 383.616 52.7306C384.808 53.9017 385.404 55.5198 385.404 57.5852V65.2822C385.404 65.5803 385.468 65.8039 385.596 65.9529C385.724 66.0807 385.926 66.1552 386.203 66.1765V67.9011C385.969 67.9224 385.766 67.9437 385.596 67.965C385.426 67.9863 385.298 67.9863 385.213 67.965C384.681 67.9437 384.276 67.7734 383.999 67.454C383.722 67.1346 383.573 66.794 383.552 66.432L383.52 65.2184C382.775 66.1765 381.806 66.9217 380.614 67.454C379.421 67.965 378.208 68.2205 376.973 68.2205C375.908 68.2205 374.939 67.997 374.066 67.5498C373.215 67.0814 372.544 66.4639 372.054 65.6974C371.586 64.9096 371.352 64.0473 371.352 63.1104ZM382.498 64.388C382.732 64.0899 382.913 63.8024 383.041 63.5256C383.169 63.2488 383.233 63.004 383.233 62.7911V60.3638C382.509 60.087 381.753 59.8741 380.965 59.725C380.199 59.576 379.421 59.5015 378.634 59.5015C377.079 59.5015 375.823 59.8102 374.865 60.4277C373.907 61.0451 373.428 61.8862 373.428 62.9508C373.428 63.5682 373.587 64.1538 373.907 64.7073C374.226 65.2396 374.695 65.6868 375.312 66.0487C375.93 66.3894 376.653 66.5597 377.484 66.5597C378.527 66.5597 379.496 66.3575 380.39 65.9529C381.306 65.5484 382.008 65.0267 382.498 64.388Z" fill="#FBFBFE"/>
</g>
<defs>
<clipPath id="clip0_1_113">
<rect width="592.265" height="80" fill="white" transform="translate(0.539902 0.901146)"/>
</clipPath>
<clipPath id="clip1_1_113">
<rect width="63.876" height="63.876" fill="white" transform="translate(0.539902 8.96315)"/>
</clipPath>
</defs>
</svg>
