<svg width="593" height="65" viewBox="0 0 593 65" fill="none" xmlns="http://www.w3.org/2000/svg">
<g clip-path="url(#clip0_1_116)">
<g clip-path="url(#clip1_1_116)">
<path d="M58.2468 8.47021H6.34767C3.04545 8.47021 0.359253 11.1564 0.359253 14.4586V50.3889C0.359253 53.6911 3.04545 56.3773 6.34767 56.3773H58.2468C61.549 56.3773 64.2353 53.6911 64.2353 50.3889V14.4586C64.2353 11.1564 61.549 8.47021 58.2468 8.47021V8.47021ZM58.2468 12.4624C58.518 12.4624 58.776 12.5187 59.0119 12.617L32.2973 35.7708L5.58245 12.617C5.81832 12.5188 6.07633 12.4624 6.34754 12.4624H58.2468ZM58.2468 52.3849H6.34767C5.24631 52.3849 4.35149 51.4902 4.35149 50.3887V16.8348L30.9892 39.9209C31.3655 40.2463 31.8314 40.4082 32.2973 40.4082C32.7631 40.4082 33.229 40.2465 33.6053 39.9209L60.243 16.8348V50.3889C60.2429 51.4902 59.3482 52.3849 58.2468 52.3849V52.3849Z" fill="#FBFBFE"/>
</g>
<path d="M95.4667 43.9055V21.2295H103.164C105.57 21.2295 107.571 21.7405 109.168 22.7625C110.786 23.7633 112 25.1259 112.809 26.8506C113.618 28.554 114.023 30.4489 114.023 32.5356C114.023 34.8351 113.576 36.8365 112.681 38.5399C111.808 40.2433 110.552 41.5634 108.913 42.5002C107.294 43.4371 105.378 43.9055 103.164 43.9055H95.4667ZM111.787 32.5356C111.787 30.7257 111.446 29.1182 110.765 27.7129C110.105 26.3076 109.136 25.2111 107.859 24.4233C106.581 23.6142 105.016 23.2097 103.164 23.2097H97.7024V41.9253H103.164C105.037 41.9253 106.613 41.5101 107.891 40.6797C109.168 39.8494 110.137 38.7315 110.797 37.3263C111.457 35.8997 111.787 34.3028 111.787 32.5356ZM116.384 39.1148C116.384 38.0715 116.682 37.1772 117.278 36.432C117.875 35.6655 118.694 35.08 119.738 34.6754C120.802 34.2496 122.026 34.0366 123.41 34.0366C124.22 34.0366 125.061 34.1005 125.934 34.2283C126.807 34.356 127.584 34.5477 128.265 34.8032V33.3979C128.265 31.9926 127.85 30.8748 127.019 30.0444C126.189 29.214 125.039 28.7988 123.57 28.7988C122.676 28.7988 121.792 28.9691 120.919 29.3098C120.068 29.6292 119.173 30.1083 118.237 30.747L117.406 29.214C118.492 28.4688 119.557 27.9152 120.6 27.5532C121.643 27.17 122.708 26.9783 123.794 26.9783C125.838 26.9783 127.456 27.5639 128.648 28.7349C129.841 29.906 130.437 31.5242 130.437 33.5895V41.2866C130.437 41.5847 130.501 41.8082 130.628 41.9573C130.756 42.085 130.958 42.1595 131.235 42.1808V43.9055C131.001 43.9268 130.799 43.9481 130.628 43.9694C130.458 43.9907 130.33 43.9907 130.245 43.9694C129.713 43.9481 129.308 43.7777 129.032 43.4584C128.755 43.139 128.606 42.7983 128.584 42.4363L128.552 41.2227C127.807 42.1808 126.838 42.9261 125.646 43.4584C124.454 43.9694 123.24 44.2249 122.005 44.2249C120.941 44.2249 119.972 44.0013 119.099 43.5542C118.247 43.0857 117.576 42.4683 117.087 41.7018C116.618 40.914 116.384 40.0516 116.384 39.1148ZM127.53 40.3923C127.765 40.0942 127.946 39.8068 128.073 39.53C128.201 39.2532 128.265 39.0083 128.265 38.7954V36.3681C127.541 36.0913 126.785 35.8784 125.997 35.7294C125.231 35.5803 124.454 35.5058 123.666 35.5058C122.112 35.5058 120.855 35.8145 119.897 36.432C118.939 37.0495 118.46 37.8905 118.46 38.9551C118.46 39.5726 118.62 40.1581 118.939 40.7117C119.259 41.244 119.727 41.6911 120.344 42.0531C120.962 42.3938 121.686 42.5641 122.516 42.5641C123.56 42.5641 124.528 42.3618 125.423 41.9573C126.338 41.5527 127.041 41.0311 127.53 40.3923ZM139.581 43.9055L132.842 27.2658H135.109L140.794 41.7337L146.511 27.2658H148.651L141.912 43.9055H139.581ZM151.66 43.9055V27.2658H153.831V43.9055H151.66ZM151.66 23.7845V20.5907H153.831V23.7845H151.66ZM157.497 35.6335C157.497 34.0579 157.816 32.6207 158.455 31.3219C159.115 30.0018 160.02 28.9479 161.17 28.1601C162.32 27.3722 163.629 26.9783 165.098 26.9783C166.482 26.9783 167.717 27.351 168.803 28.0962C169.91 28.8201 170.773 29.7037 171.39 30.747V20.5907H173.562V41.2866C173.562 41.5847 173.626 41.8082 173.753 41.9573C173.881 42.085 174.073 42.1595 174.328 42.1808V43.9055C173.903 43.9694 173.573 43.9907 173.338 43.9694C172.891 43.9481 172.497 43.7671 172.157 43.4264C171.816 43.0857 171.646 42.7131 171.646 42.3086V40.6797C170.986 41.7656 170.091 42.628 168.963 43.2667C167.834 43.9055 166.663 44.2249 165.45 44.2249C164.3 44.2249 163.235 43.9907 162.256 43.5222C161.298 43.0538 160.457 42.415 159.733 41.606C159.03 40.7969 158.476 39.8813 158.072 38.8593C157.689 37.816 157.497 36.7407 157.497 35.6335ZM171.39 38.1886V33.0466C171.113 32.2801 170.666 31.5881 170.049 30.9706C169.431 30.3318 168.729 29.8315 167.941 29.4695C167.174 29.0863 166.408 28.8946 165.641 28.8946C164.747 28.8946 163.938 29.0863 163.214 29.4695C162.49 29.8315 161.862 30.3318 161.33 30.9706C160.819 31.6094 160.425 32.3333 160.148 33.1424C159.871 33.9515 159.733 34.7819 159.733 35.6335C159.733 36.5278 159.882 37.3795 160.18 38.1886C160.499 38.9977 160.946 39.7216 161.521 40.3604C162.096 40.9778 162.756 41.4569 163.501 41.7976C164.247 42.1383 165.056 42.3086 165.929 42.3086C166.482 42.3086 167.057 42.2021 167.653 41.9892C168.25 41.7763 168.814 41.4888 169.346 41.1269C169.9 40.7436 170.357 40.2965 170.719 39.7855C171.081 39.2745 171.305 38.7422 171.39 38.1886ZM178.163 43.9055V40.7756H180.048V43.9055H178.163ZM187.238 43.9055L180.499 27.2658H182.767L188.452 41.7337L194.169 27.2658H196.308L189.57 43.9055H187.238ZM205.942 44.2249C204.749 44.2249 203.642 44.0013 202.62 43.5542C201.598 43.0857 200.715 42.4576 199.969 41.6698C199.224 40.8607 198.639 39.9345 198.213 38.8912C197.808 37.8479 197.606 36.7301 197.606 35.5377C197.606 33.9834 197.957 32.5569 198.66 31.258C199.384 29.9592 200.374 28.9266 201.63 28.1601C202.886 27.3722 204.313 26.9783 205.91 26.9783C207.549 26.9783 208.976 27.3722 210.19 28.1601C211.424 28.9479 212.393 29.9912 213.096 31.29C213.799 32.5675 214.15 33.9728 214.15 35.5058C214.15 35.6761 214.15 35.8465 214.15 36.0168C214.15 36.1658 214.139 36.283 214.118 36.3681H199.874C199.98 37.5605 200.31 38.6251 200.864 39.5619C201.439 40.4775 202.173 41.212 203.067 41.7656C203.983 42.2979 204.973 42.5641 206.038 42.5641C207.123 42.5641 208.145 42.2873 209.104 41.7337C210.083 41.1801 210.764 40.4562 211.148 39.5619L213.032 40.0729C212.691 40.8607 212.17 41.574 211.467 42.2128C210.764 42.8515 209.934 43.3519 208.976 43.7139C208.039 44.0545 207.028 44.2249 205.942 44.2249ZM199.81 34.8032H212.106C212.021 33.5895 211.691 32.5249 211.116 31.6094C210.562 30.6938 209.828 29.9805 208.912 29.4695C208.018 28.9372 207.028 28.6711 205.942 28.6711C204.856 28.6711 203.866 28.9372 202.972 29.4695C202.077 29.9805 201.343 30.7044 200.768 31.6413C200.214 32.5569 199.895 33.6108 199.81 34.8032ZM217.596 20.5907H219.768V40.1368C219.768 40.9672 219.917 41.5101 220.215 41.7656C220.513 42.0211 220.875 42.1489 221.301 42.1489C221.684 42.1489 222.068 42.1063 222.451 42.0211C222.834 41.936 223.164 41.8508 223.441 41.7656L223.824 43.5222C223.42 43.6926 222.919 43.831 222.323 43.9374C221.748 44.0439 221.248 44.0971 220.822 44.0971C219.843 44.0971 219.055 43.8097 218.459 43.2348C217.884 42.6599 217.596 41.8721 217.596 40.8714V20.5907ZM226.202 43.9055V27.2658H228.374V43.9055H226.202ZM226.202 23.7845V20.5907H228.374V23.7845H226.202ZM231.752 42.4363L242.899 28.8946H232.008V27.2658H245.358V28.7349L234.276 42.2766H245.326V43.9055H231.752V42.4363ZM247.472 42.4363L258.618 28.8946H247.727V27.2658H261.077V28.7349L249.995 42.2766H261.046V43.9055H247.472V42.4363ZM264.277 43.9055V40.7756H266.162V43.9055H264.277ZM281.219 41.9253V43.9055H270.392V41.9253H274.927V28.2559C274.757 28.5114 274.469 28.7882 274.065 29.0863C273.66 29.3843 273.192 29.6611 272.659 29.9166C272.148 30.1721 271.637 30.3851 271.126 30.5554C270.615 30.7257 270.147 30.8109 269.721 30.8109V28.703C270.211 28.703 270.743 28.5646 271.318 28.2878C271.893 28.011 272.447 27.6916 272.979 27.3297C273.511 26.9677 273.958 26.627 274.32 26.3076C274.682 25.9883 274.885 25.7753 274.927 25.6689H277.163V41.9253H281.219ZM283.063 33.4618C283.063 34.8883 283.403 36.1871 284.085 37.3582C284.787 38.508 285.735 39.4235 286.927 40.1049C288.12 40.7862 289.429 41.1269 290.856 41.1269C291.835 41.1269 292.74 40.9565 293.57 40.6159C294.401 40.2752 295.135 39.7961 295.774 39.1787C296.413 38.5399 296.881 37.816 297.179 37.0069C297.158 39.0935 296.881 40.8714 296.349 42.3405C295.838 43.8097 295.114 44.9381 294.177 45.726C293.262 46.5138 292.165 46.9077 290.888 46.9077C289.717 46.9077 288.641 46.5776 287.662 45.9176C286.682 45.2575 285.969 44.3952 285.522 43.3306L284.117 44.6081C284.734 45.9069 285.639 46.929 286.831 47.6742C288.045 48.4407 289.397 48.8239 290.888 48.8239C292.548 48.8239 294.007 48.3236 295.263 47.3229C296.519 46.3221 297.499 44.821 298.201 42.8196C298.904 40.7969 299.255 38.2418 299.255 35.1545C299.255 33.1743 298.904 31.4816 298.201 30.0763C297.52 28.6498 296.562 27.5639 295.327 26.8187C294.113 26.0521 292.708 25.6689 291.111 25.6689C289.621 25.6689 288.258 26.0202 287.023 26.7228C285.809 27.4255 284.841 28.3623 284.117 29.5334C283.414 30.7044 283.063 32.0139 283.063 33.4618ZM291.079 27.5852C292.144 27.5852 293.123 27.8513 294.018 28.3836C294.933 28.9159 295.657 29.6292 296.189 30.5235C296.722 31.4177 296.988 32.3972 296.988 33.4618C296.988 34.5264 296.722 35.5058 296.189 36.4001C295.657 37.2943 294.944 38.0076 294.049 38.5399C293.155 39.0722 292.165 39.3384 291.079 39.3384C290.015 39.3384 289.025 39.0722 288.109 38.5399C287.215 38.0076 286.491 37.2943 285.937 36.4001C285.405 35.5058 285.139 34.5264 285.139 33.4618C285.139 32.3759 285.405 31.3964 285.937 30.5235C286.491 29.6292 287.215 28.9159 288.109 28.3836C289.003 27.8513 289.993 27.5852 291.079 27.5852ZM318.416 34.5477C318.416 36.4213 318.065 38.0928 317.362 39.5619C316.681 41.0098 315.733 42.1489 314.52 42.9793C313.306 43.8097 311.933 44.2249 310.4 44.2249C308.867 44.2249 307.493 43.8097 306.28 42.9793C305.087 42.1489 304.14 41.0098 303.437 39.5619C302.735 38.0928 302.383 36.4213 302.383 34.5477C302.383 32.674 302.735 31.0132 303.437 29.5653C304.14 28.0962 305.087 26.9464 306.28 26.116C307.493 25.2643 308.867 24.8385 310.4 24.8385C311.933 24.8385 313.306 25.2643 314.52 26.116C315.733 26.9464 316.681 28.0962 317.362 29.5653C318.065 31.0132 318.416 32.674 318.416 34.5477ZM316.212 34.5477C316.212 33.0359 315.968 31.7052 315.478 30.5554C314.988 29.4056 314.307 28.5114 313.434 27.8726C312.561 27.2126 311.549 26.8825 310.4 26.8825C309.25 26.8825 308.239 27.2126 307.366 27.8726C306.493 28.5114 305.801 29.4056 305.29 30.5554C304.8 31.7052 304.555 33.0359 304.555 34.5477C304.555 36.0594 304.8 37.3901 305.29 38.5399C305.801 39.6897 306.493 40.5839 307.366 41.2227C308.239 41.8615 309.25 42.1808 310.4 42.1808C311.549 42.1808 312.561 41.8615 313.434 41.2227C314.307 40.5626 314.988 39.6684 315.478 38.5399C315.968 37.3901 316.212 36.0594 316.212 34.5477ZM321.332 33.4618C321.332 34.8883 321.673 36.1871 322.354 37.3582C323.057 38.508 324.004 39.4235 325.197 40.1049C326.389 40.7862 327.699 41.1269 329.125 41.1269C330.105 41.1269 331.009 40.9565 331.84 40.6159C332.67 40.2752 333.405 39.7961 334.044 39.1787C334.682 38.5399 335.151 37.816 335.449 37.0069C335.428 39.0935 335.151 40.8714 334.618 42.3405C334.107 43.8097 333.384 44.9381 332.447 45.726C331.531 46.5138 330.435 46.9077 329.157 46.9077C327.986 46.9077 326.911 46.5776 325.931 45.9176C324.952 45.2575 324.239 44.3952 323.791 43.3306L322.386 44.6081C323.004 45.9069 323.909 46.929 325.101 47.6742C326.315 48.4407 327.667 48.8239 329.157 48.8239C330.818 48.8239 332.276 48.3236 333.533 47.3229C334.789 46.3221 335.768 44.821 336.471 42.8196C337.173 40.7969 337.525 38.2418 337.525 35.1545C337.525 33.1743 337.173 31.4816 336.471 30.0763C335.79 28.6498 334.831 27.5639 333.596 26.8187C332.383 26.0521 330.978 25.6689 329.381 25.6689C327.89 25.6689 326.527 26.0202 325.293 26.7228C324.079 27.4255 323.11 28.3623 322.386 29.5334C321.684 30.7044 321.332 32.0139 321.332 33.4618ZM329.349 27.5852C330.413 27.5852 331.393 27.8513 332.287 28.3836C333.203 28.9159 333.926 29.6292 334.459 30.5235C334.991 31.4177 335.257 32.3972 335.257 33.4618C335.257 34.5264 334.991 35.5058 334.459 36.4001C333.926 37.2943 333.213 38.0076 332.319 38.5399C331.425 39.0722 330.435 39.3384 329.349 39.3384C328.284 39.3384 327.294 39.0722 326.378 38.5399C325.484 38.0076 324.76 37.2943 324.207 36.4001C323.674 35.5058 323.408 34.5264 323.408 33.4618C323.408 32.3759 323.674 31.3964 324.207 30.5235C324.76 29.6292 325.484 28.9159 326.378 28.3836C327.273 27.8513 328.263 27.5852 329.349 27.5852ZM352.214 24.6469C353.79 24.6469 355.27 24.945 356.654 25.5411C358.059 26.116 359.294 26.9464 360.359 28.0323C361.444 29.0969 362.296 30.3744 362.914 31.8649C363.531 33.3553 363.84 35.0054 363.84 36.8153C363.84 37.1772 363.808 37.6669 363.744 38.2844C363.701 38.9019 363.595 39.5619 363.425 40.2646C363.254 40.9672 362.999 41.6379 362.658 42.2766C362.339 42.8941 361.892 43.4051 361.317 43.8097C360.742 44.2142 360.028 44.4165 359.177 44.4165C358.474 44.4165 357.931 44.2781 357.548 44.0013C357.186 43.7245 356.93 43.3625 356.781 42.9154C356.654 42.4683 356.558 41.9892 356.494 41.4782C355.919 42.0957 355.153 42.628 354.194 43.0751C353.258 43.5222 352.225 43.7458 351.096 43.7458C349.585 43.7458 348.403 43.3412 347.551 42.5322C346.721 41.7231 346.306 40.701 346.306 39.4661C346.306 38.3802 346.604 37.5285 347.2 36.9111C347.796 36.2936 348.541 35.8571 349.436 35.6016C350.351 35.3248 351.277 35.1864 352.214 35.1864C353.151 35.1864 353.971 35.2822 354.674 35.4739C355.397 35.6442 355.93 35.7932 356.27 35.921C356.27 34.899 356.153 34.0047 355.919 33.2382C355.706 32.4717 355.312 31.8755 354.737 31.4497C354.163 31.0025 353.353 30.779 352.31 30.779C351.48 30.779 350.681 30.9174 349.915 31.1942C349.148 31.4497 348.456 31.8116 347.839 32.2801L347.264 31.0345C348.03 30.5235 348.85 30.1189 349.723 29.8208C350.596 29.5227 351.522 29.3737 352.502 29.3737C353.694 29.3737 354.631 29.5653 355.312 29.9486C356.015 30.3318 356.537 30.8535 356.877 31.5135C357.218 32.1523 357.441 32.8549 357.548 33.6215C357.654 34.388 357.708 35.1545 357.708 35.921V40.041C357.708 40.6585 357.74 41.212 357.803 41.7018C357.889 42.1915 358.048 42.5747 358.283 42.8515C358.517 43.107 358.879 43.2348 359.368 43.2348C360.028 43.2348 360.571 43.0112 360.997 42.5641C361.444 42.117 361.785 41.5527 362.019 40.8714C362.275 40.19 362.445 39.4768 362.53 38.7315C362.637 37.9863 362.69 37.3263 362.69 36.7514C362.69 35.1971 362.424 33.7598 361.892 32.4397C361.381 31.0983 360.646 29.9273 359.688 28.9266C358.73 27.9258 357.612 27.1487 356.334 26.5951C355.057 26.0202 353.673 25.7328 352.182 25.7328C350.713 25.7328 349.34 25.9989 348.062 26.5312C346.785 27.0635 345.656 27.8194 344.677 28.7988C343.698 29.757 342.931 30.9067 342.377 32.2481C341.824 33.5682 341.547 35.0054 341.547 36.5597C341.547 38.0715 341.803 39.4874 342.314 40.8075C342.846 42.1276 343.58 43.288 344.517 44.2887C345.475 45.2895 346.593 46.0666 347.871 46.6202C349.148 47.1951 350.532 47.4825 352.023 47.4825C352.917 47.4825 353.758 47.3654 354.546 47.1312C355.334 46.9183 356.121 46.6309 356.909 46.2689L357.324 47.2909C356.473 47.7168 355.589 48.0361 354.674 48.2491C353.779 48.462 352.885 48.5684 351.991 48.5684C350.394 48.5684 348.893 48.2703 347.487 47.6742C346.104 47.078 344.879 46.237 343.815 45.1511C342.75 44.0865 341.909 42.8196 341.292 41.3504C340.695 39.8813 340.397 38.2844 340.397 36.5597C340.397 34.7499 340.717 33.1211 341.355 31.6732C342.015 30.2041 342.899 28.9479 344.006 27.9045C345.113 26.8612 346.37 26.0628 347.775 25.5092C349.201 24.9343 350.681 24.6469 352.214 24.6469ZM354.163 41.6698C354.759 41.393 355.206 41.0843 355.504 40.7436C355.802 40.3817 355.994 39.9984 356.079 39.5939C356.185 39.1893 356.238 38.7954 356.238 38.4122V37.1346C355.962 37.1133 355.461 36.9962 354.737 36.7833C354.035 36.5491 353.172 36.432 352.15 36.432C351.405 36.432 350.692 36.5172 350.011 36.6875C349.351 36.8578 348.808 37.1666 348.382 37.6137C347.977 38.0395 347.775 38.6357 347.775 39.4022C347.775 39.9984 347.924 40.5201 348.222 40.9672C348.52 41.4143 348.925 41.7656 349.436 42.0211C349.947 42.2554 350.532 42.3725 351.192 42.3725C351.703 42.3725 352.225 42.3086 352.757 42.1808C353.29 42.0318 353.758 41.8615 354.163 41.6698ZM374.696 44.1291C373.567 44.1291 372.524 43.8948 371.566 43.4264C370.608 42.958 369.777 42.3299 369.075 41.5421C368.393 40.733 367.861 39.8174 367.478 38.7954C367.095 37.7734 366.903 36.7194 366.903 35.6335C366.903 34.4625 367.084 33.3659 367.446 32.3439C367.829 31.3006 368.362 30.3744 369.043 29.5653C369.746 28.7562 370.565 28.1281 371.502 27.681C372.439 27.2126 373.482 26.9783 374.632 26.9783C376.059 26.9783 377.294 27.3403 378.337 28.0642C379.401 28.7882 380.296 29.6824 381.02 30.747V27.2658H382.968V43.9694C382.968 45.5024 382.595 46.7906 381.85 47.8339C381.126 48.8985 380.136 49.6969 378.88 50.2292C377.645 50.7615 376.293 51.0277 374.824 51.0277C372.929 51.0277 371.396 50.687 370.225 50.0056C369.054 49.3243 368.095 48.4087 367.35 47.259L368.692 46.205C369.352 47.2483 370.225 48.0255 371.31 48.5365C372.418 49.0475 373.589 49.303 374.824 49.303C375.91 49.303 376.9 49.1007 377.794 48.6962C378.709 48.3129 379.433 47.7274 379.966 46.9396C380.519 46.1518 380.796 45.1617 380.796 43.9694V40.6797C380.157 41.7231 379.284 42.5641 378.177 43.2029C377.07 43.8203 375.91 44.1291 374.696 44.1291ZM375.303 42.3086C375.963 42.3086 376.591 42.1915 377.187 41.9573C377.805 41.7231 378.369 41.4143 378.88 41.0311C379.391 40.6265 379.817 40.1794 380.157 39.6897C380.498 39.2 380.711 38.6996 380.796 38.1886V33.0466C380.477 32.2375 380.019 31.5242 379.423 30.9067C378.827 30.268 378.145 29.7782 377.379 29.4376C376.633 29.0756 375.856 28.8946 375.047 28.8946C374.11 28.8946 373.269 29.0969 372.524 29.5014C371.8 29.8847 371.183 30.4064 370.672 31.0664C370.182 31.7052 369.799 32.4291 369.522 33.2382C369.245 34.0473 369.107 34.8564 369.107 35.6655C369.107 36.5597 369.266 37.4114 369.586 38.2205C369.905 39.0083 370.342 39.7216 370.895 40.3604C371.47 40.9778 372.13 41.4569 372.875 41.7976C373.642 42.1383 374.451 42.3086 375.303 42.3086ZM412.516 43.9055H410.344V34.6115C410.344 32.674 410.035 31.2474 409.418 30.3318C408.8 29.4163 407.885 28.9585 406.671 28.9585C405.415 28.9585 404.286 29.4056 403.286 30.2999C402.306 31.1942 401.614 32.3439 401.21 33.7492V43.9055H399.038V34.6115C399.038 32.6527 398.74 31.2261 398.144 30.3318C397.547 29.4163 396.632 28.9585 395.397 28.9585C394.162 28.9585 393.044 29.395 392.043 30.268C391.043 31.1409 390.34 32.2907 389.936 33.7173V43.9055H387.764V27.2658H389.744V31.0345C390.447 29.7357 391.341 28.7349 392.427 28.0323C393.534 27.3297 394.758 26.9783 396.1 26.9783C397.484 26.9783 398.601 27.3722 399.453 28.1601C400.305 28.9479 400.826 29.9805 401.018 31.258C401.785 29.8528 402.7 28.7882 403.765 28.0642C404.851 27.3403 406.075 26.9783 407.438 26.9783C408.374 26.9783 409.162 27.1487 409.801 27.4894C410.461 27.83 410.983 28.3197 411.366 28.9585C411.771 29.576 412.058 30.3318 412.228 31.2261C412.42 32.0991 412.516 33.0785 412.516 34.1644V43.9055ZM415.772 39.1148C415.772 38.0715 416.07 37.1772 416.666 36.432C417.262 35.6655 418.082 35.08 419.125 34.6754C420.19 34.2496 421.414 34.0366 422.798 34.0366C423.607 34.0366 424.448 34.1005 425.321 34.2283C426.194 34.356 426.971 34.5477 427.653 34.8032V33.3979C427.653 31.9926 427.237 30.8748 426.407 30.0444C425.577 29.214 424.427 28.7988 422.958 28.7988C422.063 28.7988 421.18 28.9691 420.307 29.3098C419.455 29.6292 418.561 30.1083 417.624 30.747L416.794 29.214C417.88 28.4688 418.944 27.9152 419.987 27.5532C421.031 27.17 422.095 26.9783 423.181 26.9783C425.225 26.9783 426.844 27.5639 428.036 28.7349C429.228 29.906 429.824 31.5242 429.824 33.5895V41.2866C429.824 41.5847 429.888 41.8082 430.016 41.9573C430.144 42.085 430.346 42.1595 430.623 42.1808V43.9055C430.389 43.9268 430.186 43.9481 430.016 43.9694C429.846 43.9907 429.718 43.9907 429.633 43.9694C429.1 43.9481 428.696 43.7777 428.419 43.4584C428.142 43.139 427.993 42.7983 427.972 42.4363L427.94 41.2227C427.195 42.1808 426.226 42.9261 425.034 43.4584C423.841 43.9694 422.628 44.2249 421.393 44.2249C420.328 44.2249 419.359 44.0013 418.486 43.5542C417.635 43.0857 416.964 42.4683 416.474 41.7018C416.006 40.914 415.772 40.0516 415.772 39.1148ZM426.918 40.3923C427.152 40.0942 427.333 39.8068 427.461 39.53C427.589 39.2532 427.653 39.0083 427.653 38.7954V36.3681C426.929 36.0913 426.173 35.8784 425.385 35.7294C424.618 35.5803 423.841 35.5058 423.054 35.5058C421.499 35.5058 420.243 35.8145 419.285 36.432C418.327 37.0495 417.848 37.8905 417.848 38.9551C417.848 39.5726 418.007 40.1581 418.327 40.7117C418.646 41.244 419.115 41.6911 419.732 42.0531C420.349 42.3938 421.073 42.5641 421.904 42.5641C422.947 42.5641 423.916 42.3618 424.81 41.9573C425.726 41.5527 426.428 41.0311 426.918 40.3923ZM434.517 43.9055V27.2658H436.689V43.9055H434.517ZM434.517 23.7845V20.5907H436.689V23.7845H434.517ZM441.568 20.5907H443.74V40.1368C443.74 40.9672 443.889 41.5101 444.187 41.7656C444.485 42.0211 444.847 42.1489 445.273 42.1489C445.656 42.1489 446.039 42.1063 446.422 42.0211C446.806 41.936 447.136 41.8508 447.413 41.7656L447.796 43.5222C447.391 43.6926 446.891 43.831 446.295 43.9374C445.72 44.0439 445.219 44.0971 444.794 44.0971C443.814 44.0971 443.026 43.8097 442.43 43.2348C441.855 42.6599 441.568 41.8721 441.568 40.8714V20.5907ZM449.855 43.9055V40.7756H451.739V43.9055H449.855ZM462.819 44.2249C461.605 44.2249 460.487 44.0013 459.465 43.5542C458.465 43.0857 457.581 42.447 456.814 41.6379C456.069 40.8288 455.484 39.9026 455.058 38.8593C454.653 37.816 454.451 36.7088 454.451 35.5377C454.451 33.9621 454.802 32.5249 455.505 31.2261C456.208 29.9273 457.187 28.8946 458.443 28.1281C459.7 27.3616 461.147 26.9783 462.787 26.9783C464.341 26.9783 465.715 27.3403 466.907 28.0642C468.099 28.7669 468.983 29.725 469.558 30.9387L467.45 31.6094C466.981 30.7577 466.321 30.0976 465.47 29.6292C464.639 29.1395 463.713 28.8946 462.691 28.8946C461.584 28.8946 460.573 29.1821 459.657 29.757C458.741 30.3318 458.007 31.1196 457.453 32.1204C456.921 33.1211 456.655 34.2602 456.655 35.5377C456.655 36.794 456.932 37.9331 457.485 38.9551C458.039 39.9771 458.773 40.7969 459.689 41.4143C460.604 42.0105 461.616 42.3086 462.723 42.3086C463.447 42.3086 464.139 42.1808 464.799 41.9253C465.48 41.6698 466.066 41.3292 466.556 40.9033C467.067 40.4562 467.407 39.9771 467.578 39.4661L469.717 40.1049C469.419 40.8927 468.919 41.606 468.216 42.2447C467.535 42.8622 466.726 43.3519 465.789 43.7139C464.874 44.0545 463.883 44.2249 462.819 44.2249ZM480.064 44.2249C478.871 44.2249 477.764 44.0013 476.742 43.5542C475.741 43.0857 474.868 42.4576 474.123 41.6698C473.399 40.8607 472.835 39.9452 472.43 38.9232C472.026 37.8799 471.824 36.7833 471.824 35.6335C471.824 34.4412 472.026 33.334 472.43 32.312C472.835 31.2687 473.41 30.3531 474.155 29.5653C474.9 28.7562 475.773 28.1281 476.774 27.681C477.796 27.2126 478.903 26.9783 480.096 26.9783C481.288 26.9783 482.384 27.2126 483.385 27.681C484.386 28.1281 485.259 28.7562 486.004 29.5653C486.749 30.3531 487.324 31.2687 487.729 32.312C488.133 33.334 488.336 34.4412 488.336 35.6335C488.336 36.7833 488.133 37.8799 487.729 38.9232C487.324 39.9452 486.749 40.8607 486.004 41.6698C485.28 42.4576 484.407 43.0857 483.385 43.5542C482.384 44.0013 481.277 44.2249 480.064 44.2249ZM474.027 35.6655C474.027 36.9004 474.293 38.0289 474.826 39.0509C475.379 40.0516 476.114 40.8501 477.03 41.4463C477.945 42.0211 478.956 42.3086 480.064 42.3086C481.171 42.3086 482.182 42.0105 483.098 41.4143C484.013 40.8181 484.748 40.0091 485.301 38.987C485.855 37.9437 486.132 36.8153 486.132 35.6016C486.132 34.3667 485.855 33.2382 485.301 32.2162C484.748 31.1942 484.013 30.3851 483.098 29.7889C482.182 29.1927 481.171 28.8946 480.064 28.8946C478.956 28.8946 477.945 29.2034 477.03 29.8208C476.135 30.4383 475.411 31.258 474.858 32.2801C474.304 33.2808 474.027 34.4093 474.027 35.6655ZM516.72 43.9055H514.548V34.6115C514.548 32.674 514.239 31.2474 513.622 30.3318C513.004 29.4163 512.089 28.9585 510.875 28.9585C509.619 28.9585 508.49 29.4056 507.49 30.2999C506.51 31.1942 505.818 32.3439 505.414 33.7492V43.9055H503.242V34.6115C503.242 32.6527 502.944 31.2261 502.348 30.3318C501.751 29.4163 500.836 28.9585 499.601 28.9585C498.366 28.9585 497.248 29.395 496.247 30.268C495.247 31.1409 494.544 32.2907 494.14 33.7173V43.9055H491.968V27.2658H493.948V31.0345C494.651 29.7357 495.545 28.7349 496.631 28.0323C497.738 27.3297 498.962 26.9783 500.304 26.9783C501.688 26.9783 502.805 27.3722 503.657 28.1601C504.509 28.9479 505.03 29.9805 505.222 31.258C505.989 29.8528 506.904 28.7882 507.969 28.0642C509.055 27.3403 510.279 26.9783 511.642 26.9783C512.578 26.9783 513.366 27.1487 514.005 27.4894C514.665 27.83 515.187 28.3197 515.57 28.9585C515.974 29.576 516.262 30.3318 516.432 31.2261C516.624 32.0991 516.72 33.0785 516.72 34.1644V43.9055Z" fill="#FBFBFE"/>
</g>
<defs>
<clipPath id="clip0_1_116">
<rect width="592.627" height="63.876" fill="white" transform="translate(0.358902 0.485153)"/>
</clipPath>
<clipPath id="clip1_1_116">
<rect width="63.876" height="63.876" fill="white" transform="translate(0.358902 0.485153)"/>
</clipPath>
</defs>
</svg>
