<svg width="372" height="116" viewBox="0 0 372 116" fill="none" xmlns="http://www.w3.org/2000/svg">
<path d="M5.4635 68V22.0093H24.7682V27.9143H13.8667V41.1437H22.4403V46.9919H13.8667V62.2086H24.8818V68H5.4635ZM29.7497 68V22.0093H40.5944C44.3418 22.0093 47.2564 22.5203 49.3383 23.5423C51.4581 24.5643 52.9532 26.1352 53.8238 28.2549C54.7323 30.3747 55.1865 33.0622 55.1865 36.3175V53.124C55.1865 56.455 54.7323 59.2372 53.8238 61.4705C52.9532 63.6659 51.477 65.3125 49.3951 66.4102C47.3511 67.4701 44.5311 68 40.9351 68H29.7497ZM38.1529 62.1518H40.708C42.6384 62.1518 44.0201 61.8111 44.8528 61.1298C45.6856 60.4484 46.1966 59.4643 46.3858 58.1773C46.5751 56.8525 46.6697 55.2437 46.6697 53.3511V35.7497C46.6697 33.8949 46.5372 32.3998 46.2723 31.2642C46.0073 30.1286 45.4585 29.2959 44.6257 28.7659C43.7929 28.236 42.4492 27.971 40.5944 27.971H38.1529V62.1518ZM73.9599 68.6246C70.5531 68.6246 67.9035 68 66.0109 66.7509C64.1182 65.5017 62.8123 63.7227 62.0931 61.4137C61.3739 59.1047 61.0143 56.3414 61.0143 53.124V22.0093H69.1905V54.0892C69.1905 55.5276 69.2851 56.8903 69.4744 58.1773C69.6636 59.4264 70.0989 60.4484 70.7803 61.2433C71.4995 62.0004 72.5593 62.3789 73.9599 62.3789C75.4361 62.3789 76.496 62.0004 77.1395 61.2433C77.8208 60.4484 78.2561 59.4264 78.4454 58.1773C78.6725 56.8903 78.7861 55.5276 78.7861 54.0892V22.0093H86.9054V53.124C86.9054 56.3414 86.5458 59.1047 85.8266 61.4137C85.1074 63.7227 83.8015 65.5017 81.9089 66.7509C80.0541 68 77.4044 68.6246 73.9599 68.6246ZM105.893 68.6246C102.524 68.6246 99.874 67.9621 97.9435 66.6373C96.0509 65.3125 94.7261 63.5145 93.969 61.2433C93.212 58.9343 92.8334 56.2847 92.8334 53.2943V36.8853C92.8334 33.7435 93.212 31.0182 93.969 28.7092C94.7261 26.4002 96.0509 24.6211 97.9435 23.372C99.874 22.1228 102.524 21.4983 105.893 21.4983C109.072 21.4983 111.551 22.0471 113.331 23.1449C115.147 24.2047 116.434 25.7377 117.191 27.7439C117.949 29.7501 118.327 32.078 118.327 34.7277V38.5886H110.264V34.6141C110.264 33.3272 110.189 32.1537 110.037 31.0939C109.924 30.034 109.564 29.2012 108.959 28.5956C108.391 27.9521 107.388 27.6304 105.949 27.6304C104.511 27.6304 103.451 27.971 102.77 28.6524C102.126 29.2959 101.71 30.1854 101.521 31.321C101.331 32.4187 101.237 33.6678 101.237 35.0684V55.0545C101.237 56.72 101.369 58.1016 101.634 59.1993C101.899 60.2592 102.372 61.073 103.054 61.6408C103.773 62.1707 104.738 62.4357 105.949 62.4357C107.35 62.4357 108.334 62.1139 108.902 61.4705C109.507 60.7891 109.886 59.8996 110.037 58.8019C110.189 57.7041 110.264 56.4739 110.264 55.1112V50.9664H118.327V54.657C118.327 57.3824 117.967 59.8049 117.248 61.9247C116.529 64.0066 115.261 65.6531 113.444 66.8644C111.665 68.0379 109.148 68.6246 105.893 68.6246ZM121.85 68L131.048 22.0093H140.019L149.217 68H141.438L139.621 57.3824H131.615L129.742 68H121.85ZM132.467 52.0452H138.713L135.59 32.7404L132.467 52.0452ZM165.721 68.6246C162.352 68.6246 159.702 67.9621 157.772 66.6373C155.879 65.3125 154.554 63.5145 153.797 61.2433C153.04 58.9343 152.662 56.2847 152.662 53.2943V36.8853C152.662 33.7435 153.04 31.0182 153.797 28.7092C154.554 26.4002 155.879 24.6211 157.772 23.372C159.702 22.1228 162.352 21.4983 165.721 21.4983C168.9 21.4983 171.38 22.0471 173.159 23.1449C174.976 24.2047 176.263 25.7377 177.02 27.7439C177.777 29.7501 178.155 32.078 178.155 34.7277V38.5886H170.093V34.6141C170.093 33.3272 170.017 32.1537 169.866 31.0939C169.752 30.034 169.393 29.2012 168.787 28.5956C168.219 27.9521 167.216 27.6304 165.778 27.6304C164.339 27.6304 163.279 27.971 162.598 28.6524C161.955 29.2959 161.538 30.1854 161.349 31.321C161.16 32.4187 161.065 33.6678 161.065 35.0684V55.0545C161.065 56.72 161.197 58.1016 161.462 59.1993C161.727 60.2592 162.201 61.073 162.882 61.6408C163.601 62.1707 164.566 62.4357 165.778 62.4357C167.178 62.4357 168.162 62.1139 168.73 61.4705C169.336 60.7891 169.714 59.8996 169.866 58.8019C170.017 57.7041 170.093 56.4739 170.093 55.1112V50.9664H178.155V54.657C178.155 57.3824 177.796 59.8049 177.077 61.9247C176.357 64.0066 175.089 65.6531 173.272 66.8644C171.493 68.0379 168.976 68.6246 165.721 68.6246ZM184.233 68V22.0093H192.523V68H184.233ZM212.133 68.6246C208.878 68.6246 206.285 68.0189 204.355 66.8076C202.424 65.5964 201.043 63.8552 200.21 61.584C199.377 59.3129 198.961 56.6253 198.961 53.5214V36.3175C198.961 33.2136 199.377 30.5639 200.21 28.3685C201.043 26.1352 202.424 24.4318 204.355 23.2584C206.285 22.085 208.878 21.4983 212.133 21.4983C215.464 21.4983 218.076 22.085 219.969 23.2584C221.899 24.4318 223.281 26.1352 224.114 28.3685C224.984 30.5639 225.42 33.2136 225.42 36.3175V53.5782C225.42 56.6443 224.984 59.3129 224.114 61.584C223.281 63.8173 221.899 65.5585 219.969 66.8076C218.076 68.0189 215.464 68.6246 212.133 68.6246ZM212.133 62.4357C213.534 62.4357 214.556 62.1329 215.199 61.5272C215.881 60.9216 216.335 60.0888 216.562 59.029C216.789 57.9691 216.903 56.8146 216.903 55.5655V34.387C216.903 33.1 216.789 31.9455 216.562 30.9235C216.335 29.9015 215.881 29.1066 215.199 28.5388C214.556 27.9332 213.534 27.6304 212.133 27.6304C210.809 27.6304 209.805 27.9332 209.124 28.5388C208.443 29.1066 207.989 29.9015 207.761 30.9235C207.534 31.9455 207.421 33.1 207.421 34.387V55.5655C207.421 56.8146 207.515 57.9691 207.705 59.029C207.932 60.0888 208.386 60.9216 209.067 61.5272C209.749 62.1329 210.771 62.4357 212.133 62.4357ZM209.862 18.8297L213.326 7.47393H221.104L214.348 18.8297H209.862ZM231.636 68V22.0093H237.484L248.669 48.241V22.0093H255.596V68H250.032L238.79 40.5191V68H231.636Z" fill="#889397"/>
<path d="M2 113.557H273.473" stroke="#889397" stroke-width="3.54867" stroke-linecap="round"/>
</svg>
