<svg width="593" height="65" viewBox="0 0 593 65" fill="none" xmlns="http://www.w3.org/2000/svg">
<g clip-path="url(#clip0_1_139)">
<path d="M48.1543 0.84729H17.2704C8.15986 0.84729 0.774323 8.23284 0.774323 17.3434V48.2272C0.774323 57.3377 8.15987 64.7233 17.2704 64.7233H48.1543C57.2648 64.7233 64.6503 57.3377 64.6503 48.2272V17.3434C64.6503 8.23283 57.2648 0.84729 48.1543 0.84729Z" fill="#1C3441"/>
<path fill-rule="evenodd" clip-rule="evenodd" d="M34.8926 64.7233H4.29998C2.35226 64.7233 0.774323 63.1444 0.774323 61.1976V4.37295C0.774323 2.42523 2.35226 0.84729 4.29998 0.84729H61.1252C63.0719 0.84729 64.6503 2.42523 64.6503 4.37295V61.1976C64.6503 63.1449 63.0719 64.7233 61.1252 64.7233H44.8478V39.9868H53.1506L54.3937 30.3465H44.8478V24.192C44.8478 21.4009 45.6228 19.4991 49.625 19.4991L54.7296 19.4971V10.8748C53.8468 10.7576 50.8167 10.4951 47.291 10.4951C39.9308 10.4951 34.8921 14.9878 34.8921 23.2378V30.347H26.5682V39.9873H34.8926V64.7233Z" fill="#FEFEFE"/>
<path d="M106.358 24.0089C107.933 24.0089 109.413 24.307 110.797 24.9032C112.202 25.478 113.437 26.3084 114.502 27.3943C115.588 28.4589 116.44 29.7365 117.057 31.2269C117.674 32.7173 117.983 34.3675 117.983 36.1773C117.983 36.5392 117.951 37.029 117.887 37.6464C117.845 38.2639 117.738 38.9239 117.568 39.6266C117.398 40.3292 117.142 40.9999 116.802 41.6387C116.482 42.2561 116.035 42.7672 115.46 43.1717C114.885 43.5763 114.172 43.7785 113.32 43.7785C112.618 43.7785 112.075 43.6401 111.691 43.3633C111.329 43.0865 111.074 42.7246 110.925 42.2774C110.797 41.8303 110.701 41.3512 110.637 40.8402C110.063 41.4577 109.296 41.99 108.338 42.4371C107.401 42.8843 106.368 43.1078 105.24 43.1078C103.728 43.1078 102.547 42.7033 101.695 41.8942C100.864 41.0851 100.449 40.0631 100.449 38.8281C100.449 37.7422 100.747 36.8906 101.344 36.2731C101.94 35.6556 102.685 35.2191 103.579 34.9636C104.495 34.6868 105.421 34.5484 106.358 34.5484C107.295 34.5484 108.114 34.6443 108.817 34.8359C109.541 35.0062 110.073 35.1553 110.414 35.283C110.414 34.261 110.297 33.3667 110.063 32.6002C109.85 31.8337 109.456 31.2375 108.881 30.8117C108.306 30.3646 107.497 30.141 106.454 30.141C105.623 30.141 104.825 30.2794 104.058 30.5562C103.292 30.8117 102.6 31.1737 101.982 31.6421L101.407 30.3965C102.174 29.8855 102.994 29.4809 103.867 29.1829C104.74 28.8848 105.666 28.7357 106.645 28.7357C107.838 28.7357 108.774 28.9274 109.456 29.3106C110.158 29.6939 110.68 30.2155 111.021 30.8756C111.361 31.5143 111.585 32.217 111.691 32.9835C111.798 33.75 111.851 34.5165 111.851 35.283V39.403C111.851 40.0205 111.883 40.5741 111.947 41.0638C112.032 41.5535 112.192 41.9368 112.426 42.2136C112.66 42.4691 113.022 42.5968 113.512 42.5968C114.172 42.5968 114.715 42.3733 115.141 41.9261C115.588 41.479 115.929 40.9148 116.163 40.2334C116.418 39.5521 116.589 38.8388 116.674 38.0936C116.78 37.3483 116.833 36.6883 116.833 36.1134C116.833 34.5591 116.567 33.1219 116.035 31.8018C115.524 30.4604 114.789 29.2893 113.831 28.2886C112.873 27.2879 111.755 26.5107 110.478 25.9571C109.2 25.3822 107.816 25.0948 106.326 25.0948C104.857 25.0948 103.483 25.3609 102.206 25.8932C100.928 26.4255 99.7999 27.1814 98.8204 28.1608C97.841 29.119 97.0745 30.2688 96.5209 31.6101C95.9673 32.9303 95.6905 34.3675 95.6905 35.9218C95.6905 37.4335 95.946 38.8494 96.457 40.1695C96.9893 41.4896 97.7239 42.65 98.6607 43.6508C99.6189 44.6515 100.737 45.4287 102.014 45.9822C103.292 46.5571 104.676 46.8446 106.166 46.8446C107.06 46.8446 107.901 46.7275 108.689 46.4933C109.477 46.2803 110.265 45.9929 111.053 45.6309L111.468 46.6529C110.616 47.0788 109.733 47.3982 108.817 47.6111C107.923 47.824 107.028 47.9305 106.134 47.9305C104.537 47.9305 103.036 47.6324 101.631 47.0362C100.247 46.44 99.0227 45.599 97.9581 44.5131C96.8935 43.4485 96.0525 42.1816 95.435 40.7125C94.8388 39.2433 94.5407 37.6464 94.5407 35.9218C94.5407 34.112 94.8601 32.4831 95.4989 31.0353C96.1589 29.5661 97.0425 28.3099 98.1497 27.2666C99.2569 26.2233 100.513 25.4248 101.918 24.8712C103.345 24.2963 104.825 24.0089 106.358 24.0089ZM108.306 41.0319C108.902 40.7551 109.349 40.4463 109.647 40.1057C109.945 39.7437 110.137 39.3604 110.222 38.9559C110.329 38.5513 110.382 38.1574 110.382 37.7742V36.4967C110.105 36.4754 109.605 36.3583 108.881 36.1453C108.178 35.9111 107.316 35.794 106.294 35.794C105.549 35.794 104.835 35.8792 104.154 36.0495C103.494 36.2199 102.951 36.5286 102.525 36.9757C102.121 37.4016 101.918 37.9977 101.918 38.7643C101.918 39.3604 102.067 39.8821 102.366 40.3292C102.664 40.7764 103.068 41.1277 103.579 41.3832C104.09 41.6174 104.676 41.7345 105.336 41.7345C105.847 41.7345 106.368 41.6706 106.901 41.5429C107.433 41.3938 107.901 41.2235 108.306 41.0319ZM122.611 43.2675V20.5915H130.309C132.715 20.5915 134.716 21.1025 136.313 22.1246C137.931 23.1253 139.145 24.488 139.954 26.2126C140.763 27.916 141.167 29.811 141.167 31.8976C141.167 34.1971 140.72 36.1986 139.826 37.9019C138.953 39.6053 137.697 40.9254 136.057 41.8622C134.439 42.7991 132.523 43.2675 130.309 43.2675H122.611ZM138.932 31.8976C138.932 30.0878 138.591 28.4802 137.91 27.075C137.25 25.6697 136.281 24.5731 135.003 23.7853C133.726 22.9762 132.161 22.5717 130.309 22.5717H124.847V41.2874H130.309C132.182 41.2874 133.758 40.8722 135.035 40.0418C136.313 39.2114 137.282 38.0936 137.942 36.6883C138.602 35.2617 138.932 33.6648 138.932 31.8976ZM143.529 38.4768C143.529 37.4335 143.827 36.5392 144.423 35.794C145.019 35.0275 145.839 34.442 146.882 34.0374C147.947 33.6116 149.171 33.3987 150.555 33.3987C151.364 33.3987 152.205 33.4626 153.078 33.5903C153.951 33.7181 154.728 33.9097 155.41 34.1652V32.7599C155.41 31.3546 154.995 30.2368 154.164 29.4064C153.334 28.576 152.184 28.1608 150.715 28.1608C149.821 28.1608 148.937 28.3312 148.064 28.6719C147.212 28.9912 146.318 29.4703 145.381 30.1091L144.551 28.576C145.637 27.8308 146.701 27.2772 147.745 26.9153C148.788 26.532 149.853 26.3404 150.938 26.3404C152.983 26.3404 154.601 26.9259 155.793 28.097C156.985 29.268 157.582 30.8862 157.582 32.9515V40.6486C157.582 40.9467 157.645 41.1703 157.773 41.3193C157.901 41.4471 158.103 41.5216 158.38 41.5429V43.2675C158.146 43.2888 157.944 43.3101 157.773 43.3314C157.603 43.3527 157.475 43.3527 157.39 43.3314C156.858 43.3101 156.453 43.1398 156.176 42.8204C155.9 42.501 155.75 42.1603 155.729 41.7984L155.697 40.5847C154.952 41.5429 153.983 42.2881 152.791 42.8204C151.599 43.3314 150.385 43.5869 149.15 43.5869C148.085 43.5869 147.117 43.3633 146.244 42.9162C145.392 42.4478 144.721 41.8303 144.232 41.0638C143.763 40.276 143.529 39.4137 143.529 38.4768ZM154.675 39.7543C154.909 39.4562 155.09 39.1688 155.218 38.892C155.346 38.6152 155.41 38.3704 155.41 38.1574V35.7301C154.686 35.4534 153.93 35.2404 153.142 35.0914C152.376 34.9423 151.599 34.8678 150.811 34.8678C149.256 34.8678 148 35.1766 147.042 35.794C146.084 36.4115 145.605 37.2525 145.605 38.3171C145.605 38.9346 145.765 39.5201 146.084 40.0737C146.403 40.606 146.872 41.0531 147.489 41.4151C148.107 41.7558 148.831 41.9261 149.661 41.9261C150.704 41.9261 151.673 41.7238 152.567 41.3193C153.483 40.9148 154.186 40.3931 154.675 39.7543ZM166.725 43.2675L159.986 26.6278H162.254L167.939 41.0957L173.656 26.6278H175.796L169.057 43.2675H166.725ZM178.804 43.2675V26.6278H180.976V43.2675H178.804ZM178.804 23.1466V19.9528H180.976V23.1466H178.804ZM184.642 34.9956C184.642 33.42 184.961 31.9828 185.6 30.6839C186.26 29.3638 187.165 28.3099 188.315 27.5221C189.464 26.7343 190.774 26.3404 192.243 26.3404C193.627 26.3404 194.862 26.713 195.948 27.4582C197.055 28.1821 197.917 29.0658 198.535 30.1091V19.9528H200.707V40.6486C200.707 40.9467 200.771 41.1703 200.898 41.3193C201.026 41.4471 201.218 41.5216 201.473 41.5429V43.2675C201.047 43.3314 200.717 43.3527 200.483 43.3314C200.036 43.3101 199.642 43.1291 199.301 42.7884C198.961 42.4478 198.79 42.0752 198.79 41.6706V40.0418C198.13 41.1277 197.236 41.99 196.108 42.6288C194.979 43.2675 193.808 43.5869 192.594 43.5869C191.445 43.5869 190.38 43.3527 189.401 42.8843C188.442 42.4158 187.601 41.7771 186.877 40.968C186.175 40.1589 185.621 39.2433 185.217 38.2213C184.833 37.178 184.642 36.1028 184.642 34.9956ZM198.535 37.5506V32.4086C198.258 31.6421 197.811 30.9501 197.193 30.3326C196.576 29.6939 195.873 29.1935 195.086 28.8315C194.319 28.4483 193.553 28.2567 192.786 28.2567C191.892 28.2567 191.083 28.4483 190.359 28.8315C189.635 29.1935 189.007 29.6939 188.474 30.3326C187.963 30.9714 187.569 31.6953 187.293 32.5044C187.016 33.3135 186.877 34.1439 186.877 34.9956C186.877 35.8898 187.027 36.7415 187.325 37.5506C187.644 38.3597 188.091 39.0836 188.666 39.7224C189.241 40.3399 189.901 40.8189 190.646 41.1596C191.391 41.5003 192.2 41.6706 193.073 41.6706C193.627 41.6706 194.202 41.5642 194.798 41.3512C195.394 41.1383 195.959 40.8509 196.491 40.4889C197.044 40.1057 197.502 39.6585 197.864 39.1475C198.226 38.6365 198.45 38.1042 198.535 37.5506ZM213.027 20.5915L221.14 40.4889L229.22 20.5915H231.552L222.162 43.2675H220.118L210.696 20.5915H213.027ZM239.387 43.5869C238.194 43.5869 237.087 43.3633 236.065 42.9162C235.043 42.4478 234.16 41.8197 233.414 41.0319C232.669 40.2228 232.084 39.2966 231.658 38.2533C231.253 37.2099 231.051 36.0921 231.051 34.8998C231.051 33.3454 231.402 31.9189 232.105 30.6201C232.829 29.3213 233.819 28.2886 235.075 27.5221C236.331 26.7343 237.758 26.3404 239.355 26.3404C240.994 26.3404 242.421 26.7343 243.635 27.5221C244.869 28.3099 245.838 29.3532 246.541 30.652C247.244 31.9295 247.595 33.3348 247.595 34.8678C247.595 35.0382 247.595 35.2085 247.595 35.3788C247.595 35.5279 247.584 35.645 247.563 35.7301H233.319C233.425 36.9225 233.755 37.9871 234.309 38.9239C234.884 39.8395 235.618 40.5741 236.512 41.1277C237.428 41.66 238.418 41.9261 239.483 41.9261C240.568 41.9261 241.591 41.6493 242.549 41.0957C243.528 40.5421 244.209 39.8182 244.593 38.9239L246.477 39.435C246.136 40.2228 245.615 40.936 244.912 41.5748C244.209 42.2136 243.379 42.7139 242.421 43.0759C241.484 43.4166 240.473 43.5869 239.387 43.5869ZM233.255 34.1652H245.551C245.466 32.9515 245.136 31.8869 244.561 30.9714C244.007 30.0558 243.273 29.3425 242.357 28.8315C241.463 28.2992 240.473 28.0331 239.387 28.0331C238.301 28.0331 237.311 28.2992 236.417 28.8315C235.522 29.3425 234.788 30.0665 234.213 31.0033C233.659 31.9189 233.34 32.9728 233.255 34.1652ZM251.041 19.9528H253.213V39.4988C253.213 40.3292 253.362 40.8722 253.66 41.1277C253.958 41.3832 254.32 41.5109 254.746 41.5109C255.129 41.5109 255.513 41.4683 255.896 41.3832C256.279 41.298 256.609 41.2128 256.886 41.1277L257.269 42.8843C256.865 43.0546 256.364 43.193 255.768 43.2995C255.193 43.4059 254.693 43.4591 254.267 43.4591C253.288 43.4591 252.5 43.1717 251.904 42.5968C251.329 42.0219 251.041 41.2341 251.041 40.2334V19.9528ZM259.647 43.2675V26.6278H261.819V43.2675H259.647ZM259.647 23.1466V19.9528H261.819V23.1466H259.647ZM265.197 41.7984L276.344 28.2567H265.453V26.6278H278.803V28.097L267.721 41.6387H278.771V43.2675H265.197V41.7984Z" fill="#FBFBFE"/>
</g>
<defs>
<clipPath id="clip0_1_139">
<rect width="592.627" height="63.876" fill="white" transform="translate(0.774323 0.84729)"/>
</clipPath>
</defs>
</svg>
