<svg width="962" height="96" viewBox="0 0 962 96" fill="none" xmlns="http://www.w3.org/2000/svg">
<path d="M25.0245 95.2491C18.9681 95.2491 14.1608 93.9621 10.6027 91.3882C7.04457 88.8142 4.47061 85.1804 2.88081 80.4867C1.36671 75.7173 0.609659 70.1151 0.609659 63.6802V32.7926C0.609659 26.2063 1.36671 20.5284 2.88081 15.759C4.3949 10.9896 7.04457 7.35575 10.8298 4.85749C14.6908 2.28352 19.9901 0.996535 26.7278 0.996535C33.0114 0.996535 38.0079 2.05641 41.7174 4.17615C45.427 6.29588 48.0766 9.36193 49.6664 13.3743C51.3319 17.3109 52.1647 22.1182 52.1647 27.7961V32.5655H36.1531V27.3418C36.1531 24.3893 35.926 21.8532 35.4718 19.7335C35.0932 17.6138 34.2605 16.024 32.9735 14.9641C31.7622 13.8285 29.756 13.2607 26.955 13.2607C24.0025 13.2607 21.8449 13.9799 20.4822 15.4183C19.1952 16.8567 18.3625 18.7493 17.9839 21.0962C17.6811 23.443 17.5297 26.017 17.5297 28.8181V67.314C17.5297 70.4936 17.7947 73.2569 18.3246 75.6037C18.8545 77.9506 19.8387 79.7675 21.2771 81.0545C22.7155 82.2657 24.7595 82.8714 27.4092 82.8714C30.1346 82.8714 32.2165 82.19 33.6548 80.8273C35.0932 79.4647 36.0774 77.572 36.6073 75.1495C37.213 72.7269 37.5158 69.8501 37.5158 66.5191V57.8888H27.6363V47.3279H52.6189V94H41.831L40.5818 84.9154C39.3706 87.9436 37.5158 90.4419 35.0175 92.4102C32.595 94.3028 29.264 95.2491 25.0245 95.2491ZM90.6145 95.2491C83.8011 95.2491 78.5017 94 74.7165 91.5017C70.9312 89.0035 68.3194 85.4453 66.881 80.8273C65.4426 76.2094 64.7234 70.6829 64.7234 64.248V2.01855H81.0757V66.1785C81.0757 69.0552 81.2649 71.7806 81.6435 74.3546C82.022 76.8528 82.8926 78.8969 84.2553 80.4867C85.6937 82.0008 87.8134 82.7578 90.6145 82.7578C93.567 82.7578 95.6867 82.0008 96.9737 80.4867C98.3364 78.8969 99.207 76.8528 99.5855 74.3546C100.04 71.7806 100.267 69.0552 100.267 66.1785V2.01855H116.506V64.248C116.506 70.6829 115.786 76.2094 114.348 80.8273C112.91 85.4453 110.298 89.0035 106.513 91.5017C102.803 94 97.5036 95.2491 90.6145 95.2491ZM152.89 95.2491C147.364 95.2491 142.746 94.1893 139.036 92.0695C135.327 89.8741 132.525 86.6945 130.633 82.5307C128.74 78.3669 127.68 73.2569 127.453 67.2005L141.875 64.3615C142.026 67.9197 142.443 71.0614 143.124 73.7868C143.881 76.5122 144.979 78.6319 146.417 80.146C147.931 81.5844 149.9 82.3036 152.322 82.3036C155.048 82.3036 156.978 81.5087 158.114 79.9189C159.249 78.2534 159.817 76.1715 159.817 73.6732C159.817 69.6609 158.909 66.3677 157.092 63.7937C155.275 61.2198 152.852 58.6458 149.824 56.0718L138.241 45.8517C134.986 43.0506 132.374 39.9467 130.406 36.54C128.513 33.0576 127.567 28.7802 127.567 23.708C127.567 16.4403 129.687 10.8382 133.926 6.90152C138.165 2.96486 143.957 0.996535 151.3 0.996535C155.615 0.996535 159.211 1.67788 162.088 3.04057C164.965 4.32755 167.236 6.14447 168.902 8.49132C170.643 10.8382 171.93 13.5257 172.763 16.5539C173.595 19.5064 174.125 22.6481 174.352 25.9792L160.044 28.4774C159.893 25.6006 159.552 23.0267 159.022 20.7555C158.568 18.4844 157.697 16.7053 156.41 15.4183C155.199 14.1313 153.382 13.4878 150.96 13.4878C148.461 13.4878 146.531 14.3206 145.168 15.9861C143.881 17.5759 143.238 19.5821 143.238 22.0046C143.238 25.1085 143.881 27.6825 145.168 29.7265C146.455 31.6949 148.31 33.7389 150.732 35.8586L162.202 45.9652C165.987 49.1449 169.204 52.8922 171.854 57.2074C174.58 61.4469 175.942 66.5948 175.942 72.6512C175.942 77.0421 174.958 80.9409 172.99 84.3476C171.097 87.7543 168.41 90.4419 164.927 92.4102C161.52 94.3028 157.508 95.2491 152.89 95.2491ZM195.036 94V14.3963H180.387V2.01855H226.264V14.3963H211.842V94H195.036ZM227.758 94L246.154 2.01855H264.096L282.493 94H266.935L263.302 72.7648H247.29L243.543 94H227.758ZM248.993 62.0904H261.485L255.239 23.4809L248.993 62.0904ZM302.387 94L283.877 2.01855H298.753L310.903 67.0869L322.259 2.01855H337.476L318.966 94H302.387ZM370.843 95.2491C364.332 95.2491 359.147 94.0379 355.286 91.6153C351.425 89.1927 348.661 85.7103 346.996 81.168C345.33 76.6257 344.498 71.2507 344.498 65.0429V30.635C344.498 24.4272 345.33 19.1279 346.996 14.737C348.661 10.2704 351.425 6.86367 355.286 4.51681C359.147 2.16996 364.332 0.996535 370.843 0.996535C377.505 0.996535 382.729 2.16996 386.514 4.51681C390.375 6.86367 393.138 10.2704 394.804 14.737C396.545 19.1279 397.415 24.4272 397.415 30.635V65.1564C397.415 71.2885 396.545 76.6257 394.804 81.168C393.138 85.6346 390.375 89.117 386.514 91.6153C382.729 94.0379 377.505 95.2491 370.843 95.2491ZM370.843 82.8714C373.644 82.8714 375.688 82.2657 376.975 81.0545C378.338 79.8432 379.246 78.1777 379.7 76.0579C380.155 73.9382 380.382 71.6292 380.382 69.1309V26.7741C380.382 24.2001 380.155 21.8911 379.7 19.8471C379.246 17.803 378.338 16.2132 376.975 15.0776C375.688 13.8664 373.644 13.2607 370.843 13.2607C368.193 13.2607 366.187 13.8664 364.824 15.0776C363.462 16.2132 362.553 17.803 362.099 19.8471C361.645 21.8911 361.418 24.2001 361.418 26.7741V69.1309C361.418 71.6292 361.607 73.9382 361.985 76.0579C362.44 78.1777 363.348 79.8432 364.711 81.0545C366.074 82.2657 368.118 82.8714 370.843 82.8714ZM437.46 94V2.01855H459.15C466.645 2.01855 472.474 3.04057 476.638 5.0846C480.877 7.12863 483.867 10.2704 485.609 14.5099C487.426 18.7493 488.334 24.1244 488.334 30.635V64.248C488.334 70.91 487.426 76.4743 485.609 80.9409C483.867 85.3318 480.915 88.625 476.751 90.8204C472.663 92.9401 467.023 94 459.831 94H437.46ZM454.267 82.3036H459.377C463.238 82.3036 466.001 81.6222 467.667 80.2596C469.332 78.8969 470.354 76.9285 470.733 74.3546C471.111 71.7049 471.3 68.4875 471.3 64.7022V29.4994C471.3 25.7899 471.035 22.7995 470.505 20.5284C469.976 18.2573 468.878 16.5917 467.212 15.5319C465.547 14.472 462.859 13.9421 459.15 13.9421H454.267V82.3036ZM495.35 94L513.746 2.01855H531.688L550.084 94H534.527L530.893 72.7648H514.882L511.134 94H495.35ZM516.585 62.0904H529.076L522.831 23.4809L516.585 62.0904ZM569.978 94L551.468 2.01855H566.344L578.495 67.0869L589.851 2.01855H605.067L586.558 94H569.978ZM614.904 94V2.01855H631.484V94H614.904ZM645.723 94V2.01855H667.412C674.907 2.01855 680.736 3.04057 684.9 5.0846C689.139 7.12863 692.13 10.2704 693.871 14.5099C695.688 18.7493 696.596 24.1244 696.596 30.635V64.248C696.596 70.91 695.688 76.4743 693.871 80.9409C692.13 85.3318 689.177 88.625 685.013 90.8204C680.925 92.9401 675.285 94 668.093 94H645.723ZM662.529 82.3036H667.639C671.5 82.3036 674.263 81.6222 675.929 80.2596C677.594 78.8969 678.616 76.9285 678.995 74.3546C679.373 71.7049 679.563 68.4875 679.563 64.7022V29.4994C679.563 25.7899 679.298 22.7995 678.768 20.5284C678.238 18.2573 677.14 16.5917 675.475 15.5319C673.809 14.472 671.122 13.9421 667.412 13.9421H662.529V82.3036ZM750.627 94L732.118 2.01855H746.994L759.144 67.0869L770.5 2.01855H785.717L767.207 94H750.627ZM795.099 94V2.01855H833.709V13.8285H811.906V40.2874H829.053V51.9838H811.906V82.4172H833.936V94H795.099ZM843.672 94V2.01855H860.478V82.4172H882.735V94H843.672ZM891.922 94V2.01855H908.501V94H891.922ZM919.561 94V83.2121L944.316 13.6014H920.924V2.01855H961.236V10.6489L935.572 82.4172H961.35V94H919.561Z" fill="#889297"/>
<path d="M10.6027 91.3882L11.1888 90.578L10.6027 91.3882ZM2.88081 80.4867L1.92768 80.7893L1.93058 80.7984L1.93366 80.8075L2.88081 80.4867ZM2.88081 15.759L3.83393 16.0616L3.83393 16.0616L2.88081 15.759ZM10.8298 4.85749L11.3807 5.69211L11.3845 5.68954L10.8298 4.85749ZM41.7174 4.17615L41.2213 5.04439L41.2213 5.04439L41.7174 4.17615ZM49.6664 13.3743L48.7368 13.7427L48.741 13.7533L48.7455 13.7639L49.6664 13.3743ZM52.1647 32.5655V33.5655H53.1647V32.5655H52.1647ZM36.1531 32.5655H35.1531V33.5655H36.1531V32.5655ZM35.4718 19.7335L34.4873 19.9093L34.4904 19.9262L34.494 19.943L35.4718 19.7335ZM32.9735 14.9641L32.2896 15.6936L32.313 15.7156L32.3378 15.736L32.9735 14.9641ZM20.4822 15.4183L19.7562 14.7306L19.7464 14.7409L19.737 14.7515L20.4822 15.4183ZM17.9839 21.0962L16.9967 20.937L16.9942 20.9526L16.9922 20.9682L17.9839 21.0962ZM18.3246 75.6037L17.3492 75.824L17.3492 75.824L18.3246 75.6037ZM21.2771 81.0545L20.6103 81.7997L20.6215 81.8097L20.633 81.8194L21.2771 81.0545ZM33.6548 80.8273L32.9671 80.1014L32.9671 80.1014L33.6548 80.8273ZM36.6073 75.1495L35.6372 74.9069L35.6336 74.9213L35.6304 74.9358L36.6073 75.1495ZM37.5158 57.8888H38.5158V56.8888H37.5158V57.8888ZM27.6363 57.8888H26.6363V58.8888H27.6363V57.8888ZM27.6363 47.3279V46.3279H26.6363V47.3279H27.6363ZM52.6189 47.3279H53.6189V46.3279H52.6189V47.3279ZM52.6189 94V95H53.6189V94H52.6189ZM41.831 94L40.8403 94.1362L40.9591 95H41.831V94ZM40.5818 84.9154L41.5725 84.7792L41.0575 81.0337L39.6534 84.544L40.5818 84.9154ZM35.0175 92.4102L35.6332 93.1982L35.6364 93.1957L35.0175 92.4102ZM25.0245 94.2491C19.1006 94.2491 14.5226 92.9896 11.1888 90.578L10.0166 92.1984C13.7991 94.9347 18.8356 96.2491 25.0245 96.2491V94.2491ZM11.1888 90.578C7.82011 88.141 5.36005 84.6892 3.82795 80.1659L1.93366 80.8075C3.58117 85.6715 6.26904 89.4874 10.0166 92.1984L11.1888 90.578ZM3.83393 80.1841C2.35831 75.5359 1.60966 70.0402 1.60966 63.6802H-0.390341C-0.390341 70.19 0.375103 75.8986 1.92768 80.7893L3.83393 80.1841ZM1.60966 63.6802V32.7926H-0.390341V63.6802H1.60966ZM1.60966 32.7926C1.60966 26.2785 2.35894 20.7078 3.83393 16.0616L1.92768 15.4564C0.374475 20.349 -0.390341 26.1341 -0.390341 32.7926H1.60966ZM3.83393 16.0616C5.28639 11.4863 7.80645 8.05108 11.3807 5.6921L10.279 4.02288C6.2827 6.66042 3.50342 10.4928 1.92768 15.4564L3.83393 16.0616ZM11.3845 5.68954C15.0226 3.26418 20.1028 1.99654 26.7278 1.99654V-0.0034647C19.8775 -0.0034647 14.359 1.30286 10.2751 4.02544L11.3845 5.68954ZM26.7278 1.99654C32.9137 1.99654 37.7176 3.04228 41.2213 5.04439L42.2136 3.3079C38.2982 1.07053 33.109 -0.0034647 26.7278 -0.0034647V1.99654ZM41.2213 5.04439C44.7316 7.05029 47.2296 9.93896 48.7368 13.7427L50.5961 13.0059C48.9236 8.7849 46.1223 5.54148 42.2136 3.3079L41.2213 5.04439ZM48.7455 13.7639C50.3447 17.544 51.1647 22.2104 51.1647 27.7961H53.1647C53.1647 22.026 52.3191 17.0779 50.5874 12.9846L48.7455 13.7639ZM51.1647 27.7961V32.5655H53.1647V27.7961H51.1647ZM52.1647 31.5655H36.1531V33.5655H52.1647V31.5655ZM37.1531 32.5655V27.3418H35.1531V32.5655H37.1531ZM37.1531 27.3418C37.1531 24.3424 36.9228 21.7322 36.4496 19.524L34.494 19.943C34.9292 21.9742 35.1531 24.4363 35.1531 27.3418H37.1531ZM36.4562 19.5577C36.0483 17.2737 35.1276 15.4426 33.6092 14.1922L32.3378 15.736C33.3934 16.6053 34.1381 17.9538 34.4873 19.9093L36.4562 19.5577ZM33.6574 14.2346C32.169 12.8391 29.8475 12.2607 26.955 12.2607V14.2607C29.6646 14.2607 31.3554 14.8179 32.2896 15.6936L33.6574 14.2346ZM26.955 12.2607C23.8623 12.2607 21.3837 13.0127 19.7562 14.7306L21.2081 16.1061C22.306 14.9472 24.1426 14.2607 26.955 14.2607V12.2607ZM19.737 14.7515C18.2957 16.3623 17.3986 18.4451 16.9967 20.937L18.9712 21.2554C19.3263 19.0536 20.0947 17.3511 21.2274 16.0851L19.737 14.7515ZM16.9922 20.9682C16.683 23.3644 16.5297 25.9817 16.5297 28.8181H18.5297C18.5297 26.0523 18.6793 23.5217 18.9757 21.2242L16.9922 20.9682ZM16.5297 28.8181V67.314H18.5297V28.8181H16.5297ZM16.5297 67.314C16.5297 70.5456 16.7987 73.386 17.3492 75.824L19.3 75.3835C18.7907 73.1277 18.5297 70.4417 18.5297 67.314H16.5297ZM17.3492 75.824C17.9135 78.3232 18.9824 80.3431 20.6103 81.7997L21.9439 80.3092C20.695 79.1918 19.7956 77.578 19.3 75.3835L17.3492 75.824ZM20.633 81.8194C22.3131 83.2342 24.619 83.8714 27.4092 83.8714V81.8714C24.9 81.8714 23.1179 81.2973 21.9212 80.2896L20.633 81.8194ZM27.4092 83.8714C30.2931 83.8714 32.6581 83.1491 34.3426 81.5533L32.9671 80.1014C31.7748 81.231 29.976 81.8714 27.4092 81.8714V83.8714ZM34.3426 81.5533C35.9594 80.0216 37.0223 77.9322 37.5842 75.3632L35.6304 74.9358C35.1325 77.2119 34.2271 78.9077 32.9671 80.1014L34.3426 81.5533ZM37.5775 75.392C38.2083 72.8688 38.5158 69.9065 38.5158 66.5191H36.5158C36.5158 69.7937 36.2177 72.585 35.6372 74.9069L37.5775 75.392ZM38.5158 66.5191V57.8888H36.5158V66.5191H38.5158ZM37.5158 56.8888H27.6363V58.8888H37.5158V56.8888ZM28.6363 57.8888V47.3279H26.6363V57.8888H28.6363ZM27.6363 48.3279H52.6189V46.3279H27.6363V48.3279ZM51.6189 47.3279V94H53.6189V47.3279H51.6189ZM52.6189 93H41.831V95H52.6189V93ZM42.8217 93.8638L41.5725 84.7792L39.5912 85.0516L40.8403 94.1362L42.8217 93.8638ZM39.6534 84.544C38.5055 87.4138 36.7556 89.7677 34.3987 91.6247L35.6364 93.1957C38.276 91.116 40.2357 88.4734 41.5103 85.2868L39.6534 84.544ZM34.4019 91.6222C32.2112 93.3337 29.1242 94.2491 25.0245 94.2491V96.2491C29.4037 96.2491 32.9788 95.272 35.6332 93.1982L34.4019 91.6222ZM74.7165 91.5017L75.2673 90.6671L75.2673 90.6671L74.7165 91.5017ZM66.881 80.8273L65.9263 81.1247L65.9263 81.1247L66.881 80.8273ZM64.7234 2.01855V1.01855H63.7234V2.01855H64.7234ZM81.0757 2.01855H82.0757V1.01855H81.0757V2.01855ZM81.6435 74.3546L80.6541 74.5001L80.6547 74.5044L81.6435 74.3546ZM84.2553 80.4867L83.496 81.1375L83.5127 81.1569L83.5303 81.1754L84.2553 80.4867ZM96.9737 80.4867L96.2144 79.8359L96.2118 79.839L96.9737 80.4867ZM99.5855 74.3546L98.6007 74.1808L98.5986 74.1928L98.5968 74.2048L99.5855 74.3546ZM100.267 2.01855V1.01855H99.2669V2.01855H100.267ZM116.506 2.01855H117.506V1.01855H116.506V2.01855ZM114.348 80.8273L113.393 80.53L113.393 80.53L114.348 80.8273ZM106.513 91.5017L105.962 90.6671L105.954 90.6723L106.513 91.5017ZM90.6145 94.2491C83.9048 94.2491 78.8262 93.016 75.2673 90.6671L74.1656 92.3363C78.1772 94.984 83.6974 96.2491 90.6145 96.2491V94.2491ZM75.2673 90.6671C71.688 88.3048 69.2104 84.9434 67.8358 80.53L65.9263 81.1247C67.4284 85.9473 70.1744 89.7022 74.1656 92.3363L75.2673 90.6671ZM67.8358 80.53C66.4354 76.034 65.7234 70.6132 65.7234 64.248H63.7234C63.7234 70.7526 64.4498 76.3847 65.9263 81.1247L67.8358 80.53ZM65.7234 64.248V2.01855H63.7234V64.248H65.7234ZM64.7234 3.01855H81.0757V1.01855H64.7234V3.01855ZM80.0757 2.01855V66.1785H82.0757V2.01855H80.0757ZM80.0757 66.1785C80.0757 69.0989 80.2678 71.8732 80.6541 74.5001L82.6328 74.2091C82.2621 71.688 82.0757 69.0116 82.0757 66.1785H80.0757ZM80.6547 74.5044C81.0555 77.1493 81.9884 79.3785 83.496 81.1375L85.0145 79.8359C83.7968 78.4152 82.9885 76.5564 82.6322 74.2048L80.6547 74.5044ZM83.5303 81.1754C85.2153 82.9492 87.6365 83.7578 90.6145 83.7578V81.7578C87.9903 81.7578 86.172 81.0524 84.9803 79.7979L83.5303 81.1754ZM90.6145 83.7578C93.7152 83.7578 96.1814 82.9629 97.7356 81.1343L96.2118 79.839C95.1921 81.0387 93.4187 81.7578 90.6145 81.7578V83.7578ZM97.733 81.1375C99.2406 79.3785 100.173 77.1493 100.574 74.5044L98.5968 74.2048C98.2405 76.5564 97.4321 78.4152 96.2144 79.8359L97.733 81.1375ZM100.57 74.5284C101.036 71.8916 101.267 69.1077 101.267 66.1785H99.2669C99.2669 69.0027 99.0439 71.6696 98.6007 74.1808L100.57 74.5284ZM101.267 66.1785V2.01855H99.2669V66.1785H101.267ZM100.267 3.01855H116.506V1.01855H100.267V3.01855ZM115.506 2.01855V64.248H117.506V2.01855H115.506ZM115.506 64.248C115.506 70.6132 114.794 76.034 113.393 80.53L115.303 81.1247C116.779 76.3847 117.506 70.7526 117.506 64.248H115.506ZM113.393 80.53C112.019 84.9434 109.541 88.3048 105.962 90.6671L107.063 92.3363C111.055 89.7022 113.801 85.9473 115.303 81.1247L113.393 80.53ZM105.954 90.6723C102.476 93.0143 97.4046 94.2491 90.6145 94.2491V96.2491C97.6027 96.2491 103.13 94.9857 107.071 92.3312L105.954 90.6723ZM139.036 92.0695L138.527 92.9301L138.533 92.934L138.54 92.9378L139.036 92.0695ZM130.633 82.5307L131.543 82.1169L131.543 82.1169L130.633 82.5307ZM127.453 67.2005L127.26 66.2193L126.422 66.3843L126.454 67.2379L127.453 67.2005ZM141.875 64.3615L142.874 64.319L142.825 63.1554L141.682 63.3804L141.875 64.3615ZM143.124 73.7868L142.154 74.0293L142.157 74.0419L142.161 74.0544L143.124 73.7868ZM146.417 80.146L145.692 80.8348L145.71 80.8533L145.729 80.871L146.417 80.146ZM158.114 79.9189L158.927 80.5001L158.934 80.4912L158.94 80.4822L158.114 79.9189ZM157.092 63.7937L156.275 64.3704L156.275 64.3704L157.092 63.7937ZM149.824 56.0718L149.162 56.8217L149.169 56.8278L149.176 56.8338L149.824 56.0718ZM138.241 45.8517L138.903 45.1018L138.893 45.0937L138.241 45.8517ZM130.406 36.54L129.527 37.0175L129.533 37.029L129.54 37.0403L130.406 36.54ZM133.926 6.90152L134.606 7.63432L134.606 7.63432L133.926 6.90152ZM162.088 3.04057L161.66 3.94431L161.67 3.94895L161.68 3.95339L162.088 3.04057ZM168.902 8.49132L168.086 9.07007L168.092 9.07869L168.099 9.08717L168.902 8.49132ZM172.763 16.5539L171.798 16.8191L171.8 16.8254L172.763 16.5539ZM174.352 25.9792L174.524 26.9642L175.411 26.8094L175.35 25.9111L174.352 25.9792ZM160.044 28.4774L159.046 28.53L159.105 29.6566L160.216 29.4625L160.044 28.4774ZM159.022 20.7555L158.042 20.9516L158.045 20.9672L158.048 20.9827L159.022 20.7555ZM156.41 15.4183L155.682 16.1037L155.693 16.1147L155.703 16.1254L156.41 15.4183ZM145.168 15.9861L144.394 15.3529L144.391 15.3569L145.168 15.9861ZM145.168 29.7265L144.322 30.2594L144.326 30.2666L144.331 30.2738L145.168 29.7265ZM150.732 35.8586L151.394 35.1084L151.391 35.1061L150.732 35.8586ZM162.202 45.9652L161.541 46.7155L161.549 46.7233L161.559 46.731L162.202 45.9652ZM171.854 57.2074L171.002 57.7307L171.007 57.7395L171.013 57.7482L171.854 57.2074ZM172.99 84.3476L172.124 83.8473L172.12 83.8546L172.116 83.862L172.99 84.3476ZM164.927 92.4102L165.413 93.2844L165.419 93.2808L164.927 92.4102ZM152.89 94.2491C147.488 94.2491 143.053 93.2129 139.532 91.2013L138.54 92.9378C142.439 95.1656 147.239 96.2491 152.89 96.2491V94.2491ZM139.545 91.2089C136.023 89.1244 133.357 86.1062 131.543 82.1169L129.722 82.9445C131.694 87.2827 134.63 90.6238 138.527 92.9301L139.545 91.2089ZM131.543 82.1169C129.719 78.1033 128.676 73.1294 128.453 67.163L126.454 67.2379C126.684 73.3843 127.762 78.6306 129.722 82.9445L131.543 82.1169ZM127.646 68.1816L142.068 65.3427L141.682 63.3804L127.26 66.2193L127.646 68.1816ZM140.876 64.404C141.029 68.0127 141.453 71.2238 142.154 74.0293L144.094 73.5443C143.433 70.8991 143.023 67.8267 142.874 64.319L140.876 64.404ZM142.161 74.0544C142.947 76.8842 144.108 79.1674 145.692 80.8348L147.142 79.4573C145.85 78.0964 144.816 76.1402 144.088 73.5192L142.161 74.0544ZM145.729 80.871C147.458 82.5141 149.687 83.3036 152.322 83.3036V81.3036C150.112 81.3036 148.405 80.6547 147.106 79.421L145.729 80.871ZM152.322 83.3036C155.233 83.3036 157.536 82.4474 158.927 80.5001L157.3 79.3377C156.42 80.57 154.862 81.3036 152.322 81.3036V83.3036ZM158.94 80.4822C160.213 78.6147 160.817 76.324 160.817 73.6732H158.817C158.817 76.019 158.285 77.8921 157.287 79.3556L158.94 80.4822ZM160.817 73.6732C160.817 69.5109 159.874 66.0007 157.909 63.2171L156.275 64.3704C157.944 66.7347 158.817 69.8108 158.817 73.6732H160.817ZM157.909 63.2171C156.033 60.5594 153.548 57.9248 150.472 55.3099L149.176 56.8338C152.156 59.3668 154.517 61.8802 156.275 64.3704L157.909 63.2171ZM150.486 55.322L138.903 45.1018L137.58 46.6015L149.162 56.8217L150.486 55.322ZM138.893 45.0937C135.715 42.3592 133.179 39.3406 131.272 36.0397L129.54 37.0403C131.569 40.5528 134.256 43.742 137.589 46.6097L138.893 45.0937ZM131.284 36.0625C129.491 32.762 128.567 28.6589 128.567 23.708H126.567C126.567 28.9015 127.536 33.3531 129.527 37.0175L131.284 36.0625ZM128.567 23.708C128.567 16.6424 130.62 11.3356 134.606 7.63432L133.246 6.16873C128.753 10.3408 126.567 16.2383 126.567 23.708H128.567ZM134.606 7.63432C138.615 3.91209 144.139 1.99654 151.3 1.99654V-0.0034647C143.775 -0.0034647 137.716 2.01763 133.246 6.16873L134.606 7.63432ZM151.3 1.99654C155.517 1.99654 158.956 2.66335 161.66 3.94431L162.516 2.13683C159.467 0.692408 155.714 -0.0034647 151.3 -0.0034647V1.99654ZM161.68 3.95339C164.409 5.17455 166.534 6.88261 168.086 9.07007L169.717 7.91258C167.939 5.40634 165.52 3.48056 162.497 2.12775L161.68 3.95339ZM168.099 9.08717C169.761 11.3275 170.996 13.9011 171.798 16.819L173.727 16.2887C172.864 13.1503 171.525 10.3489 169.705 7.89548L168.099 9.08717ZM171.8 16.8254C172.613 19.7059 173.132 22.779 173.355 26.0472L175.35 25.9111C175.119 22.5173 174.578 19.3069 173.725 16.2824L171.8 16.8254ZM174.18 24.9941L159.872 27.4923L160.216 29.4625L174.524 26.9642L174.18 24.9941ZM161.043 28.4249C160.889 25.5023 160.542 22.8683 159.996 20.5283L158.048 20.9827C158.562 23.185 158.897 25.6989 159.046 28.53L161.043 28.4249ZM160.003 20.5594C159.52 18.1472 158.578 16.1714 157.117 14.7112L155.703 16.1254C156.817 17.2392 157.616 18.8215 158.042 20.9516L160.003 20.5594ZM157.139 14.733C155.676 13.1795 153.552 12.4878 150.96 12.4878V14.4878C153.212 14.4878 154.722 15.0832 155.682 16.1037L157.139 14.733ZM150.96 12.4878C148.215 12.4878 145.979 13.4164 144.394 15.3529L145.942 16.6193C147.083 15.2247 148.707 14.4878 150.96 14.4878V12.4878ZM144.391 15.3569C142.934 17.1562 142.238 19.3971 142.238 22.0046H144.238C144.238 19.7671 144.828 17.9956 145.945 16.6153L144.391 15.3569ZM142.238 22.0046C142.238 25.2441 142.91 28.0162 144.322 30.2594L146.014 29.1937C144.853 27.3489 144.238 24.973 144.238 22.0046H142.238ZM144.331 30.2738C145.683 32.3406 147.606 34.4519 150.074 36.6112L151.391 35.1061C149.014 33.0259 147.228 31.0492 146.005 29.1793L144.331 30.2738ZM150.071 36.6089L161.541 46.7155L162.863 45.215L151.394 35.1084L150.071 36.6089ZM161.559 46.731C165.26 49.8398 168.407 53.5048 171.002 57.7307L172.706 56.6842C170.002 52.2797 166.714 48.4499 162.845 45.1995L161.559 46.731ZM171.013 57.7482C173.615 61.7964 174.942 66.7475 174.942 72.6512H176.942C176.942 66.4422 175.544 61.0974 172.695 56.6667L171.013 57.7482ZM174.942 72.6512C174.942 76.8873 173.994 80.6098 172.124 83.8473L173.856 84.8479C175.922 81.272 176.942 77.1969 176.942 72.6512H174.942ZM172.116 83.862C170.315 87.1032 167.762 89.6594 164.435 91.5396L165.419 93.2808C169.058 91.2243 171.879 88.4055 173.864 84.8333L172.116 83.862ZM164.441 91.536C161.209 93.3321 157.37 94.2491 152.89 94.2491V96.2491C157.647 96.2491 161.832 95.2736 165.413 93.2844L164.441 91.536ZM195.036 94H194.036V95H195.036V94ZM195.036 14.3963H196.036V13.3963H195.036V14.3963ZM180.387 14.3963H179.387V15.3963H180.387V14.3963ZM180.387 2.01855V1.01855H179.387V2.01855H180.387ZM226.264 2.01855H227.264V1.01855H226.264V2.01855ZM226.264 14.3963V15.3963H227.264V14.3963H226.264ZM211.842 14.3963V13.3963H210.842V14.3963H211.842ZM211.842 94V95H212.842V94H211.842ZM196.036 94V14.3963H194.036V94H196.036ZM195.036 13.3963H180.387V15.3963H195.036V13.3963ZM181.387 14.3963V2.01855H179.387V14.3963H181.387ZM180.387 3.01855H226.264V1.01855H180.387V3.01855ZM225.264 2.01855V14.3963H227.264V2.01855H225.264ZM226.264 13.3963H211.842V15.3963H226.264V13.3963ZM210.842 14.3963V94H212.842V14.3963H210.842ZM211.842 93H195.036V95H211.842V93ZM227.758 94L226.777 93.8039L226.538 95H227.758V94ZM246.154 2.01855V1.01855H245.335L245.174 1.82244L246.154 2.01855ZM264.096 2.01855L265.077 1.82244L264.916 1.01855H264.096V2.01855ZM282.493 94V95H283.712L283.473 93.8039L282.493 94ZM266.935 94L265.95 94.1687L266.092 95H266.935V94ZM263.302 72.7648L264.287 72.5961L264.145 71.7648H263.302V72.7648ZM247.29 72.7648V71.7648H246.451L246.305 72.591L247.29 72.7648ZM243.543 94V95H244.382L244.527 94.1738L243.543 94ZM248.993 62.0904L248.006 61.9307L247.819 63.0904H248.993V62.0904ZM261.485 62.0904V63.0904H262.659L262.472 61.9307L261.485 62.0904ZM255.239 23.4809L256.226 23.3212L254.252 23.3212L255.239 23.4809ZM228.739 94.1961L247.135 2.21467L245.174 1.82244L226.777 93.8039L228.739 94.1961ZM246.154 3.01855H264.096V1.01855H246.154V3.01855ZM263.116 2.21467L281.512 94.1961L283.473 93.8039L265.077 1.82244L263.116 2.21467ZM282.493 93H266.935V95H282.493V93ZM267.921 93.8313L264.287 72.5961L262.316 72.9334L265.95 94.1687L267.921 93.8313ZM263.302 71.7648H247.29V73.7648H263.302V71.7648ZM246.305 72.591L242.558 93.8262L244.527 94.1738L248.275 72.9386L246.305 72.591ZM243.543 93H227.758V95H243.543V93ZM248.993 63.0904H261.485V61.0904H248.993V63.0904ZM262.472 61.9307L256.226 23.3212L254.252 23.6406L260.497 62.2501L262.472 61.9307ZM254.252 23.3212L248.006 61.9307L249.98 62.2501L256.226 23.6406L254.252 23.3212ZM302.387 94L301.406 94.1973L301.568 95H302.387V94ZM283.877 2.01855V1.01855H282.655L282.896 2.21583L283.877 2.01855ZM298.753 2.01855L299.736 1.83499L299.583 1.01855H298.753V2.01855ZM310.903 67.0869L309.92 67.2705L311.888 67.2588L310.903 67.0869ZM322.259 2.01855V1.01855H321.418L321.274 1.84663L322.259 2.01855ZM337.476 2.01855L338.456 2.21583L338.697 1.01855H337.476V2.01855ZM318.966 94V95H319.785L319.946 94.1973L318.966 94ZM303.367 93.8027L284.857 1.82127L282.896 2.21583L301.406 94.1973L303.367 93.8027ZM283.877 3.01855H298.753V1.01855H283.877V3.01855ZM297.77 2.20212L309.92 67.2705L311.886 66.9033L299.736 1.83499L297.77 2.20212ZM311.888 67.2588L323.244 2.19047L321.274 1.84663L309.918 66.915L311.888 67.2588ZM322.259 3.01855H337.476V1.01855H322.259V3.01855ZM336.495 1.82127L317.986 93.8027L319.946 94.1973L338.456 2.21583L336.495 1.82127ZM318.966 93H302.387V95H318.966V93ZM355.286 91.6153L355.817 90.7682L355.817 90.7682L355.286 91.6153ZM346.996 14.737L347.931 15.0916L347.933 15.0864L346.996 14.737ZM355.286 4.51681L355.805 5.37134L355.805 5.37134L355.286 4.51681ZM386.514 4.51681L385.987 5.36675L385.994 5.37134L386.514 4.51681ZM394.804 14.737L393.867 15.0864L393.87 15.096L393.874 15.1056L394.804 14.737ZM394.804 81.168L393.87 80.8101L393.867 80.8186L394.804 81.168ZM386.514 91.6153L387.053 92.4576L387.057 92.4549L386.514 91.6153ZM376.975 81.0545L376.311 80.3071L376.3 80.3165L376.29 80.3263L376.975 81.0545ZM379.7 76.0579L380.678 76.2675L380.678 76.2675L379.7 76.0579ZM379.7 19.8471L380.677 19.6301L380.677 19.6301L379.7 19.8471ZM376.975 15.0776L376.29 15.8058L376.312 15.8265L376.335 15.8459L376.975 15.0776ZM364.824 15.0776L365.465 15.8459L365.477 15.8357L365.489 15.8251L364.824 15.0776ZM362.099 19.8471L361.123 19.6301L361.123 19.6301L362.099 19.8471ZM361.985 76.0579L361.001 76.2337L361.004 76.2507L361.008 76.2675L361.985 76.0579ZM364.711 81.0545L365.375 80.3071L365.375 80.3071L364.711 81.0545ZM370.843 94.2491C364.444 94.2491 359.464 93.0568 355.817 90.7682L354.754 92.4624C358.829 95.0189 364.221 96.2491 370.843 96.2491V94.2491ZM355.817 90.7682C352.156 88.471 349.529 85.1716 347.935 80.8238L346.057 81.5123C347.794 86.249 350.693 89.9145 354.754 92.4624L355.817 90.7682ZM347.935 80.8238C346.319 76.418 345.498 71.1649 345.498 65.0429H343.498C343.498 71.3365 344.341 76.8335 346.057 81.5123L347.935 80.8238ZM345.498 65.0429V30.635H343.498V65.0429H345.498ZM345.498 30.635C345.498 24.5116 346.32 19.3392 347.931 15.0916L346.061 14.3823C344.341 18.9165 343.498 24.3428 343.498 30.635H345.498ZM347.933 15.0864C349.525 10.8178 352.147 7.59478 355.805 5.37134L354.766 3.66229C350.702 6.13256 347.798 9.72295 346.059 14.3876L347.933 15.0864ZM355.805 5.37134C359.455 3.1527 364.439 1.99654 370.843 1.99654V-0.0034647C364.225 -0.0034647 358.838 1.18722 354.766 3.66229L355.805 5.37134ZM370.843 1.99654C377.405 1.99654 382.42 3.15516 385.987 5.36672L387.041 3.66691C383.037 1.18477 377.605 -0.0034647 370.843 -0.0034647V1.99654ZM385.994 5.37134C389.652 7.59478 392.275 10.8178 393.867 15.0864L395.741 14.3876C394.001 9.72295 391.097 6.13256 387.033 3.66229L385.994 5.37134ZM393.874 15.1056C395.557 19.3487 396.415 24.5158 396.415 30.635H398.415C398.415 24.3386 397.533 18.9071 395.733 14.3684L393.874 15.1056ZM396.415 30.635V65.1564H398.415V30.635H396.415ZM396.415 65.1564C396.415 71.1968 395.557 76.4075 393.87 80.8101L395.737 81.526C397.532 76.844 398.415 71.3803 398.415 65.1564H396.415ZM393.867 80.8186C392.273 85.0917 389.644 88.3988 385.971 90.7757L387.057 92.4549C391.106 89.8353 394.003 86.1776 395.741 81.5174L393.867 80.8186ZM385.975 90.773C382.41 93.0542 377.4 94.2491 370.843 94.2491V96.2491C377.61 96.2491 383.047 95.0215 387.053 92.4576L385.975 90.773ZM370.843 83.8714C373.756 83.8714 376.105 83.2465 377.66 81.7827L376.29 80.3263C375.271 81.285 373.532 81.8714 370.843 81.8714V83.8714ZM377.639 81.8019C379.19 80.424 380.188 78.5548 380.678 76.2675L378.723 75.8484C378.304 77.8005 377.486 79.2624 376.311 80.3071L377.639 81.8019ZM380.678 76.2675C381.149 74.0694 381.382 71.6892 381.382 69.1309H379.382C379.382 71.5692 379.16 73.807 378.723 75.8484L380.678 76.2675ZM381.382 69.1309V26.7741H379.382V69.1309H381.382ZM381.382 26.7741C381.382 24.143 381.15 21.7594 380.677 19.6301L378.724 20.064C379.16 22.0228 379.382 24.2571 379.382 26.7741H381.382ZM380.677 19.6301C380.183 17.4106 379.177 15.611 377.615 14.3094L376.335 15.8459C377.498 16.8155 378.309 18.1954 378.724 20.064L380.677 19.6301ZM377.66 14.3494C376.105 12.8856 373.756 12.2607 370.843 12.2607V14.2607C373.532 14.2607 375.271 14.8471 376.29 15.8058L377.66 14.3494ZM370.843 12.2607C368.058 12.2607 365.774 12.896 364.16 14.3302L365.489 15.8251C366.601 14.8368 368.329 14.2607 370.843 14.2607V12.2607ZM364.184 14.3094C362.622 15.611 361.616 17.4106 361.123 19.6301L363.075 20.064C363.49 18.1954 364.301 16.8155 365.465 15.8459L364.184 14.3094ZM361.123 19.6301C360.65 21.7594 360.418 24.143 360.418 26.7741H362.418C362.418 24.2571 362.64 22.0228 363.075 20.064L361.123 19.6301ZM360.418 26.7741V69.1309H362.418V26.7741H360.418ZM360.418 69.1309C360.418 71.679 360.611 74.0476 361.001 76.2337L362.97 75.8821C362.603 73.8288 362.418 71.5794 362.418 69.1309H360.418ZM361.008 76.2675C361.498 78.5548 362.496 80.424 364.047 81.8019L365.375 80.3071C364.2 79.2624 363.382 77.8005 362.963 75.8484L361.008 76.2675ZM364.047 81.8019C365.664 83.2401 367.991 83.8714 370.843 83.8714V81.8714C368.245 81.8714 366.483 81.2914 365.375 80.3071L364.047 81.8019ZM437.46 94H436.46V95H437.46V94ZM437.46 2.01855V1.01855H436.46V2.01855H437.46ZM476.638 5.0846L476.197 5.98229L476.203 5.98537L476.638 5.0846ZM485.609 14.5099L484.684 14.8898L484.686 14.8968L484.689 14.9038L485.609 14.5099ZM485.609 80.9409L484.682 80.5641L484.679 80.5723L485.609 80.9409ZM476.751 90.8204L477.211 91.7082L477.218 91.705L476.751 90.8204ZM454.267 82.3036H453.267V83.3036H454.267V82.3036ZM467.667 80.2596L468.3 81.0335L468.3 81.0335L467.667 80.2596ZM470.733 74.3546L471.722 74.5001L471.723 74.496L470.733 74.3546ZM470.505 20.5284L469.532 20.7556L469.532 20.7556L470.505 20.5284ZM467.212 15.5319L466.675 16.3755L466.675 16.3755L467.212 15.5319ZM454.267 13.9421V12.9421H453.267V13.9421H454.267ZM438.46 94V2.01855H436.46V94H438.46ZM437.46 3.01855H459.15V1.01855H437.46V3.01855ZM459.15 3.01855C466.575 3.01855 472.229 4.03462 476.197 5.98227L477.078 4.18693C472.718 2.04652 466.714 1.01855 459.15 1.01855V3.01855ZM476.203 5.98537C480.227 7.92544 483.039 10.8852 484.684 14.8898L486.534 14.1299C484.696 9.65559 481.527 6.33183 477.072 4.18383L476.203 5.98537ZM484.689 14.9038C486.436 18.9787 487.334 24.2081 487.334 30.635H489.334C489.334 24.0407 488.415 18.52 486.528 14.1159L484.689 14.9038ZM487.334 30.635V64.248H489.334V30.635H487.334ZM487.334 64.248C487.334 70.8268 486.436 76.2534 484.682 80.5641L486.535 81.3177C488.415 76.6952 489.334 70.9932 489.334 64.248H487.334ZM484.679 80.5723C483.025 84.7423 480.237 87.8521 476.285 89.9358L477.218 91.705C481.593 89.3979 484.709 85.9213 486.538 81.3095L484.679 80.5723ZM476.291 89.9326C472.403 91.9486 466.944 93 459.831 93V95C467.102 95 472.923 93.9317 477.211 91.7081L476.291 89.9326ZM459.831 93H437.46V95H459.831V93ZM454.267 83.3036H459.377V81.3036H454.267V83.3036ZM459.377 83.3036C463.305 83.3036 466.361 82.6201 468.3 81.0335L467.033 79.4856C465.641 80.6244 463.17 81.3036 459.377 81.3036V83.3036ZM468.3 81.0335C470.197 79.4814 471.315 77.2663 471.722 74.5001L469.743 74.2091C469.393 76.5908 468.467 78.3123 467.033 79.4856L468.3 81.0335ZM471.723 74.496C472.11 71.7847 472.3 68.5171 472.3 64.7022H470.3C470.3 68.4578 470.112 71.6251 469.743 74.2132L471.723 74.496ZM472.3 64.7022V29.4994H470.3V64.7022H472.3ZM472.3 29.4994C472.3 25.7526 472.034 22.6772 471.479 20.3012L469.532 20.7556C470.037 22.9219 470.3 25.8272 470.3 29.4994H472.3ZM471.479 20.3012C470.902 17.8248 469.675 15.9136 467.749 14.6882L466.675 16.3755C468.081 17.2699 469.05 18.6897 469.532 20.7556L471.479 20.3012ZM467.749 14.6882C465.835 13.4703 462.908 12.9421 459.15 12.9421V14.9421C462.811 14.9421 465.258 15.4737 466.675 16.3755L467.749 14.6882ZM459.15 12.9421H454.267V14.9421H459.15V12.9421ZM453.267 13.9421V82.3036H455.267V13.9421H453.267ZM495.35 94L494.369 93.8039L494.13 95H495.35V94ZM513.746 2.01855V1.01855H512.926L512.765 1.82244L513.746 2.01855ZM531.688 2.01855L532.669 1.82244L532.508 1.01855H531.688V2.01855ZM550.084 94V95H551.304L551.065 93.8039L550.084 94ZM534.527 94L533.541 94.1687L533.684 95H534.527V94ZM530.893 72.7648L531.879 72.5961L531.737 71.7648H530.893V72.7648ZM514.882 72.7648V71.7648H514.043L513.897 72.591L514.882 72.7648ZM511.134 94V95H511.973L512.119 94.1738L511.134 94ZM516.585 62.0904L515.598 61.9307L515.41 63.0904H516.585V62.0904ZM529.076 62.0904V63.0904H530.251L530.063 61.9307L529.076 62.0904ZM522.831 23.4809L523.818 23.3212L521.843 23.3212L522.831 23.4809ZM496.33 94.1961L514.727 2.21467L512.765 1.82244L494.369 93.8039L496.33 94.1961ZM513.746 3.01855H531.688V1.01855H513.746V3.01855ZM530.707 2.21467L549.104 94.1961L551.065 93.8039L532.669 1.82244L530.707 2.21467ZM550.084 93H534.527V95H550.084V93ZM535.513 93.8313L531.879 72.5961L529.907 72.9334L533.541 94.1687L535.513 93.8313ZM530.893 71.7648H514.882V73.7648H530.893V71.7648ZM513.897 72.591L510.149 93.8262L512.119 94.1738L515.866 72.9386L513.897 72.591ZM511.134 93H495.35V95H511.134V93ZM516.585 63.0904H529.076V61.0904H516.585V63.0904ZM530.063 61.9307L523.818 23.3212L521.843 23.6406L528.089 62.2501L530.063 61.9307ZM521.843 23.3212L515.598 61.9307L517.572 62.2501L523.818 23.6406L521.843 23.3212ZM569.978 94L568.998 94.1973L569.159 95H569.978V94ZM551.468 2.01855V1.01855H550.247L550.488 2.21583L551.468 2.01855ZM566.344 2.01855L567.327 1.83499L567.175 1.01855H566.344V2.01855ZM578.495 67.0869L577.512 67.2705L579.48 67.2588L578.495 67.0869ZM589.851 2.01855V1.01855H589.01L588.866 1.84663L589.851 2.01855ZM605.067 2.01855L606.048 2.21583L606.289 1.01855H605.067V2.01855ZM586.558 94V95H587.376L587.538 94.1973L586.558 94ZM570.958 93.8027L552.449 1.82127L550.488 2.21583L568.998 94.1973L570.958 93.8027ZM551.468 3.01855H566.344V1.01855H551.468V3.01855ZM565.361 2.20212L577.512 67.2705L579.478 66.9033L567.327 1.83499L565.361 2.20212ZM579.48 67.2588L590.836 2.19047L588.866 1.84663L577.51 66.915L579.48 67.2588ZM589.851 3.01855H605.067V1.01855H589.851V3.01855ZM604.087 1.82127L585.577 93.8027L587.538 94.1973L606.048 2.21583L604.087 1.82127ZM586.558 93H569.978V95H586.558V93ZM614.904 94H613.904V95H614.904V94ZM614.904 2.01855V1.01855H613.904V2.01855H614.904ZM631.484 2.01855H632.484V1.01855H631.484V2.01855ZM631.484 94V95H632.484V94H631.484ZM615.904 94V2.01855H613.904V94H615.904ZM614.904 3.01855H631.484V1.01855H614.904V3.01855ZM630.484 2.01855V94H632.484V2.01855H630.484ZM631.484 93H614.904V95H631.484V93ZM645.723 94H644.723V95H645.723V94ZM645.723 2.01855V1.01855H644.723V2.01855H645.723ZM684.9 5.0846L684.459 5.98229L684.466 5.98537L684.9 5.0846ZM693.871 14.5099L692.946 14.8898L692.949 14.8968L692.952 14.9038L693.871 14.5099ZM693.871 80.9409L692.945 80.5641L692.941 80.5723L693.871 80.9409ZM685.013 90.8204L685.474 91.7082L685.48 91.705L685.013 90.8204ZM662.529 82.3036H661.529V83.3036H662.529V82.3036ZM675.929 80.2596L676.562 81.0335L676.562 81.0335L675.929 80.2596ZM678.995 74.3546L679.984 74.5001L679.985 74.496L678.995 74.3546ZM678.768 20.5284L677.794 20.7556L677.794 20.7556L678.768 20.5284ZM675.475 15.5319L674.938 16.3755L674.938 16.3755L675.475 15.5319ZM662.529 13.9421V12.9421H661.529V13.9421H662.529ZM646.723 94V2.01855H644.723V94H646.723ZM645.723 3.01855H667.412V1.01855H645.723V3.01855ZM667.412 3.01855C674.838 3.01855 680.492 4.03462 684.459 5.98227L685.341 4.18693C680.981 2.04652 674.976 1.01855 667.412 1.01855V3.01855ZM684.466 5.98537C688.489 7.92544 691.301 10.8852 692.946 14.8898L694.796 14.1299C692.958 9.65559 689.789 6.33183 685.334 4.18383L684.466 5.98537ZM692.952 14.9038C694.698 18.9787 695.596 24.2081 695.596 30.635H697.596C697.596 24.0407 696.678 18.52 694.79 14.1159L692.952 14.9038ZM695.596 30.635V64.248H697.596V30.635H695.596ZM695.596 64.248C695.596 70.8268 694.698 76.2534 692.945 80.5641L694.797 81.3177C696.678 76.6952 697.596 70.9932 697.596 64.248H695.596ZM692.941 80.5723C691.288 84.7423 688.499 87.8521 684.547 89.9358L685.48 91.705C689.855 89.3979 692.972 85.9213 694.801 81.3095L692.941 80.5723ZM684.553 89.9326C680.665 91.9486 675.207 93 668.093 93V95C675.364 95 681.186 93.9317 685.474 91.7081L684.553 89.9326ZM668.093 93H645.723V95H668.093V93ZM662.529 83.3036H667.639V81.3036H662.529V83.3036ZM667.639 83.3036C671.568 83.3036 674.623 82.6201 676.562 81.0335L675.296 79.4856C673.904 80.6244 671.432 81.3036 667.639 81.3036V83.3036ZM676.562 81.0335C678.459 79.4814 679.578 77.2663 679.984 74.5001L678.006 74.2091C677.655 76.5908 676.73 78.3123 675.296 79.4856L676.562 81.0335ZM679.985 74.496C680.372 71.7847 680.563 68.5171 680.563 64.7022H678.563C678.563 68.4578 678.375 71.6251 678.005 74.2132L679.985 74.496ZM680.563 64.7022V29.4994H678.563V64.7022H680.563ZM680.563 29.4994C680.563 25.7526 680.296 22.6772 679.742 20.3012L677.794 20.7556C678.299 22.9219 678.563 25.8272 678.563 29.4994H680.563ZM679.742 20.3012C679.164 17.8248 677.937 15.9136 676.012 14.6882L674.938 16.3755C676.343 17.2699 677.312 18.6897 677.794 20.7556L679.742 20.3012ZM676.012 14.6882C674.098 13.4703 671.17 12.9421 667.412 12.9421V14.9421C671.073 14.9421 673.521 15.4737 674.938 16.3755L676.012 14.6882ZM667.412 12.9421H662.529V14.9421H667.412V12.9421ZM661.529 13.9421V82.3036H663.529V13.9421H661.529ZM750.627 94L749.647 94.1973L749.809 95H750.627V94ZM732.118 2.01855V1.01855H730.896L731.137 2.21583L732.118 2.01855ZM746.994 2.01855L747.977 1.83499L747.824 1.01855H746.994V2.01855ZM759.144 67.0869L758.161 67.2705L760.129 67.2588L759.144 67.0869ZM770.5 2.01855V1.01855H769.659L769.515 1.84663L770.5 2.01855ZM785.717 2.01855L786.697 2.21583L786.938 1.01855H785.717V2.01855ZM767.207 94V95H768.026L768.187 94.1973L767.207 94ZM751.608 93.8027L733.098 1.82127L731.137 2.21583L749.647 94.1973L751.608 93.8027ZM732.118 3.01855H746.994V1.01855H732.118V3.01855ZM746.011 2.20212L758.161 67.2705L760.127 66.9033L747.977 1.83499L746.011 2.20212ZM760.129 67.2588L771.485 2.19047L769.515 1.84663L758.159 66.915L760.129 67.2588ZM770.5 3.01855H785.717V1.01855H770.5V3.01855ZM784.736 1.82127L766.227 93.8027L768.187 94.1973L786.697 2.21583L784.736 1.82127ZM767.207 93H750.627V95H767.207V93ZM795.099 94H794.099V95H795.099V94ZM795.099 2.01855V1.01855H794.099V2.01855H795.099ZM833.709 2.01855H834.709V1.01855H833.709V2.01855ZM833.709 13.8285V14.8285H834.709V13.8285H833.709ZM811.906 13.8285V12.8285H810.906V13.8285H811.906ZM811.906 40.2874H810.906V41.2874H811.906V40.2874ZM829.053 40.2874H830.053V39.2874H829.053V40.2874ZM829.053 51.9838V52.9838H830.053V51.9838H829.053ZM811.906 51.9838V50.9838H810.906V51.9838H811.906ZM811.906 82.4172H810.906V83.4172H811.906V82.4172ZM833.936 82.4172H834.936V81.4172H833.936V82.4172ZM833.936 94V95H834.936V94H833.936ZM796.099 94V2.01855H794.099V94H796.099ZM795.099 3.01855H833.709V1.01855H795.099V3.01855ZM832.709 2.01855V13.8285H834.709V2.01855H832.709ZM833.709 12.8285H811.906V14.8285H833.709V12.8285ZM810.906 13.8285V40.2874H812.906V13.8285H810.906ZM811.906 41.2874H829.053V39.2874H811.906V41.2874ZM828.053 40.2874V51.9838H830.053V40.2874H828.053ZM829.053 50.9838H811.906V52.9838H829.053V50.9838ZM810.906 51.9838V82.4172H812.906V51.9838H810.906ZM811.906 83.4172H833.936V81.4172H811.906V83.4172ZM832.936 82.4172V94H834.936V82.4172H832.936ZM833.936 93H795.099V95H833.936V93ZM843.672 94H842.672V95H843.672V94ZM843.672 2.01855V1.01855H842.672V2.01855H843.672ZM860.478 2.01855H861.478V1.01855H860.478V2.01855ZM860.478 82.4172H859.478V83.4172H860.478V82.4172ZM882.735 82.4172H883.735V81.4172H882.735V82.4172ZM882.735 94V95H883.735V94H882.735ZM844.672 94V2.01855H842.672V94H844.672ZM843.672 3.01855H860.478V1.01855H843.672V3.01855ZM859.478 2.01855V82.4172H861.478V2.01855H859.478ZM860.478 83.4172H882.735V81.4172H860.478V83.4172ZM881.735 82.4172V94H883.735V82.4172H881.735ZM882.735 93H843.672V95H882.735V93ZM891.922 94H890.922V95H891.922V94ZM891.922 2.01855V1.01855H890.922V2.01855H891.922ZM908.501 2.01855H909.501V1.01855H908.501V2.01855ZM908.501 94V95H909.501V94H908.501ZM892.922 94V2.01855H890.922V94H892.922ZM891.922 3.01855H908.501V1.01855H891.922V3.01855ZM907.501 2.01855V94H909.501V2.01855H907.501ZM908.501 93H891.922V95H908.501V93ZM919.561 94H918.561V95H919.561V94ZM919.561 83.2121L918.619 82.877L918.561 83.0395V83.2121H919.561ZM944.316 13.6014L945.259 13.9365L945.733 12.6014H944.316V13.6014ZM920.924 13.6014H919.924V14.6014H920.924V13.6014ZM920.924 2.01855V1.01855H919.924V2.01855H920.924ZM961.236 2.01855H962.236V1.01855H961.236V2.01855ZM961.236 10.6489L962.178 10.9856L962.236 10.8223V10.6489H961.236ZM935.572 82.4172L934.631 82.0804L934.153 83.4172H935.572V82.4172ZM961.35 82.4172H962.35V81.4172H961.35V82.4172ZM961.35 94V95H962.35V94H961.35ZM920.561 94V83.2121H918.561V94H920.561ZM920.503 83.5471L945.259 13.9365L943.374 13.2663L918.619 82.877L920.503 83.5471ZM944.316 12.6014H920.924V14.6014H944.316V12.6014ZM921.924 13.6014V2.01855H919.924V13.6014H921.924ZM920.924 3.01855H961.236V1.01855H920.924V3.01855ZM960.236 2.01855V10.6489H962.236V2.01855H960.236ZM960.295 10.3122L934.631 82.0804L936.514 82.7539L962.178 10.9856L960.295 10.3122ZM935.572 83.4172H961.35V81.4172H935.572V83.4172ZM960.35 82.4172V94H962.35V82.4172H960.35ZM961.35 93H919.561V95H961.35V93Z" fill="#889297"/>
</svg>
