<svg width="597" height="522" viewBox="0 0 597 522" fill="none" xmlns="http://www.w3.org/2000/svg">
<path d="M4.16179 22.1282H12.5083V41.3194H21.8767V22.1282H30.28V68.119H21.8767V47.338H12.5083V68.119H4.16179V22.1282ZM44.1872 22.1282H53.1582L62.3564 68.119H54.5777L52.7608 57.5013H44.755L42.8813 68.119H34.9891L44.1872 22.1282ZM51.8523 52.1642L48.7295 32.8594L45.6067 52.1642H51.8523ZM66.9816 22.1282H78.3374C82.6904 22.1282 86.0214 23.0178 88.3304 24.7968C90.6394 26.5759 91.7939 29.623 91.7939 33.9382C91.7939 36.7393 91.2261 38.9347 90.0905 40.5245C88.955 42.0765 87.3084 43.0228 85.1508 43.3635C90.4501 44.3855 93.0998 48.1707 93.0998 54.7192C93.0998 59.1479 92.021 62.4979 89.8634 64.769C87.7058 67.0023 84.5073 68.119 80.2678 68.119H66.9816V22.1282ZM78.2238 40.922C80.6464 40.922 82.2929 40.392 83.1635 39.3322C84.072 38.2345 84.5262 36.4743 84.5262 34.0518C84.5262 31.7049 83.9395 30.1151 82.7661 29.2823C81.6305 28.4117 79.719 27.9764 77.0314 27.9764H75.3281V40.922H78.2238ZM78.5645 62.214C81.0249 62.214 82.7282 61.6273 83.6745 60.4538C84.6209 59.2804 85.094 57.3499 85.094 54.6624C85.094 51.8992 84.5641 49.893 83.5042 48.6439C82.4822 47.3569 80.741 46.7134 78.2806 46.7134H75.3281V62.214H78.5645ZM98.814 22.1282H107.104V68.119H98.814V22.1282ZM114.223 22.1282H122.57V62.3843H133.755V68.119H114.223V22.1282ZM138.348 22.1282H146.638V68.119H138.348V22.1282ZM153.758 22.1282H164.602C168.312 22.1282 171.227 22.6392 173.346 23.6613C175.466 24.6454 176.961 26.1784 177.832 28.2603C178.74 30.3044 179.194 33.0297 179.194 36.4365V53.1862C179.194 56.6686 178.74 59.4886 177.832 61.6462C176.961 63.8038 175.485 65.4314 173.403 66.5292C171.321 67.589 168.501 68.119 164.943 68.119H153.758V22.1282ZM164.716 62.2708C166.571 62.2708 167.914 61.949 168.747 61.3055C169.58 60.662 170.11 59.7725 170.337 58.6369C170.564 57.4635 170.678 55.7412 170.678 53.4701V35.8687C170.678 33.8246 170.545 32.2727 170.28 31.2128C170.015 30.153 169.447 29.377 168.577 28.8849C167.744 28.355 166.419 28.09 164.602 28.09H162.104V62.2708H164.716ZM191.9 22.1282H200.871L210.07 68.119H202.291L200.474 57.5013H192.468L190.595 68.119H182.702L191.9 22.1282ZM199.566 52.1642L196.443 32.8594L193.32 52.1642H199.566ZM214.695 22.1282H225.54C229.249 22.1282 232.164 22.6392 234.284 23.6613C236.403 24.6454 237.898 26.1784 238.769 28.2603C239.677 30.3044 240.132 33.0297 240.132 36.4365V53.1862C240.132 56.6686 239.677 59.4886 238.769 61.6462C237.898 63.8038 236.422 65.4314 234.34 66.5292C232.258 67.589 229.438 68.119 225.88 68.119H214.695V22.1282ZM225.653 62.2708C227.508 62.2708 228.852 61.949 229.684 61.3055C230.517 60.662 231.047 59.7725 231.274 58.6369C231.501 57.4635 231.615 55.7412 231.615 53.4701V35.8687C231.615 33.8246 231.482 32.2727 231.217 31.2128C230.952 30.153 230.385 29.377 229.514 28.8849C228.681 28.355 227.357 28.09 225.54 28.09H223.041V62.2708H225.653ZM246.3 22.1282H265.605V28.0332H254.647V41.2626H263.277V47.1109H254.647V62.3843H265.718V68.119H246.3V22.1282ZM282.169 68.7435C278.005 68.7435 274.883 67.5701 272.801 65.2232C270.757 62.8764 269.64 59.375 269.451 54.7192L276.662 53.2997C276.775 56.2144 277.229 58.4477 278.024 59.9996C278.857 61.5137 280.144 62.2708 281.885 62.2708C283.172 62.2708 284.119 61.8922 284.724 61.1352C285.368 60.3403 285.69 59.2804 285.69 57.9556C285.69 56.1387 285.273 54.6056 284.44 53.3565C283.645 52.0695 282.377 50.669 280.636 49.1549L274.845 44.1016C273.066 42.5875 271.722 40.9598 270.813 39.2186C269.943 37.4774 269.508 35.3955 269.508 32.973C269.508 29.377 270.549 26.5948 272.63 24.6265C274.75 22.6203 277.665 21.6172 281.374 21.6172C285.349 21.6172 288.188 22.7528 289.891 25.0239C291.632 27.2572 292.635 30.2854 292.9 34.1085L285.69 35.3577C285.576 32.8594 285.216 30.9857 284.611 29.7366C284.043 28.4496 282.907 27.8061 281.204 27.8061C279.993 27.8061 279.046 28.2225 278.365 29.0552C277.684 29.8501 277.343 30.8721 277.343 32.1213C277.343 33.5975 277.627 34.8467 278.195 35.8687C278.8 36.8528 279.766 37.9127 281.09 39.0483L286.825 44.1016C288.983 45.9564 290.667 47.9436 291.878 50.0633C293.09 52.1831 293.695 54.6435 293.695 57.4446C293.695 59.64 293.203 61.5894 292.219 63.2928C291.273 64.9961 289.929 66.3399 288.188 67.3241C286.447 68.2704 284.44 68.7435 282.169 68.7435Z" fill="#889397"/>
<g clip-path="url(#clip0_1_154)">
<g clip-path="url(#clip1_1_154)">
<g clip-path="url(#clip2_1_154)">
<path d="M1.67062 155.028C2.11776 155.348 2.70329 155.625 3.42721 155.859C4.17243 156.093 5.02411 156.21 5.98225 156.21C7.4514 156.21 8.55859 155.88 9.30381 155.22C10.049 154.539 10.5387 153.527 10.773 152.186C11.0285 150.845 11.1562 149.173 11.1562 147.172V135.195H13.3919V146.725C13.3919 148.428 13.3067 149.982 13.1364 151.388C12.966 152.793 12.636 154.006 12.1463 155.028C11.6566 156.051 10.922 156.838 9.94257 157.392C8.96313 157.945 7.66432 158.222 6.04613 158.222C5.00282 158.222 4.07662 158.105 3.26752 157.871C2.45843 157.637 1.71321 157.285 1.03186 156.817L1.67062 155.028ZM16.7656 153.08C16.7656 152.058 17.0637 151.175 17.6598 150.429C18.256 149.663 19.0758 149.067 20.1191 148.641C21.1837 148.215 22.408 148.002 23.7919 148.002C24.601 148.002 25.4421 148.077 26.315 148.226C27.188 148.353 27.9652 148.534 28.6465 148.769V147.363C28.6465 145.958 28.2313 144.84 27.4009 144.01C26.5705 143.179 25.4208 142.764 23.9516 142.764C23.0786 142.764 22.2057 142.935 21.3327 143.275C20.4597 143.595 19.5548 144.074 18.618 144.713L17.7876 143.179C18.8735 142.434 19.9381 141.881 20.9814 141.519C22.0247 141.135 23.0893 140.944 24.1752 140.944C26.2192 140.944 27.8374 141.529 29.0298 142.7C30.2221 143.871 30.8183 145.49 30.8183 147.555V155.252C30.8183 155.827 31.0844 156.125 31.6167 156.146V157.871C31.1483 157.935 30.8183 157.956 30.6267 157.935C30.0944 157.914 29.6898 157.743 29.413 157.424C29.1362 157.104 28.9872 156.764 28.9659 156.402L28.9339 155.188C28.1887 156.146 27.2199 156.892 26.0276 157.424C24.8352 157.935 23.6216 158.19 22.3867 158.19C21.3008 158.19 20.332 157.967 19.4803 157.52C18.6286 157.051 17.9579 156.434 17.4682 155.667C16.9998 154.879 16.7656 154.017 16.7656 153.08ZM27.9119 154.358C28.4016 153.783 28.6465 153.251 28.6465 152.761V150.334C27.1774 149.759 25.6443 149.471 24.0474 149.471C22.4931 149.471 21.2369 149.78 20.2788 150.397C19.3206 151.015 18.8415 151.856 18.8415 152.921C18.8415 153.836 19.1929 154.667 19.8955 155.412C20.6194 156.157 21.6201 156.53 22.8977 156.53C23.941 156.53 24.9098 156.327 25.804 155.923C26.7196 155.518 27.4222 154.997 27.9119 154.358ZM39.962 157.871L33.2231 141.231H35.4907L41.1757 155.699L46.8926 141.231H49.0324L42.2935 157.871H39.962ZM50.2942 153.08C50.2942 152.058 50.5923 151.175 51.1885 150.429C51.7847 149.663 52.6044 149.067 53.6477 148.641C54.7123 148.215 55.9366 148.002 57.3206 148.002C58.1297 148.002 58.9707 148.077 59.8437 148.226C60.7167 148.353 61.4938 148.534 62.1752 148.769V147.363C62.1752 145.958 61.76 144.84 60.9296 144.01C60.0992 143.179 58.9494 142.764 57.4803 142.764C56.6073 142.764 55.7343 142.935 54.8614 143.275C53.9884 143.595 53.0835 144.074 52.1466 144.713L51.3163 143.179C52.4021 142.434 53.4667 141.881 54.5101 141.519C55.5534 141.135 56.618 140.944 57.7039 140.944C59.7479 140.944 61.3661 141.529 62.5584 142.7C63.7508 143.871 64.347 145.49 64.347 147.555V155.252C64.347 155.827 64.6131 156.125 65.1454 156.146V157.871C64.677 157.935 64.347 157.956 64.1553 157.935C63.623 157.914 63.2185 157.743 62.9417 157.424C62.6649 157.104 62.5158 156.764 62.4946 156.402L62.4626 155.188C61.7174 156.146 60.7486 156.892 59.5563 157.424C58.3639 157.935 57.1503 158.19 55.9153 158.19C54.8294 158.19 53.8606 157.967 53.009 157.52C52.1573 157.051 51.4866 156.434 50.9969 155.667C50.5284 154.879 50.2942 154.017 50.2942 153.08ZM61.4406 154.358C61.9303 153.783 62.1752 153.251 62.1752 152.761V150.334C60.706 149.759 59.173 149.471 57.5761 149.471C56.0218 149.471 54.7656 149.78 53.8074 150.397C52.8493 151.015 52.3702 151.856 52.3702 152.921C52.3702 153.836 52.7215 154.667 53.4242 155.412C54.1481 156.157 55.1488 156.53 56.4263 156.53C57.4696 156.53 58.4384 156.327 59.3327 155.923C60.2482 155.518 60.9509 154.997 61.4406 154.358ZM82.7407 139.443C82.102 138.74 81.2503 138.165 80.1857 137.718C79.1211 137.25 77.9075 137.015 76.5448 137.015C74.5433 137.015 73.0848 137.399 72.1693 138.165C71.2537 138.91 70.7959 139.932 70.7959 141.231C70.7959 142.126 71.0195 142.828 71.4666 143.339C71.9138 143.85 72.5951 144.276 73.5107 144.617C74.4475 144.936 75.6399 145.255 77.0877 145.575C78.7059 145.916 80.1005 146.32 81.2716 146.788C82.4427 147.257 83.3476 147.896 83.9863 148.705C84.6251 149.493 84.9445 150.568 84.9445 151.931C84.9445 153.314 84.5932 154.464 83.8905 155.38C83.1879 156.295 82.2191 156.977 80.9842 157.424C79.7492 157.85 78.344 158.063 76.7683 158.063C73.2339 158.063 70.1998 156.966 67.666 154.773L68.7838 152.953C69.5929 153.804 70.7001 154.539 72.1054 155.156C73.532 155.774 75.1076 156.082 76.8322 156.082C78.6207 156.082 80.026 155.752 81.048 155.092C82.0701 154.432 82.5811 153.453 82.5811 152.154C82.5811 151.217 82.3256 150.472 81.8145 149.918C81.3035 149.344 80.537 148.875 79.515 148.513C78.493 148.151 77.2368 147.8 75.7463 147.459C74.1707 147.097 72.84 146.693 71.7541 146.246C70.6895 145.798 69.8804 145.213 69.3268 144.489C68.7732 143.765 68.4964 142.786 68.4964 141.551C68.4964 140.145 68.8371 138.964 69.5184 138.006C70.2211 137.026 71.1792 136.292 72.3928 135.802C73.6065 135.291 75.0011 135.035 76.5767 135.035C78.0672 135.035 79.4086 135.27 80.6009 135.738C81.7933 136.185 82.8685 136.824 83.8266 137.654L82.7407 139.443ZM95.6572 158.19C94.039 158.19 92.6018 157.796 91.3455 157.009C90.0893 156.2 89.0992 155.146 88.3753 153.847C87.6514 152.527 87.2894 151.079 87.2894 149.503C87.2894 147.928 87.6407 146.501 88.3434 145.224C89.046 143.925 90.0254 142.892 91.2817 142.126C92.5379 141.338 93.9857 140.944 95.6252 140.944C97.1795 140.944 98.5422 141.306 99.7133 142.03C100.906 142.732 101.8 143.69 102.396 144.904L100.288 145.575C99.8198 144.723 99.1597 144.063 98.308 143.595C97.4776 143.105 96.5514 142.86 95.5294 142.86C94.4009 142.86 93.3789 143.148 92.4634 143.722C91.5691 144.297 90.8452 145.096 90.2916 146.118C89.7593 147.119 89.4931 148.247 89.4931 149.503C89.4931 150.759 89.7699 151.899 90.3235 152.921C90.8771 153.943 91.6117 154.762 92.5272 155.38C93.4428 155.976 94.4542 156.274 95.5614 156.274C96.2853 156.274 96.9879 156.146 97.6693 155.891C98.3506 155.635 98.9361 155.295 99.4259 154.869C99.9156 154.422 100.246 153.943 100.416 153.432L102.556 154.07C102.258 154.858 101.768 155.571 101.087 156.21C100.405 156.828 99.5962 157.317 98.6593 157.679C97.7225 158.02 96.7218 158.19 95.6572 158.19ZM114.272 143.148C112.824 143.19 111.546 143.595 110.439 144.361C109.353 145.128 108.587 146.182 108.139 147.523V157.871H105.968V141.231H108.012V145.224C108.587 144.052 109.342 143.105 110.279 142.381C111.237 141.657 112.249 141.253 113.313 141.167C113.526 141.146 113.707 141.135 113.856 141.135C114.005 141.135 114.144 141.146 114.272 141.167V143.148ZM117.165 137.75V134.556H119.336V137.75H117.165ZM117.165 157.871V141.231H119.336V157.871H117.165ZM132.615 158.19C131.231 158.19 129.986 157.828 128.879 157.104C127.793 156.381 126.93 155.486 126.292 154.422V164.674H124.12V141.231H126.068V144.457C126.728 143.414 127.601 142.573 128.687 141.934C129.794 141.274 130.987 140.944 132.264 140.944C133.414 140.944 134.468 141.189 135.426 141.678C136.384 142.147 137.214 142.786 137.917 143.595C138.641 144.404 139.195 145.33 139.578 146.373C139.961 147.395 140.153 148.46 140.153 149.567C140.153 151.121 139.833 152.559 139.195 153.879C138.577 155.178 137.694 156.221 136.544 157.009C135.415 157.796 134.106 158.19 132.615 158.19ZM132.009 156.274C133.222 156.274 134.266 155.955 135.139 155.316C136.033 154.656 136.725 153.815 137.214 152.793C137.704 151.771 137.949 150.696 137.949 149.567C137.949 148.375 137.672 147.268 137.119 146.246C136.565 145.224 135.82 144.404 134.883 143.786C133.967 143.169 132.924 142.86 131.753 142.86C131.029 142.86 130.263 143.052 129.454 143.435C128.666 143.797 127.963 144.297 127.346 144.936C126.749 145.554 126.398 146.235 126.292 146.98V152.09C126.781 153.261 127.548 154.251 128.591 155.06C129.635 155.87 130.774 156.274 132.009 156.274ZM151.567 157.073C151.311 157.179 150.843 157.371 150.161 157.647C149.48 157.924 148.692 158.063 147.798 158.063C146.861 158.063 146.041 157.796 145.339 157.264C144.636 156.732 144.285 155.933 144.285 154.869V142.956H141.985V141.231H144.285V135.61H146.457V141.231H150.289V142.956H146.457V154.262C146.499 154.879 146.712 155.337 147.095 155.635C147.5 155.912 147.958 156.051 148.469 156.051C149.065 156.051 149.597 155.955 150.066 155.763C150.555 155.55 150.864 155.401 150.992 155.316L151.567 157.073Z" fill="#FBFBFE"/>
</g>
<circle cx="323.513" cy="147.389" r="17.7433" fill="#C4C4C4"/>
<circle cx="387.389" cy="147.389" r="17.7433" fill="#465967"/>
<circle cx="451.265" cy="147.389" r="17.7433" fill="#465967"/>
<circle cx="515.141" cy="147.389" r="17.7433" fill="#465967"/>
<circle cx="579.017" cy="147.389" r="17.7433" fill="#465967"/>
</g>
<g clip-path="url(#clip3_1_154)">
<path d="M1.67062 243.745C2.11776 244.065 2.70329 244.341 3.42721 244.576C4.17243 244.81 5.02411 244.927 5.98225 244.927C7.08944 244.927 7.9837 244.746 8.66505 244.384C9.34639 244.001 9.86804 243.436 10.23 242.691C10.592 241.925 10.8368 240.977 10.9646 239.849C11.0923 238.72 11.1562 237.4 11.1562 235.888V223.912H13.3919V235.441C13.3919 237.145 13.3067 238.699 13.1364 240.104C12.966 241.51 12.636 242.723 12.1463 243.745C11.6566 244.767 10.922 245.555 9.94257 246.109C8.96313 246.662 7.66432 246.939 6.04613 246.939C5.00282 246.939 4.07662 246.822 3.26752 246.588C2.45843 246.353 1.71321 246.002 1.03186 245.534L1.67062 243.745ZM16.7656 241.797C16.7656 240.754 17.0637 239.859 17.6598 239.114C18.256 238.348 19.0758 237.762 20.1191 237.358C21.1837 236.932 22.408 236.719 23.7919 236.719C24.601 236.719 25.4421 236.783 26.315 236.91C27.188 237.038 27.9652 237.23 28.6465 237.485V236.08C28.6465 234.675 28.2313 233.557 27.4009 232.727C26.5705 231.896 25.4208 231.481 23.9516 231.481C23.0574 231.481 22.1737 231.651 21.3008 231.992C20.4491 232.311 19.5548 232.79 18.618 233.429L17.7876 231.896C18.8735 231.151 19.9381 230.597 20.9814 230.235C22.0247 229.852 23.0893 229.661 24.1752 229.661C26.2192 229.661 27.8374 230.246 29.0298 231.417C30.2221 232.588 30.8183 234.206 30.8183 236.272V243.969C30.8183 244.267 30.8822 244.49 31.0099 244.639C31.1377 244.767 31.3399 244.842 31.6167 244.863V246.588C31.3825 246.609 31.1803 246.63 31.0099 246.652C30.8396 246.673 30.7118 246.673 30.6267 246.652C30.0944 246.63 29.6898 246.46 29.413 246.141C29.1362 245.821 28.9872 245.48 28.9659 245.118L28.9339 243.905C28.1887 244.863 27.2199 245.608 26.0276 246.141C24.8352 246.652 23.6216 246.907 22.3867 246.907C21.3221 246.907 20.3533 246.683 19.4803 246.236C18.6286 245.768 17.9579 245.15 17.4682 244.384C16.9998 243.596 16.7656 242.734 16.7656 241.797ZM27.9119 243.074C28.1461 242.776 28.3271 242.489 28.4549 242.212C28.5826 241.935 28.6465 241.69 28.6465 241.478V239.05C27.9226 238.773 27.1667 238.561 26.3789 238.412C25.6124 238.262 24.8352 238.188 24.0474 238.188C22.4931 238.188 21.2369 238.497 20.2788 239.114C19.3206 239.732 18.8415 240.573 18.8415 241.637C18.8415 242.255 19.0012 242.84 19.3206 243.394C19.64 243.926 20.1084 244.373 20.7259 244.735C21.3434 245.076 22.0673 245.246 22.8977 245.246C23.941 245.246 24.9098 245.044 25.804 244.639C26.7196 244.235 27.4222 243.713 27.9119 243.074ZM39.962 246.588L33.2231 229.948H35.4907L41.1757 244.416L46.8926 229.948H49.0324L42.2935 246.588H39.962ZM50.2942 241.797C50.2942 240.754 50.5923 239.859 51.1885 239.114C51.7847 238.348 52.6044 237.762 53.6477 237.358C54.7123 236.932 55.9366 236.719 57.3206 236.719C58.1297 236.719 58.9707 236.783 59.8437 236.91C60.7167 237.038 61.4938 237.23 62.1752 237.485V236.08C62.1752 234.675 61.76 233.557 60.9296 232.727C60.0992 231.896 58.9494 231.481 57.4803 231.481C56.586 231.481 55.7024 231.651 54.8294 231.992C53.9778 232.311 53.0835 232.79 52.1466 233.429L51.3163 231.896C52.4021 231.151 53.4667 230.597 54.5101 230.235C55.5534 229.852 56.618 229.661 57.7039 229.661C59.7479 229.661 61.3661 230.246 62.5584 231.417C63.7508 232.588 64.347 234.206 64.347 236.272V243.969C64.347 244.267 64.4108 244.49 64.5386 244.639C64.6663 244.767 64.8686 244.842 65.1454 244.863V246.588C64.9112 246.609 64.7089 246.63 64.5386 246.652C64.3682 246.673 64.2405 246.673 64.1553 246.652C63.623 246.63 63.2185 246.46 62.9417 246.141C62.6649 245.821 62.5158 245.48 62.4946 245.118L62.4626 243.905C61.7174 244.863 60.7486 245.608 59.5563 246.141C58.3639 246.652 57.1503 246.907 55.9153 246.907C54.8507 246.907 53.8819 246.683 53.009 246.236C52.1573 245.768 51.4866 245.15 50.9969 244.384C50.5284 243.596 50.2942 242.734 50.2942 241.797ZM61.4406 243.074C61.6748 242.776 61.8558 242.489 61.9835 242.212C62.1113 241.935 62.1752 241.69 62.1752 241.478V239.05C61.4512 238.773 60.6954 238.561 59.9076 238.412C59.1411 238.262 58.3639 238.188 57.5761 238.188C56.0218 238.188 54.7656 238.497 53.8074 239.114C52.8493 239.732 52.3702 240.573 52.3702 241.637C52.3702 242.255 52.5299 242.84 52.8493 243.394C53.1687 243.926 53.6371 244.373 54.2545 244.735C54.872 245.076 55.5959 245.246 56.4263 245.246C57.4696 245.246 58.4384 245.044 59.3327 244.639C60.2482 244.235 60.9509 243.713 61.4406 243.074Z" fill="#FBFBFE"/>
<path d="M340.757 236.105C340.757 246.142 333.014 254.236 323.513 254.236C314.013 254.236 306.27 246.142 306.27 236.105C306.27 226.069 314.013 217.975 323.513 217.975C333.014 217.975 340.757 226.069 340.757 236.105Z" fill="#C4C4C4" stroke="black"/>
<path d="M404.632 236.105C404.632 246.142 396.889 254.236 387.389 254.236C377.888 254.236 370.146 246.142 370.146 236.105C370.146 226.069 377.888 217.975 387.389 217.975C396.889 217.975 404.632 226.069 404.632 236.105Z" fill="#C4C4C4" stroke="black"/>
<path d="M468.508 236.105C468.508 246.142 460.765 254.236 451.265 254.236C441.764 254.236 434.021 246.142 434.021 236.105C434.021 226.069 441.764 217.975 451.265 217.975C460.765 217.975 468.508 226.069 468.508 236.105Z" fill="#465967" stroke="black"/>
<path d="M532.384 236.105C532.384 246.142 524.641 254.236 515.14 254.236C505.64 254.236 497.897 246.142 497.897 236.105C497.897 226.069 505.64 217.975 515.14 217.975C524.641 217.975 532.384 226.069 532.384 236.105Z" fill="#465967" stroke="black"/>
<path d="M596.26 236.105C596.26 246.142 588.518 254.236 579.017 254.236C569.517 254.236 561.774 246.142 561.774 236.105C561.774 226.069 569.517 217.975 579.017 217.975C588.518 217.975 596.26 226.069 596.26 236.105Z" fill="#465967" stroke="black"/>
</g>
<g clip-path="url(#clip4_1_154)">
<path d="M3.70015 323.807C3.70015 322.444 3.93436 321.092 4.40278 319.751C4.8925 318.409 5.59513 317.195 6.51069 316.11C7.42625 315.002 8.55472 314.129 9.89612 313.491C11.2375 312.831 12.7599 312.501 14.4633 312.501C16.4647 312.501 18.1894 312.969 19.6372 313.906C21.0851 314.821 22.1497 316.003 22.831 317.451L21.0744 318.537C20.5847 317.536 19.9672 316.748 19.222 316.173C18.4768 315.577 17.6783 315.151 16.8267 314.896C15.9963 314.64 15.1659 314.513 14.3355 314.513C12.9728 314.513 11.7698 314.789 10.7265 315.343C9.6832 315.875 8.79958 316.599 8.07565 317.515C7.37302 318.43 6.84072 319.442 6.47875 320.549C6.11679 321.656 5.93581 322.785 5.93581 323.934C5.93581 325.191 6.14873 326.394 6.57457 327.543C7.00041 328.672 7.59658 329.683 8.36309 330.577C9.12961 331.472 10.0239 332.185 11.0459 332.717C12.0892 333.228 13.2177 333.484 14.4313 333.484C15.283 333.484 16.156 333.335 17.0502 333.037C17.9445 332.739 18.7749 332.281 19.5414 331.663C20.3079 331.046 20.936 330.247 21.4257 329.268L23.2781 330.226C22.7884 331.355 22.0539 332.313 21.0744 333.101C20.1163 333.888 19.0304 334.485 17.8167 334.889C16.6244 335.294 15.4533 335.496 14.3036 335.496C12.7492 335.496 11.3227 335.166 10.0239 334.506C8.72506 333.825 7.59658 332.93 6.63844 331.823C5.70159 330.695 4.97767 329.438 4.46666 328.054C3.95565 326.649 3.70015 325.233 3.70015 323.807ZM40.3505 316.876C39.7117 316.173 38.8601 315.599 37.7955 315.151C36.7309 314.683 35.5172 314.449 34.1545 314.449C32.1531 314.449 30.6946 314.832 29.779 315.599C28.8635 316.344 28.4057 317.366 28.4057 318.665C28.4057 319.559 28.6293 320.262 29.0764 320.773C29.5235 321.284 30.2049 321.709 31.1204 322.05C32.0573 322.369 33.2496 322.689 34.6975 323.008C36.3157 323.349 37.7103 323.753 38.8814 324.222C40.0524 324.69 40.9573 325.329 41.5961 326.138C42.2348 326.926 42.5542 328.001 42.5542 329.364C42.5542 330.748 42.2029 331.898 41.5003 332.813C40.7976 333.729 39.8288 334.41 38.5939 334.857C37.359 335.283 35.9537 335.496 34.3781 335.496C30.8436 335.496 27.8095 334.399 25.2758 332.206L26.3936 330.386C27.2027 331.238 28.3099 331.972 29.7151 332.59C31.1417 333.207 32.7173 333.516 34.442 333.516C36.2305 333.516 37.6358 333.186 38.6578 332.526C39.6798 331.866 40.1908 330.886 40.1908 329.587C40.1908 328.651 39.9353 327.905 39.4243 327.352C38.9133 326.777 38.1468 326.308 37.1248 325.946C36.1027 325.585 34.8465 325.233 33.3561 324.893C31.7805 324.531 30.4497 324.126 29.3638 323.679C28.2992 323.232 27.4901 322.646 26.9365 321.922C26.3829 321.198 26.1062 320.219 26.1062 318.984C26.1062 317.579 26.4468 316.397 27.1282 315.439C27.8308 314.459 28.7889 313.725 30.0026 313.235C31.2162 312.724 32.6109 312.469 34.1865 312.469C35.6769 312.469 37.0183 312.703 38.2107 313.171C39.403 313.618 40.4783 314.257 41.4364 315.088L40.3505 316.876ZM59.7503 316.876C59.1116 316.173 58.2599 315.599 57.1953 315.151C56.1307 314.683 54.9171 314.449 53.5544 314.449C51.5529 314.449 50.0944 314.832 49.1789 315.599C48.2633 316.344 47.8055 317.366 47.8055 318.665C47.8055 319.559 48.0291 320.262 48.4762 320.773C48.9234 321.284 49.6047 321.709 50.5203 322.05C51.4571 322.369 52.6495 322.689 54.0973 323.008C55.7155 323.349 57.1101 323.753 58.2812 324.222C59.4523 324.69 60.3572 325.329 60.9959 326.138C61.6347 326.926 61.9541 328.001 61.9541 329.364C61.9541 330.748 61.6027 331.898 60.9001 332.813C60.1975 333.729 59.2287 334.41 57.9938 334.857C56.7588 335.283 55.3535 335.496 53.7779 335.496C50.2435 335.496 47.2094 334.399 44.6756 332.206L45.7934 330.386C46.6025 331.238 47.7097 331.972 49.115 332.59C50.5415 333.207 52.1172 333.516 53.8418 333.516C55.6303 333.516 57.0356 333.186 58.0576 332.526C59.0796 331.866 59.5906 330.886 59.5906 329.587C59.5906 328.651 59.3351 327.905 58.8241 327.352C58.3131 326.777 57.5466 326.308 56.5246 325.946C55.5026 325.585 54.2464 325.233 52.7559 324.893C51.1803 324.531 49.8496 324.126 48.7637 323.679C47.6991 323.232 46.89 322.646 46.3364 321.922C45.7828 321.198 45.506 320.219 45.506 318.984C45.506 317.579 45.8467 316.397 46.528 315.439C47.2306 314.459 48.1888 313.725 49.4024 313.235C50.6161 312.724 52.0107 312.469 53.5863 312.469C55.0767 312.469 56.4181 312.703 57.6105 313.171C58.8028 313.618 59.8781 314.257 60.8362 315.088L59.7503 316.876Z" fill="#FBFBFE"/>
<circle cx="321.739" cy="324.822" r="17.7433" fill="#C4C4C4"/>
<circle cx="385.616" cy="324.822" r="17.7433" fill="#465967"/>
<circle cx="449.491" cy="324.822" r="17.7433" fill="#465967"/>
<circle cx="513.367" cy="324.822" r="17.7433" fill="#465967"/>
<circle cx="577.243" cy="324.822" r="17.7433" fill="#465967"/>
</g>
<g clip-path="url(#clip5_1_154)">
<path d="M23.0865 401.345V424.021H20.8828V413.418H7.43689V424.021H5.20123V401.345H7.43689V411.437H20.8828V401.345H23.0865ZM44.8772 403.325H36.7969V424.021H34.5612V403.325H26.4809V401.345H44.8772V403.325ZM68.3629 424.021V405.561L60.1548 419.901H58.7495L50.5095 405.561V424.021H48.2739V401.345H50.5734L59.4202 416.867L68.3309 401.345H70.5985V424.021H68.3629ZM76.282 424.021V401.345H78.5177V422.041H91.6122V424.021H76.282Z" fill="#FBFBFE"/>
<circle cx="321.739" cy="413.539" r="17.7433" fill="#C4C4C4"/>
<path d="M403.359 413.538C403.359 423.338 395.415 431.282 385.616 431.282C375.816 431.282 367.872 423.338 367.872 413.538C367.872 403.739 375.816 395.795 385.616 395.795C395.415 395.795 403.359 403.739 403.359 413.538Z" fill="#465967"/>
<circle cx="449.491" cy="413.539" r="17.7433" fill="#465967"/>
<circle cx="513.367" cy="413.539" r="17.7433" fill="#465967"/>
<circle cx="577.243" cy="413.539" r="17.7433" fill="#465967"/>
</g>
<g clip-path="url(#clip6_1_154)">
<path d="M3.42721 512.738V490.062H12.817C13.7964 490.062 14.6907 490.264 15.4998 490.669C16.3302 491.073 17.0434 491.627 17.6396 492.329C18.2358 493.011 18.7042 493.777 19.0449 494.629C19.3856 495.459 19.5559 496.311 19.5559 497.184C19.5559 498.419 19.2791 499.59 18.7255 500.697C18.1932 501.783 17.4374 502.667 16.4579 503.348C15.4785 504.029 14.3287 504.37 13.0086 504.37H5.66287V512.738H3.42721ZM5.66287 502.39H12.9128C13.8071 502.39 14.5842 502.145 15.2443 501.655C15.9043 501.165 16.4153 500.527 16.7773 499.739C17.1393 498.951 17.3202 498.099 17.3202 497.184C17.3202 496.247 17.1073 495.385 16.6815 494.597C16.2556 493.809 15.6914 493.192 14.9888 492.744C14.3074 492.276 13.5516 492.042 12.7212 492.042H5.66287V502.39ZM41.1802 490.062V512.738H38.9765V502.134H25.5306V512.738H23.2949V490.062H25.5306V500.154H38.9765V490.062H41.1802ZM46.8741 512.738V490.062H56.2639C57.2433 490.062 58.1376 490.264 58.9467 490.669C59.7771 491.073 60.4904 491.627 61.0865 492.329C61.6827 493.011 62.1511 493.777 62.4918 494.629C62.8325 495.459 63.0028 496.311 63.0028 497.184C63.0028 498.419 62.726 499.59 62.1724 500.697C61.6401 501.783 60.8843 502.667 59.9048 503.348C58.9254 504.029 57.7756 504.37 56.4555 504.37H49.1098V512.738H46.8741ZM49.1098 502.39H56.3597C57.254 502.39 58.0311 502.145 58.6912 501.655C59.3512 501.165 59.8622 500.527 60.2242 499.739C60.5862 498.951 60.7672 498.099 60.7672 497.184C60.7672 496.247 60.5542 495.385 60.1284 494.597C59.7026 493.809 59.1383 493.192 58.4357 492.744C57.7543 492.276 56.9985 492.042 56.1681 492.042H49.1098V502.39Z" fill="#FBFBFE"/>
<circle cx="323.513" cy="502.255" r="17.7433" fill="#465967"/>
<circle cx="387.389" cy="502.256" r="17.7433" fill="#465967"/>
<circle cx="451.265" cy="502.256" r="17.7433" fill="#465967"/>
<circle cx="515.141" cy="502.256" r="17.7433" fill="#465967"/>
<circle cx="579.017" cy="502.256" r="17.7433" fill="#465967"/>
</g>
</g>
<defs>
<clipPath id="clip0_1_154">
<rect width="596.176" height="393.902" fill="white" transform="translate(0.584732 127.871)"/>
</clipPath>
<clipPath id="clip1_1_154">
<rect width="596.176" height="39.0353" fill="white" transform="translate(0.584732 127.871)"/>
</clipPath>
<clipPath id="clip2_1_154">
<rect width="266.15" height="39.0353" fill="white" transform="translate(0.584732 127.871)"/>
</clipPath>
<clipPath id="clip3_1_154">
<rect width="596.176" height="39.0353" fill="white" transform="translate(0.584732 216.588)"/>
</clipPath>
<clipPath id="clip4_1_154">
<rect width="592.628" height="39.0353" fill="white" transform="translate(2.35875 305.304)"/>
</clipPath>
<clipPath id="clip5_1_154">
<rect width="592.628" height="39.0353" fill="white" transform="translate(2.35875 394.021)"/>
</clipPath>
<clipPath id="clip6_1_154">
<rect width="596.176" height="39.0353" fill="white" transform="translate(0.584732 482.738)"/>
</clipPath>
</defs>
</svg>
