<svg width="594" height="65" viewBox="0 0 594 65" fill="none" xmlns="http://www.w3.org/2000/svg">
<g clip-path="url(#clip0_1_148)">
<path d="M19.029 2.17894H44.847C54.3596 2.17894 62.1016 9.9209 62.1017 19.4336V45.2516C62.1017 54.7643 54.3597 62.5063 44.847 62.5063H19.029C9.51631 62.5063 1.77433 54.7643 1.77433 45.2516V19.4336C1.77433 9.92091 9.51631 2.17894 19.029 2.17894ZM44.847 59.629C52.7874 59.629 59.2244 53.192 59.2244 45.2516V19.4336C59.2244 11.4931 52.7874 5.05619 44.847 5.05619H19.029C11.0886 5.05619 4.65159 11.4931 4.65159 19.4336V45.2516C4.65159 53.192 11.0886 59.629 19.029 59.629H44.847Z" fill="#2A3B47" stroke="#FBFBFE" stroke-width="3.54867"/>
<path d="M17.1911 32.3421C17.1911 24.2127 23.8078 17.5959 31.9374 17.5959C40.0669 17.5959 46.6836 24.2126 46.6836 32.3421C46.6836 40.4716 40.0669 47.0884 31.9374 47.0884C23.8078 47.0884 17.1911 40.4715 17.1911 32.3421ZM20.0683 32.3422C20.0683 38.8973 25.3822 44.2112 31.9374 44.2112C38.4924 44.2112 43.8064 38.8972 43.8064 32.3422C43.8064 25.7871 38.4925 20.4732 31.9374 20.4732C25.3824 20.4732 20.0683 25.7871 20.0683 32.3422Z" fill="#2A3B47" stroke="#FBFBFE" stroke-width="3.54867"/>
<path d="M50.6745 15.9455C50.6745 17.1519 49.6966 18.1298 48.4902 18.1298C47.2838 18.1298 46.3058 17.1519 46.3058 15.9455C46.3058 14.7391 47.2838 13.7611 48.4902 13.7611C49.6965 13.7611 50.6745 14.7391 50.6745 15.9455Z" fill="#2A3B47" stroke="#FBFBFE" stroke-width="3.54867"/>
<path d="M105.583 23.5663C107.159 23.5663 108.639 23.8644 110.023 24.4606C111.428 25.0355 112.663 25.8659 113.728 26.9518C114.814 28.0164 115.665 29.2939 116.283 30.7843C116.9 32.2748 117.209 33.9249 117.209 35.7347C117.209 36.0967 117.177 36.5864 117.113 37.2039C117.071 37.8213 116.964 38.4814 116.794 39.184C116.623 39.8867 116.368 40.5574 116.027 41.1961C115.708 41.8136 115.261 42.3246 114.686 42.7291C114.111 43.1337 113.398 43.336 112.546 43.336C111.843 43.336 111.3 43.1976 110.917 42.9208C110.555 42.644 110.3 42.282 110.151 41.8349C110.023 41.3877 109.927 40.9087 109.863 40.3977C109.288 41.0151 108.522 41.5474 107.564 41.9946C106.627 42.4417 105.594 42.6653 104.466 42.6653C102.954 42.6653 101.772 42.2607 100.921 41.4516C100.09 40.6425 99.6749 39.6205 99.6749 38.3856C99.6749 37.2997 99.973 36.448 100.569 35.8305C101.165 35.2131 101.911 34.7766 102.805 34.5211C103.72 34.2443 104.647 34.1059 105.583 34.1059C106.52 34.1059 107.34 34.2017 108.043 34.3933C108.767 34.5637 109.299 34.7127 109.64 34.8405C109.64 33.8184 109.522 32.9242 109.288 32.1577C109.075 31.3911 108.681 30.795 108.107 30.3691C107.532 29.922 106.723 29.6984 105.679 29.6984C104.849 29.6984 104.05 29.8368 103.284 30.1136C102.517 30.3691 101.825 30.7311 101.208 31.1995L100.633 29.9539C101.4 29.4429 102.219 29.0384 103.092 28.7403C103.965 28.4422 104.891 28.2932 105.871 28.2932C107.063 28.2932 108 28.4848 108.681 28.868C109.384 29.2513 109.906 29.773 110.246 30.433C110.587 31.0718 110.811 31.7744 110.917 32.5409C111.024 33.3074 111.077 34.0739 111.077 34.8405V38.9605C111.077 39.5779 111.109 40.1315 111.173 40.6212C111.258 41.1109 111.417 41.4942 111.652 41.771C111.886 42.0265 112.248 42.1543 112.738 42.1543C113.398 42.1543 113.941 41.9307 114.366 41.4836C114.814 41.0364 115.154 40.4722 115.388 39.7908C115.644 39.1095 115.814 38.3962 115.899 37.651C116.006 36.9058 116.059 36.2457 116.059 35.6708C116.059 34.1165 115.793 32.6793 115.261 31.3592C114.75 30.0178 114.015 28.8468 113.057 27.846C112.099 26.8453 110.981 26.0681 109.703 25.5146C108.426 24.9397 107.042 24.6522 105.552 24.6522C104.082 24.6522 102.709 24.9184 101.432 25.4507C100.154 25.983 99.0255 26.7388 98.0461 27.7183C97.0667 28.6764 96.3002 29.8262 95.7466 31.1676C95.193 32.4877 94.9162 33.9249 94.9162 35.4792C94.9162 36.9909 95.1717 38.4069 95.6827 39.727C96.215 41.0471 96.9496 42.2075 97.8864 43.2082C98.8445 44.2089 99.9624 44.9861 101.24 45.5397C102.517 46.1146 103.901 46.402 105.392 46.402C106.286 46.402 107.127 46.2849 107.915 46.0507C108.703 45.8378 109.491 45.5503 110.278 45.1884L110.694 46.2104C109.842 46.6362 108.958 46.9556 108.043 47.1685C107.148 47.3814 106.254 47.4879 105.36 47.4879C103.763 47.4879 102.262 47.1898 100.857 46.5936C99.4727 45.9975 98.2484 45.1564 97.1838 44.0705C96.1192 43.0059 95.2781 41.7391 94.6607 40.2699C94.0645 38.8008 93.7664 37.2039 93.7664 35.4792C93.7664 33.6694 94.0858 32.0406 94.7245 30.5927C95.3846 29.1235 96.2682 27.8673 97.3754 26.824C98.4826 25.7807 99.7388 24.9823 101.144 24.4287C102.571 23.8538 104.05 23.5663 105.583 23.5663ZM107.532 40.5893C108.128 40.3125 108.575 40.0038 108.873 39.6631C109.171 39.3011 109.363 38.9179 109.448 38.5133C109.554 38.1088 109.608 37.7149 109.608 37.3316V36.0541C109.331 36.0328 108.83 35.9157 108.107 35.7028C107.404 35.4686 106.542 35.3515 105.52 35.3515C104.774 35.3515 104.061 35.4366 103.38 35.607C102.72 35.7773 102.177 36.086 101.751 36.5332C101.346 36.959 101.144 37.5552 101.144 38.3217C101.144 38.9179 101.293 39.4395 101.591 39.8867C101.889 40.3338 102.294 40.6851 102.805 40.9406C103.316 41.1748 103.901 41.2919 104.561 41.2919C105.072 41.2919 105.594 41.2281 106.126 41.1003C106.659 40.9513 107.127 40.7809 107.532 40.5893ZM121.837 42.825V20.149H129.534C131.94 20.149 133.942 20.66 135.539 21.682C137.157 22.6827 138.37 24.0454 139.179 25.7701C139.989 27.4734 140.393 29.3684 140.393 31.455C140.393 33.7546 139.946 35.756 139.052 37.4594C138.179 39.1627 136.923 40.4828 135.283 41.4197C133.665 42.3565 131.749 42.825 129.534 42.825H121.837ZM138.157 31.455C138.157 29.6452 137.817 28.0377 137.135 26.6324C136.475 25.2271 135.507 24.1306 134.229 23.3428C132.952 22.5337 131.387 22.1291 129.534 22.1291H124.073V40.8448H129.534C131.408 40.8448 132.984 40.4296 134.261 39.5992C135.539 38.7688 136.507 37.651 137.167 36.2457C137.827 34.8192 138.157 33.2223 138.157 31.455ZM151.407 43.1443C150.214 43.1443 149.107 42.9208 148.085 42.4736C147.063 42.0052 146.18 41.3771 145.434 40.5893C144.689 39.7802 144.104 38.854 143.678 37.8107C143.273 36.7674 143.071 35.6495 143.071 34.4572C143.071 32.9029 143.422 31.4763 144.125 30.1775C144.849 28.8787 145.839 27.846 147.095 27.0795C148.351 26.2917 149.778 25.8978 151.375 25.8978C153.014 25.8978 154.441 26.2917 155.655 27.0795C156.889 27.8673 157.858 28.9106 158.561 30.2094C159.264 31.487 159.615 32.8922 159.615 34.4253C159.615 34.5956 159.615 34.7659 159.615 34.9363C159.615 35.0853 159.604 35.2024 159.583 35.2876H145.339C145.445 36.4799 145.775 37.5445 146.329 38.4814C146.904 39.3969 147.638 40.1315 148.532 40.6851C149.448 41.2174 150.438 41.4836 151.503 41.4836C152.588 41.4836 153.61 41.2068 154.569 40.6532C155.548 40.0996 156.229 39.3756 156.613 38.4814L158.497 38.9924C158.156 39.7802 157.635 40.4935 156.932 41.1322C156.229 41.771 155.399 42.2714 154.441 42.6333C153.504 42.974 152.493 43.1443 151.407 43.1443ZM145.275 33.7226H157.571C157.486 32.509 157.156 31.4444 156.581 30.5288C156.027 29.6133 155.293 28.9 154.377 28.389C153.483 27.8567 152.493 27.5905 151.407 27.5905C150.321 27.5905 149.331 27.8567 148.437 28.389C147.542 28.9 146.808 29.6239 146.233 30.5608C145.679 31.4763 145.36 32.5303 145.275 33.7226ZM162.966 42.825V26.1853H165.137V42.825H162.966ZM162.966 22.704V19.5102H165.137V22.704H162.966ZM174.871 42.825L168.132 26.1853H170.4L176.085 40.6532L181.802 26.1853H183.942L177.203 42.825H174.871ZM186.95 42.825V26.1853H189.122V42.825H186.95ZM186.95 22.704V19.5102H189.122V22.704H186.95ZM192.788 34.553C192.788 32.9774 193.107 31.5402 193.746 30.2414C194.406 28.9213 195.311 27.8673 196.461 27.0795C197.61 26.2917 198.92 25.8978 200.389 25.8978C201.773 25.8978 203.008 26.2704 204.094 27.0156C205.201 27.7396 206.063 28.6232 206.681 29.6665V19.5102H208.852V40.206C208.852 40.5041 208.916 40.7277 209.044 40.8767C209.172 41.0045 209.364 41.079 209.619 41.1003V42.825C209.193 42.8888 208.863 42.9101 208.629 42.8888C208.182 42.8675 207.788 42.6866 207.447 42.3459C207.107 42.0052 206.936 41.6326 206.936 41.2281V39.5992C206.276 40.6851 205.382 41.5474 204.253 42.1862C203.125 42.825 201.954 43.1443 200.74 43.1443C199.59 43.1443 198.526 42.9101 197.546 42.4417C196.588 41.9733 195.747 41.3345 195.023 40.5254C194.321 39.7163 193.767 38.8008 193.363 37.7787C192.979 36.7354 192.788 35.6602 192.788 34.553ZM206.681 37.108V31.966C206.404 31.1995 205.957 30.5075 205.339 29.8901C204.722 29.2513 204.019 28.7509 203.231 28.389C202.465 28.0057 201.698 27.8141 200.932 27.8141C200.038 27.8141 199.229 28.0057 198.505 28.389C197.781 28.7509 197.153 29.2513 196.62 29.8901C196.109 30.5288 195.715 31.2527 195.439 32.0618C195.162 32.8709 195.023 33.7013 195.023 34.553C195.023 35.4473 195.172 36.299 195.47 37.108C195.79 37.9171 196.237 38.6411 196.812 39.2798C197.387 39.8973 198.047 40.3764 198.792 40.717C199.537 41.0577 200.346 41.2281 201.219 41.2281C201.773 41.2281 202.348 41.1216 202.944 40.9087C203.54 40.6958 204.104 40.4083 204.637 40.0463C205.19 39.6631 205.648 39.216 206.01 38.7049C206.372 38.1939 206.596 37.6616 206.681 37.108ZM218.724 42.825L211.985 26.1853H214.252L219.937 40.6532L225.654 26.1853H227.794L221.055 42.825H218.724ZM237.427 43.1443C236.235 43.1443 235.128 42.9208 234.106 42.4736C233.084 42.0052 232.2 41.3771 231.455 40.5893C230.71 39.7802 230.124 38.854 229.698 37.8107C229.294 36.7674 229.091 35.6495 229.091 34.4572C229.091 32.9029 229.443 31.4763 230.145 30.1775C230.869 28.8787 231.859 27.846 233.116 27.0795C234.372 26.2917 235.798 25.8978 237.395 25.8978C239.035 25.8978 240.461 26.2917 241.675 27.0795C242.91 27.8673 243.879 28.9106 244.581 30.2094C245.284 31.487 245.635 32.8922 245.635 34.4253C245.635 34.5956 245.635 34.7659 245.635 34.9363C245.635 35.0853 245.625 35.2024 245.603 35.2876H231.359C231.466 36.4799 231.796 37.5445 232.349 38.4814C232.924 39.3969 233.659 40.1315 234.553 40.6851C235.468 41.2174 236.458 41.4836 237.523 41.4836C238.609 41.4836 239.631 41.2068 240.589 40.6532C241.569 40.0996 242.25 39.3756 242.633 38.4814L244.518 38.9924C244.177 39.7802 243.655 40.4935 242.953 41.1322C242.25 41.771 241.42 42.2714 240.461 42.6333C239.525 42.974 238.513 43.1443 237.427 43.1443ZM231.295 33.7226H243.591C243.506 32.509 243.176 31.4444 242.601 30.5288C242.048 29.6133 241.313 28.9 240.398 28.389C239.503 27.8567 238.513 27.5905 237.427 27.5905C236.341 27.5905 235.351 27.8567 234.457 28.389C233.563 28.9 232.828 29.6239 232.253 30.5608C231.7 31.4763 231.38 32.5303 231.295 33.7226ZM249.082 19.5102H251.254V39.0563C251.254 39.8867 251.403 40.4296 251.701 40.6851C251.999 40.9406 252.361 41.0684 252.787 41.0684C253.17 41.0684 253.553 41.0258 253.936 40.9406C254.32 40.8554 254.65 40.7703 254.927 40.6851L255.31 42.4417C254.905 42.612 254.405 42.7504 253.809 42.8569C253.234 42.9633 252.733 43.0166 252.308 43.0166C251.328 43.0166 250.54 42.7291 249.944 42.1543C249.369 41.5794 249.082 40.7916 249.082 39.7908V19.5102ZM257.688 42.825V26.1853H259.86V42.825H257.688ZM257.688 22.704V19.5102H259.86V22.704H257.688ZM263.238 41.3558L274.384 27.8141H263.493V26.1853H276.843V27.6544L265.761 41.1961H276.812V42.825H263.238V41.3558ZM279.117 32.3812C279.117 33.8078 279.458 35.1066 280.139 36.2777C280.842 37.4274 281.789 38.343 282.982 39.0243C284.174 39.7057 285.483 40.0463 286.91 40.0463C287.889 40.0463 288.794 39.876 289.625 39.5353C290.455 39.1947 291.19 38.7156 291.828 38.0981C292.467 37.4594 292.936 36.7354 293.234 35.9263C293.212 38.013 292.936 39.7908 292.403 41.26C291.892 42.7291 291.168 43.8576 290.232 44.6454C289.316 45.4332 288.219 45.8271 286.942 45.8271C285.771 45.8271 284.696 45.4971 283.716 44.837C282.737 44.177 282.023 43.3147 281.576 42.2501L280.171 43.5276C280.789 44.8264 281.693 45.8484 282.886 46.5936C284.099 47.3601 285.451 47.7434 286.942 47.7434C288.603 47.7434 290.061 47.243 291.317 46.2423C292.574 45.2416 293.553 43.7405 294.256 41.7391C294.958 39.7163 295.31 37.1613 295.31 34.0739C295.31 32.0938 294.958 30.4011 294.256 28.9958C293.574 27.5692 292.616 26.4833 291.381 25.7381C290.168 24.9716 288.762 24.5884 287.165 24.5884C285.675 24.5884 284.312 24.9397 283.077 25.6423C281.864 26.3449 280.895 27.2818 280.171 28.4529C279.468 29.6239 279.117 30.9334 279.117 32.3812ZM287.134 26.5046C288.198 26.5046 289.178 26.7708 290.072 27.3031C290.987 27.8354 291.711 28.5487 292.244 29.4429C292.776 30.3372 293.042 31.3166 293.042 32.3812C293.042 33.4458 292.776 34.4253 292.244 35.3195C291.711 36.2138 290.998 36.9271 290.104 37.4594C289.209 37.9917 288.219 38.2578 287.134 38.2578C286.069 38.2578 285.079 37.9917 284.163 37.4594C283.269 36.9271 282.545 36.2138 281.992 35.3195C281.459 34.4253 281.193 33.4458 281.193 32.3812C281.193 31.2953 281.459 30.3159 281.992 29.4429C282.545 28.5487 283.269 27.8354 284.163 27.3031C285.058 26.7708 286.048 26.5046 287.134 26.5046ZM298.086 42.825C298.086 42.101 298.15 41.3771 298.278 40.6532C298.406 39.9079 298.651 39.1734 299.012 38.4494C299.374 37.7255 299.907 37.0335 300.609 36.3735C301.312 35.6921 302.238 35.0534 303.388 34.4572C304.005 34.1378 304.644 33.8291 305.304 33.531C305.964 33.2116 306.582 32.8709 307.157 32.509C307.753 32.1257 308.221 31.6999 308.562 31.2315C308.924 30.7417 309.105 30.1669 309.105 29.5068C309.105 28.9745 308.945 28.4529 308.626 27.9418C308.328 27.4308 307.859 27.0156 307.221 26.6963C306.603 26.3769 305.826 26.2172 304.889 26.2172C304.208 26.2172 303.59 26.313 303.037 26.5046C302.483 26.6963 301.993 26.9411 301.568 27.2392C301.142 27.516 300.78 27.8034 300.482 28.1015C300.184 28.3783 299.939 28.6125 299.747 28.8042L298.374 27.3031C298.48 27.1753 298.714 26.9518 299.076 26.6324C299.46 26.2917 299.939 25.9404 300.514 25.5784C301.11 25.2165 301.802 24.9077 302.59 24.6522C303.399 24.3967 304.282 24.269 305.24 24.269C306.539 24.269 307.646 24.5032 308.562 24.9716C309.499 25.4187 310.212 26.0256 310.702 26.7921C311.191 27.5586 311.436 28.389 311.436 29.2832C311.436 30.1562 311.245 30.9121 310.861 31.5508C310.5 32.1683 310.02 32.7113 309.424 33.1797C308.849 33.6268 308.243 34.0207 307.604 34.3614C306.986 34.6808 306.422 34.9576 305.911 35.1918C304.91 35.6602 304.069 36.1286 303.388 36.597C302.707 37.0655 302.164 37.5445 301.759 38.0343C301.355 38.5027 301.035 38.9711 300.801 39.4395C300.588 39.8867 300.439 40.3551 300.354 40.8448H311.788V42.825H298.086Z" fill="#FBFBFE"/>
</g>
<defs>
<clipPath id="clip0_1_148">
<rect width="596.176" height="63.876" fill="white" transform="translate(0 0.404602)"/>
</clipPath>
</defs>
</svg>
