<svg width="593" height="66" viewBox="0 0 593 66" fill="none" xmlns="http://www.w3.org/2000/svg">
<g clip-path="url(#clip0_1_133)">
<g filter="url(#filter0_dd_1_133)">
<path d="M0.774323 5.48938C0.774323 2.94696 2.88762 0.884673 5.49463 0.884673H59.93C62.5369 0.884673 64.6503 2.94696 64.6503 5.48938V60.5612C64.6503 63.1045 62.5369 65.1659 59.93 65.1659H5.49463C2.88762 65.1659 0.774323 63.1045 0.774323 60.5612V5.48938V5.48938Z" fill="#FEFEFE"/>
<path fill-rule="evenodd" clip-rule="evenodd" d="M20.1342 54.6953V25.6687H10.4863V54.6953H20.1342V54.6953ZM15.3102 21.7056C18.6746 21.7056 20.7687 19.4767 20.7687 16.6912C20.706 13.843 18.6746 11.6759 15.374 11.6759C12.0738 11.6759 9.91597 13.843 9.91597 16.6912C9.91597 19.4767 12.0096 21.7056 15.2473 21.7056H15.31H15.3102Z" fill="#1C3441"/>
<path fill-rule="evenodd" clip-rule="evenodd" d="M25.4745 54.6953H35.123V38.4844C35.123 37.6169 35.1857 36.7501 35.4405 36.13C36.138 34.3965 37.7256 32.6012 40.391 32.6012C43.8824 32.6012 45.279 35.2632 45.279 39.1656V54.6953H54.9267V38.0507C54.9267 29.1344 50.1666 24.9855 43.8186 24.9855C38.6135 24.9855 36.3284 27.8948 35.0588 29.8765H35.1233V25.6666H25.4748C25.6014 28.3905 25.4748 54.6953 25.4748 54.6953H25.4745Z" fill="#1C3441"/>
</g>
<path d="M106.358 24.2491C107.933 24.2491 109.413 24.5472 110.797 25.1434C112.202 25.7183 113.437 26.5486 114.502 27.6345C115.588 28.6991 116.44 29.9767 117.057 31.4671C117.674 32.9575 117.983 34.6077 117.983 36.4175C117.983 36.7794 117.951 37.2692 117.887 37.8866C117.845 38.5041 117.738 39.1642 117.568 39.8668C117.398 40.5694 117.142 41.2401 116.802 41.8789C116.482 42.4964 116.035 43.0074 115.46 43.4119C114.885 43.8165 114.172 44.0187 113.32 44.0187C112.618 44.0187 112.075 43.8803 111.691 43.6035C111.329 43.3267 111.074 42.9648 110.925 42.5176C110.797 42.0705 110.701 41.5914 110.637 41.0804C110.063 41.6979 109.296 42.2302 108.338 42.6773C107.401 43.1245 106.368 43.348 105.24 43.348C103.728 43.348 102.547 42.9435 101.695 42.1344C100.864 41.3253 100.449 40.3033 100.449 39.0683C100.449 37.9824 100.747 37.1308 101.344 36.5133C101.94 35.8958 102.685 35.4593 103.579 35.2038C104.495 34.927 105.421 34.7886 106.358 34.7886C107.295 34.7886 108.114 34.8845 108.817 35.0761C109.541 35.2464 110.073 35.3955 110.414 35.5232C110.414 34.5012 110.297 33.6069 110.063 32.8404C109.85 32.0739 109.456 31.4777 108.881 31.0519C108.306 30.6048 107.497 30.3812 106.454 30.3812C105.623 30.3812 104.825 30.5196 104.058 30.7964C103.292 31.0519 102.6 31.4139 101.982 31.8823L101.407 30.6367C102.174 30.1257 102.994 29.7212 103.867 29.4231C104.74 29.125 105.666 28.9759 106.645 28.9759C107.838 28.9759 108.774 29.1676 109.456 29.5508C110.158 29.9341 110.68 30.4557 111.021 31.1158C111.361 31.7545 111.585 32.4572 111.691 33.2237C111.798 33.9902 111.851 34.7567 111.851 35.5232V39.6432C111.851 40.2607 111.883 40.8143 111.947 41.304C112.032 41.7937 112.192 42.177 112.426 42.4538C112.66 42.7093 113.022 42.837 113.512 42.837C114.172 42.837 114.715 42.6135 115.141 42.1663C115.588 41.7192 115.929 41.155 116.163 40.4736C116.418 39.7923 116.589 39.079 116.674 38.3338C116.78 37.5885 116.833 36.9285 116.833 36.3536C116.833 34.7993 116.567 33.3621 116.035 32.042C115.524 30.7006 114.789 29.5295 113.831 28.5288C112.873 27.5281 111.755 26.7509 110.478 26.1973C109.2 25.6224 107.816 25.335 106.326 25.335C104.857 25.335 103.483 25.6011 102.206 26.1334C100.928 26.6657 99.7999 27.4216 98.8204 28.401C97.841 29.3592 97.0745 30.509 96.5209 31.8504C95.9673 33.1705 95.6905 34.6077 95.6905 36.162C95.6905 37.6737 95.946 39.0896 96.457 40.4097C96.9893 41.7298 97.7239 42.8903 98.6607 43.891C99.6189 44.8917 100.737 45.6689 102.014 46.2225C103.292 46.7973 104.676 47.0848 106.166 47.0848C107.06 47.0848 107.901 46.9677 108.689 46.7335C109.477 46.5205 110.265 46.2331 111.053 45.8711L111.468 46.8931C110.616 47.319 109.733 47.6384 108.817 47.8513C107.923 48.0642 107.028 48.1707 106.134 48.1707C104.537 48.1707 103.036 47.8726 101.631 47.2764C100.247 46.6802 99.0227 45.8392 97.9581 44.7533C96.8935 43.6887 96.0525 42.4218 95.435 40.9527C94.8388 39.4835 94.5407 37.8866 94.5407 36.162C94.5407 34.3522 94.8601 32.7233 95.4989 31.2755C96.1589 29.8063 97.0425 28.5501 98.1497 27.5068C99.2569 26.4635 100.513 25.665 101.918 25.1114C103.345 24.5365 104.825 24.2491 106.358 24.2491ZM108.306 41.2721C108.902 40.9953 109.349 40.6865 109.647 40.3459C109.945 39.9839 110.137 39.6006 110.222 39.1961C110.329 38.7915 110.382 38.3976 110.382 38.0144V36.7369C110.105 36.7156 109.605 36.5985 108.881 36.3855C108.178 36.1513 107.316 36.0342 106.294 36.0342C105.549 36.0342 104.835 36.1194 104.154 36.2897C103.494 36.4601 102.951 36.7688 102.525 37.2159C102.121 37.6418 101.918 38.238 101.918 39.0045C101.918 39.6006 102.067 40.1223 102.366 40.5694C102.664 41.0166 103.068 41.3679 103.579 41.6234C104.09 41.8576 104.676 41.9747 105.336 41.9747C105.847 41.9747 106.368 41.9108 106.901 41.7831C107.433 41.634 107.901 41.4637 108.306 41.2721ZM122.611 43.5077V20.8317H130.309C132.715 20.8317 134.716 21.3427 136.313 22.3648C137.931 23.3655 139.145 24.7282 139.954 26.4528C140.763 28.1562 141.167 30.0512 141.167 32.1378C141.167 34.4373 140.72 36.4388 139.826 38.1421C138.953 39.8455 137.697 41.1656 136.057 42.1024C134.439 43.0393 132.523 43.5077 130.309 43.5077H122.611ZM138.932 32.1378C138.932 30.328 138.591 28.7204 137.91 27.3152C137.25 25.9099 136.281 24.8133 135.003 24.0255C133.726 23.2164 132.161 22.8119 130.309 22.8119H124.847V41.5276H130.309C132.182 41.5276 133.758 41.1124 135.035 40.282C136.313 39.4516 137.282 38.3338 137.942 36.9285C138.602 35.5019 138.932 33.905 138.932 32.1378ZM143.529 38.717C143.529 37.6737 143.827 36.7794 144.423 36.0342C145.019 35.2677 145.839 34.6822 146.882 34.2776C147.947 33.8518 149.171 33.6389 150.555 33.6389C151.364 33.6389 152.205 33.7028 153.078 33.8305C153.951 33.9583 154.728 34.1499 155.41 34.4054V33.0001C155.41 31.5948 154.995 30.477 154.164 29.6466C153.334 28.8162 152.184 28.401 150.715 28.401C149.821 28.401 148.937 28.5714 148.064 28.9121C147.212 29.2314 146.318 29.7105 145.381 30.3493L144.551 28.8162C145.637 28.071 146.701 27.5174 147.745 27.1555C148.788 26.7722 149.853 26.5806 150.938 26.5806C152.983 26.5806 154.601 27.1661 155.793 28.3372C156.985 29.5082 157.582 31.1264 157.582 33.1917V40.8888C157.582 41.1869 157.645 41.4105 157.773 41.5595C157.901 41.6873 158.103 41.7618 158.38 41.7831V43.5077C158.146 43.529 157.944 43.5503 157.773 43.5716C157.603 43.5929 157.475 43.5929 157.39 43.5716C156.858 43.5503 156.453 43.38 156.176 43.0606C155.9 42.7412 155.75 42.4005 155.729 42.0386L155.697 40.8249C154.952 41.7831 153.983 42.5283 152.791 43.0606C151.599 43.5716 150.385 43.8271 149.15 43.8271C148.085 43.8271 147.117 43.6035 146.244 43.1564C145.392 42.688 144.721 42.0705 144.232 41.304C143.763 40.5162 143.529 39.6539 143.529 38.717ZM154.675 39.9945C154.909 39.6965 155.09 39.409 155.218 39.1322C155.346 38.8554 155.41 38.6106 155.41 38.3976V35.9704C154.686 35.6936 153.93 35.4806 153.142 35.3316C152.376 35.1825 151.599 35.108 150.811 35.108C149.256 35.108 148 35.4168 147.042 36.0342C146.084 36.6517 145.605 37.4927 145.605 38.5573C145.605 39.1748 145.765 39.7603 146.084 40.3139C146.403 40.8462 146.872 41.2934 147.489 41.6553C148.107 41.996 148.831 42.1663 149.661 42.1663C150.704 42.1663 151.673 41.9641 152.567 41.5595C153.483 41.155 154.186 40.6333 154.675 39.9945ZM166.725 43.5077L159.986 26.868H162.254L167.939 41.3359L173.656 26.868H175.796L169.057 43.5077H166.725ZM178.804 43.5077V26.868H180.976V43.5077H178.804ZM178.804 23.3868V20.193H180.976V23.3868H178.804ZM184.642 35.2358C184.642 33.6602 184.961 32.223 185.6 30.9241C186.26 29.604 187.165 28.5501 188.315 27.7623C189.464 26.9745 190.774 26.5806 192.243 26.5806C193.627 26.5806 194.862 26.9532 195.948 27.6984C197.055 28.4223 197.917 29.306 198.535 30.3493V20.193H200.707V40.8888C200.707 41.1869 200.771 41.4105 200.898 41.5595C201.026 41.6873 201.218 41.7618 201.473 41.7831V43.5077C201.047 43.5716 200.717 43.5929 200.483 43.5716C200.036 43.5503 199.642 43.3693 199.301 43.0287C198.961 42.688 198.79 42.3154 198.79 41.9108V40.282C198.13 41.3679 197.236 42.2302 196.108 42.869C194.979 43.5077 193.808 43.8271 192.594 43.8271C191.445 43.8271 190.38 43.5929 189.401 43.1245C188.442 42.656 187.601 42.0173 186.877 41.2082C186.175 40.3991 185.621 39.4835 185.217 38.4615C184.833 37.4182 184.642 36.343 184.642 35.2358ZM198.535 37.7908V32.6488C198.258 31.8823 197.811 31.1903 197.193 30.5728C196.576 29.9341 195.873 29.4337 195.086 29.0717C194.319 28.6885 193.553 28.4969 192.786 28.4969C191.892 28.4969 191.083 28.6885 190.359 29.0717C189.635 29.4337 189.007 29.9341 188.474 30.5728C187.963 31.2116 187.569 31.9355 187.293 32.7446C187.016 33.5537 186.877 34.3841 186.877 35.2358C186.877 36.13 187.027 36.9817 187.325 37.7908C187.644 38.5999 188.091 39.3238 188.666 39.9626C189.241 40.5801 189.901 41.0591 190.646 41.3998C191.391 41.7405 192.2 41.9108 193.073 41.9108C193.627 41.9108 194.202 41.8044 194.798 41.5914C195.394 41.3785 195.959 41.0911 196.491 40.7291C197.044 40.3459 197.502 39.8987 197.864 39.3877C198.226 38.8767 198.45 38.3444 198.535 37.7908ZM213.027 20.8317L221.14 40.7291L229.22 20.8317H231.552L222.162 43.5077H220.118L210.696 20.8317H213.027ZM239.387 43.8271C238.194 43.8271 237.087 43.6035 236.065 43.1564C235.043 42.688 234.16 42.0599 233.414 41.2721C232.669 40.463 232.084 39.5368 231.658 38.4935C231.253 37.4501 231.051 36.3323 231.051 35.14C231.051 33.5856 231.402 32.1591 232.105 30.8603C232.829 29.5615 233.819 28.5288 235.075 27.7623C236.331 26.9745 237.758 26.5806 239.355 26.5806C240.994 26.5806 242.421 26.9745 243.635 27.7623C244.869 28.5501 245.838 29.5934 246.541 30.8922C247.244 32.1697 247.595 33.575 247.595 35.108C247.595 35.2784 247.595 35.4487 247.595 35.619C247.595 35.7681 247.584 35.8852 247.563 35.9704H233.319C233.425 37.1627 233.755 38.2273 234.309 39.1642C234.884 40.0797 235.618 40.8143 236.512 41.3679C237.428 41.9002 238.418 42.1663 239.483 42.1663C240.568 42.1663 241.591 41.8895 242.549 41.3359C243.528 40.7823 244.209 40.0584 244.593 39.1642L246.477 39.6752C246.136 40.463 245.615 41.1762 244.912 41.815C244.209 42.4538 243.379 42.9541 242.421 43.3161C241.484 43.6568 240.473 43.8271 239.387 43.8271ZM233.255 34.4054H245.551C245.466 33.1917 245.136 32.1271 244.561 31.2116C244.007 30.296 243.273 29.5828 242.357 29.0717C241.463 28.5394 240.473 28.2733 239.387 28.2733C238.301 28.2733 237.311 28.5394 236.417 29.0717C235.522 29.5828 234.788 30.3067 234.213 31.2435C233.659 32.1591 233.34 33.213 233.255 34.4054ZM251.041 20.193H253.213V39.739C253.213 40.5694 253.362 41.1124 253.66 41.3679C253.958 41.6234 254.32 41.7511 254.746 41.7511C255.129 41.7511 255.513 41.7085 255.896 41.6234C256.279 41.5382 256.609 41.453 256.886 41.3679L257.269 43.1245C256.865 43.2948 256.364 43.4332 255.768 43.5397C255.193 43.6461 254.693 43.6993 254.267 43.6993C253.288 43.6993 252.5 43.4119 251.904 42.837C251.329 42.2621 251.041 41.4743 251.041 40.4736V20.193ZM259.647 43.5077V26.868H261.819V43.5077H259.647ZM259.647 23.3868V20.193H261.819V23.3868H259.647ZM265.197 42.0386L276.344 28.4969H265.453V26.868H278.803V28.3372L267.721 41.8789H278.771V43.5077H265.197V42.0386Z" fill="#FBFBFE"/>
</g>
<defs>
<filter id="filter0_dd_1_133" x="-3.22568" y="0.884674" width="71.876" height="72.2812" filterUnits="userSpaceOnUse" color-interpolation-filters="sRGB">
<feFlood flood-opacity="0" result="BackgroundImageFix"/>
<feColorMatrix in="SourceAlpha" type="matrix" values="0 0 0 0 0 0 0 0 0 0 0 0 0 0 0 0 0 0 127 0" result="hardAlpha"/>
<feOffset dy="4"/>
<feGaussianBlur stdDeviation="2"/>
<feComposite in2="hardAlpha" operator="out"/>
<feColorMatrix type="matrix" values="0 0 0 0 0 0 0 0 0 0 0 0 0 0 0 0 0 0 0.25 0"/>
<feBlend mode="normal" in2="BackgroundImageFix" result="effect1_dropShadow_1_133"/>
<feColorMatrix in="SourceAlpha" type="matrix" values="0 0 0 0 0 0 0 0 0 0 0 0 0 0 0 0 0 0 127 0" result="hardAlpha"/>
<feOffset dy="4"/>
<feGaussianBlur stdDeviation="2"/>
<feComposite in2="hardAlpha" operator="out"/>
<feColorMatrix type="matrix" values="0 0 0 0 0 0 0 0 0 0 0 0 0 0 0 0 0 0 0.25 0"/>
<feBlend mode="normal" in2="effect1_dropShadow_1_133" result="effect2_dropShadow_1_133"/>
<feBlend mode="normal" in="SourceGraphic" in2="effect2_dropShadow_1_133" result="shape"/>
</filter>
<clipPath id="clip0_1_133">
<rect width="592.627" height="64.2812" fill="white" transform="translate(0.774323 0.884674)"/>
</clipPath>
</defs>
</svg>
