<svg width="596" height="466" viewBox="0 0 596 466" fill="none" xmlns="http://www.w3.org/2000/svg">
<path d="M5.4635 22.0093H16.5353C21.3805 22.0093 24.9954 22.9367 27.3801 24.7914C29.7648 26.6083 30.9571 29.7501 30.9571 34.2167C30.9571 37.1313 30.5218 39.516 29.6512 41.3708C28.8185 43.1877 27.3611 44.5126 25.2793 45.3453L31.6952 68H23.292L17.7845 46.9351H13.81V68H5.4635V22.0093ZM16.4786 41.7115C18.8633 41.7115 20.5477 41.1626 21.5319 40.0649C22.5539 38.9672 23.0649 37.1692 23.0649 34.6709C23.0649 32.2484 22.6107 30.4882 21.7022 29.3905C20.8316 28.2928 19.2418 27.7439 16.9328 27.7439H13.81V41.7115H16.4786ZM37.2906 22.0093H56.5954V27.9143H45.6371V41.1437H54.2674V46.9919H45.6371V62.2654H56.7089V68H37.2906V22.0093ZM61.5768 22.0093H72.4215C76.1311 22.0093 79.0457 22.5203 81.1654 23.5423C83.2852 24.5265 84.7803 26.0595 85.6509 28.1414C86.5594 30.1854 87.0136 32.9108 87.0136 36.3175V53.0672C87.0136 56.5496 86.5594 59.3696 85.6509 61.5272C84.7803 63.6848 83.3041 65.3125 81.2222 66.4102C79.1403 67.4701 76.3203 68 72.7622 68H61.5768V22.0093ZM72.5351 62.1518C74.3898 62.1518 75.7336 61.8301 76.5664 61.1866C77.3991 60.5431 77.929 59.6535 78.1562 58.518C78.3833 57.3445 78.4968 55.6222 78.4968 53.3511V35.7497C78.4968 33.7057 78.3644 32.1537 78.0994 31.0939C77.8344 30.034 77.2666 29.258 76.396 28.7659C75.5633 28.236 74.2384 27.971 72.4215 27.971H69.9233V62.1518H72.5351ZM93.1821 22.0093H112.487V27.9143H101.529V41.1437H110.159V46.9919H101.529V62.2654H112.6V68H93.1821V22.0093ZM129.051 68.6246C124.887 68.6246 121.765 67.4511 119.683 65.1043C117.639 62.7574 116.522 59.2561 116.333 54.6002L123.544 53.1808C123.657 56.0954 124.111 58.3287 124.906 59.8807C125.739 61.3947 127.026 62.1518 128.767 62.1518C130.054 62.1518 131.001 61.7733 131.606 61.0162C132.25 60.2213 132.571 59.1615 132.571 57.8366C132.571 56.0197 132.155 54.4867 131.322 53.2375C130.527 51.9506 129.259 50.55 127.518 49.0359L121.727 43.9826C119.948 42.4685 118.604 40.8409 117.695 39.0997C116.825 37.3584 116.389 35.2766 116.389 32.854C116.389 29.258 117.43 26.4759 119.512 24.5075C121.632 22.5014 124.547 21.4983 128.256 21.4983C132.231 21.4983 135.07 22.6338 136.773 24.905C138.514 27.1383 139.517 30.1665 139.782 33.9896L132.571 35.2387C132.458 32.7404 132.098 30.8668 131.493 29.6176C130.925 28.3306 129.789 27.6871 128.086 27.6871C126.875 27.6871 125.928 28.1035 125.247 28.9363C124.566 29.7312 124.225 30.7532 124.225 32.0023C124.225 33.4786 124.509 34.7277 125.077 35.7497C125.682 36.7339 126.648 37.7937 127.972 38.9293L133.707 43.9826C135.865 45.8374 137.549 47.8246 138.76 49.9444C139.972 52.0641 140.577 54.5245 140.577 57.3256C140.577 59.5211 140.085 61.4705 139.101 63.1738C138.155 64.8772 136.811 66.2209 135.07 67.2051C133.328 68.1514 131.322 68.6246 129.051 68.6246ZM170.914 68.6246C166.751 68.6246 163.628 67.4511 161.546 65.1043C159.502 62.7574 158.385 59.2561 158.196 54.6002L165.407 53.1808C165.52 56.0954 165.975 58.3287 166.769 59.8807C167.602 61.3947 168.889 62.1518 170.63 62.1518C171.917 62.1518 172.864 61.7733 173.469 61.0162C174.113 60.2213 174.435 59.1615 174.435 57.8366C174.435 56.0197 174.018 54.4867 173.185 53.2375C172.391 51.9506 171.123 50.55 169.381 49.0359L163.59 43.9826C161.811 42.4685 160.467 40.8409 159.559 39.0997C158.688 37.3584 158.253 35.2766 158.253 32.854C158.253 29.258 159.294 26.4759 161.375 24.5075C163.495 22.5014 166.41 21.4983 170.119 21.4983C174.094 21.4983 176.933 22.6338 178.636 24.905C180.377 27.1383 181.381 30.1665 181.645 33.9896L174.435 35.2387C174.321 32.7404 173.961 30.8668 173.356 29.6176C172.788 28.3306 171.652 27.6871 169.949 27.6871C168.738 27.6871 167.791 28.1035 167.11 28.9363C166.429 29.7312 166.088 30.7532 166.088 32.0023C166.088 33.4786 166.372 34.7277 166.94 35.7497C167.545 36.7339 168.511 37.7937 169.836 38.9293L175.57 43.9826C177.728 45.8374 179.412 47.8246 180.623 49.9444C181.835 52.0641 182.44 54.5245 182.44 57.3256C182.44 59.5211 181.948 61.4705 180.964 63.1738C180.018 64.8772 178.674 66.2209 176.933 67.2051C175.192 68.1514 173.185 68.6246 170.914 68.6246ZM199.936 68.6246C195.167 68.6246 191.76 67.3565 189.716 64.8204C187.672 62.2464 186.65 58.499 186.65 53.5782V36.3175C186.65 31.4345 187.672 27.7439 189.716 25.2457C191.76 22.7474 195.167 21.4983 199.936 21.4983C204.668 21.4983 208.056 22.7474 210.1 25.2457C212.144 27.7439 213.166 31.4345 213.166 36.3175V53.5782C213.166 58.4612 212.125 62.1896 210.043 64.7636C207.999 67.3376 204.63 68.6246 199.936 68.6246ZM199.936 62.4357C201.791 62.4357 203.04 61.849 203.684 60.6756C204.327 59.5021 204.649 57.7988 204.649 55.5655V34.387C204.649 32.1537 204.327 30.4693 203.684 29.3337C203.078 28.1982 201.829 27.6304 199.936 27.6304C198.044 27.6304 196.776 28.2171 196.132 29.3905C195.489 30.5261 195.167 32.1916 195.167 34.387V55.5655C195.167 57.7988 195.489 59.5021 196.132 60.6756C196.776 61.849 198.044 62.4357 199.936 62.4357ZM231.759 68.6246C226.99 68.6246 223.602 67.2997 221.596 64.6501C219.628 61.9625 218.643 58.1773 218.643 53.2943V36.8853C218.643 31.8509 219.628 28.0278 221.596 25.416C223.564 22.8042 226.952 21.4983 231.759 21.4983C236.264 21.4983 239.462 22.6338 241.355 24.905C243.248 27.1761 244.194 30.4504 244.194 34.7277V38.5886H236.131V34.6141C236.131 32.9865 236.056 31.7184 235.904 30.81C235.753 29.8637 235.355 29.1066 234.712 28.5388C234.106 27.9332 233.141 27.6304 231.816 27.6304C230.453 27.6304 229.431 27.9521 228.75 28.5956C228.069 29.2012 227.614 30.034 227.387 31.0939C227.198 32.1159 227.103 33.4596 227.103 35.1251V55.0545C227.103 57.6663 227.444 59.5589 228.125 60.7323C228.807 61.8679 230.037 62.4357 231.816 62.4357C233.103 62.4357 234.049 62.1329 234.655 61.5272C235.299 60.9216 235.696 60.1267 235.847 59.1425C236.037 58.1205 236.131 56.7767 236.131 55.1112V50.9664H244.194V54.657C244.194 59.0857 243.266 62.5303 241.412 64.9907C239.557 67.4133 236.339 68.6246 231.759 68.6246ZM250.271 22.0093H258.561V68H250.271V22.0093ZM272.551 22.0093H281.522L290.72 68H282.941L281.124 57.3824H273.119L271.245 68H263.353L272.551 22.0093ZM280.216 52.0452L277.093 32.7404L273.97 52.0452H280.216ZM295.345 22.0093H303.692V62.2654H314.877V68H295.345V22.0093ZM319.243 22.0093H338.548V27.9143H327.59V41.1437H336.22V46.9919H327.59V62.2654H338.662V68H319.243V22.0093ZM355.112 68.6246C350.949 68.6246 347.826 67.4511 345.744 65.1043C343.7 62.7574 342.583 59.2561 342.394 54.6002L349.605 53.1808C349.718 56.0954 350.173 58.3287 350.967 59.8807C351.8 61.3947 353.087 62.1518 354.828 62.1518C356.115 62.1518 357.062 61.7733 357.667 61.0162C358.311 60.2213 358.633 59.1615 358.633 57.8366C358.633 56.0197 358.216 54.4867 357.383 53.2375C356.589 51.9506 355.32 50.55 353.579 49.0359L347.788 43.9826C346.009 42.4685 344.665 40.8409 343.757 39.0997C342.886 37.3584 342.451 35.2766 342.451 32.854C342.451 29.258 343.492 26.4759 345.573 24.5075C347.693 22.5014 350.608 21.4983 354.317 21.4983C358.292 21.4983 361.131 22.6338 362.834 24.905C364.575 27.1383 365.578 30.1665 365.843 33.9896L358.633 35.2387C358.519 32.7404 358.159 30.8668 357.554 29.6176C356.986 28.3306 355.85 27.6871 354.147 27.6871C352.936 27.6871 351.989 28.1035 351.308 28.9363C350.627 29.7312 350.286 30.7532 350.286 32.0023C350.286 33.4786 350.57 34.7277 351.138 35.7497C351.743 36.7339 352.709 37.7937 354.034 38.9293L359.768 43.9826C361.926 45.8374 363.61 47.8246 364.821 49.9444C366.033 52.0641 366.638 54.5245 366.638 57.3256C366.638 59.5211 366.146 61.4705 365.162 63.1738C364.216 64.8772 362.872 66.2209 361.131 67.2051C359.39 68.1514 357.383 68.6246 355.112 68.6246Z" fill="#889397"/>
<path d="M2 113.557H273.473" stroke="#889397" stroke-width="3.54867" stroke-linecap="round"/>
<g clip-path="url(#clip0_1_128)">
<g clip-path="url(#clip1_1_128)">
<path d="M3.77432 178.489C3.77432 175.947 5.88762 173.885 8.49463 173.885H62.93C65.5369 173.885 67.6503 175.947 67.6503 178.489V233.561C67.6503 236.104 65.5369 238.166 62.93 238.166H8.49463C5.88762 238.166 3.77432 236.104 3.77432 233.561V178.489Z" fill="#FEFEFE"/>
<path fill-rule="evenodd" clip-rule="evenodd" d="M23.1342 227.695V198.669H13.4863V227.695H23.1342ZM18.3102 194.706C21.6746 194.706 23.7687 192.477 23.7687 189.691C23.706 186.843 21.6746 184.676 18.374 184.676C15.0738 184.676 12.916 186.843 12.916 189.691C12.916 192.477 15.0096 194.706 18.2473 194.706H18.31H18.3102Z" fill="#1C3441"/>
<path fill-rule="evenodd" clip-rule="evenodd" d="M28.4745 227.695H38.123V211.484C38.123 210.617 38.1857 209.75 38.4405 209.13C39.138 207.397 40.7256 205.601 43.391 205.601C46.8824 205.601 48.279 208.263 48.279 212.166V227.695H57.9267V211.051C57.9267 202.134 53.1666 197.985 46.8186 197.985C41.6135 197.985 39.3284 200.895 38.0588 202.877H38.1233V198.667H28.4748C28.6014 201.39 28.4748 227.695 28.4748 227.695H28.4745Z" fill="#1C3441"/>
<path d="M109.358 197.249C110.933 197.249 112.413 197.547 113.797 198.143C115.202 198.718 116.437 199.549 117.502 200.635C118.588 201.699 119.44 202.977 120.057 204.467C120.674 205.958 120.983 207.608 120.983 209.417C120.983 209.779 120.951 210.269 120.887 210.887C120.845 211.504 120.738 212.164 120.568 212.867C120.398 213.569 120.142 214.24 119.802 214.879C119.482 215.496 119.035 216.007 118.46 216.412C117.885 216.816 117.172 217.019 116.32 217.019C115.618 217.019 115.075 216.88 114.691 216.604C114.329 216.327 114.074 215.965 113.925 215.518C113.797 215.071 113.701 214.591 113.637 214.08C113.063 214.698 112.296 215.23 111.338 215.677C110.401 216.124 109.368 216.348 108.24 216.348C106.728 216.348 105.547 215.943 104.695 215.134C103.864 214.325 103.449 213.303 103.449 212.068C103.449 210.982 103.747 210.131 104.344 209.513C104.94 208.896 105.685 208.459 106.579 208.204C107.495 207.927 108.421 207.789 109.358 207.789C110.295 207.789 111.114 207.884 111.817 208.076C112.541 208.246 113.073 208.395 113.414 208.523C113.414 207.501 113.297 206.607 113.063 205.84C112.85 205.074 112.456 204.478 111.881 204.052C111.306 203.605 110.497 203.381 109.454 203.381C108.623 203.381 107.825 203.52 107.058 203.796C106.292 204.052 105.6 204.414 104.982 204.882L104.407 203.637C105.174 203.126 105.994 202.721 106.867 202.423C107.74 202.125 108.666 201.976 109.645 201.976C110.838 201.976 111.774 202.168 112.456 202.551C113.158 202.934 113.68 203.456 114.021 204.116C114.361 204.755 114.585 205.457 114.691 206.224C114.798 206.99 114.851 207.757 114.851 208.523V212.643C114.851 213.261 114.883 213.814 114.947 214.304C115.032 214.794 115.192 215.177 115.426 215.454C115.66 215.709 116.022 215.837 116.512 215.837C117.172 215.837 117.715 215.613 118.141 215.166C118.588 214.719 118.929 214.155 119.163 213.474C119.418 212.792 119.589 212.079 119.674 211.334C119.78 210.589 119.833 209.928 119.833 209.354C119.833 207.799 119.567 206.362 119.035 205.042C118.524 203.701 117.789 202.53 116.831 201.529C115.873 200.528 114.755 199.751 113.478 199.197C112.2 198.622 110.816 198.335 109.326 198.335C107.857 198.335 106.483 198.601 105.206 199.133C103.928 199.666 102.8 200.422 101.82 201.401C100.841 202.359 100.074 203.509 99.5209 204.85C98.9673 206.17 98.6905 207.608 98.6905 209.162C98.6905 210.674 98.946 212.09 99.457 213.41C99.9893 214.73 100.724 215.89 101.661 216.891C102.619 217.892 103.737 218.669 105.014 219.222C106.292 219.797 107.676 220.085 109.166 220.085C110.06 220.085 110.901 219.968 111.689 219.733C112.477 219.521 113.265 219.233 114.053 218.871L114.468 219.893C113.616 220.319 112.733 220.638 111.817 220.851C110.923 221.064 110.028 221.171 109.134 221.171C107.537 221.171 106.036 220.873 104.631 220.276C103.247 219.68 102.023 218.839 100.958 217.753C99.8935 216.689 99.0525 215.422 98.435 213.953C97.8388 212.484 97.5407 210.887 97.5407 209.162C97.5407 207.352 97.8601 205.723 98.4989 204.275C99.1589 202.806 100.043 201.55 101.15 200.507C102.257 199.463 103.513 198.665 104.918 198.111C106.345 197.537 107.825 197.249 109.358 197.249ZM111.306 214.272C111.902 213.995 112.349 213.687 112.647 213.346C112.945 212.984 113.137 212.601 113.222 212.196C113.329 211.792 113.382 211.398 113.382 211.014V209.737C113.105 209.716 112.605 209.598 111.881 209.386C111.178 209.151 110.316 209.034 109.294 209.034C108.549 209.034 107.835 209.119 107.154 209.29C106.494 209.46 105.951 209.769 105.525 210.216C105.121 210.642 104.918 211.238 104.918 212.004C104.918 212.601 105.067 213.122 105.366 213.569C105.664 214.017 106.068 214.368 106.579 214.623C107.09 214.858 107.676 214.975 108.336 214.975C108.847 214.975 109.368 214.911 109.901 214.783C110.433 214.634 110.901 214.464 111.306 214.272ZM125.611 216.508V193.832H133.309C135.715 193.832 137.716 194.343 139.313 195.365C140.931 196.365 142.145 197.728 142.954 199.453C143.763 201.156 144.167 203.051 144.167 205.138C144.167 207.437 143.72 209.439 142.826 211.142C141.953 212.845 140.697 214.166 139.057 215.102C137.439 216.039 135.523 216.508 133.309 216.508H125.611ZM141.932 205.138C141.932 203.328 141.591 201.72 140.91 200.315C140.25 198.91 139.281 197.813 138.003 197.026C136.726 196.216 135.161 195.812 133.309 195.812H127.847V214.528H133.309C135.182 214.528 136.758 214.112 138.035 213.282C139.313 212.452 140.282 211.334 140.942 209.928C141.602 208.502 141.932 206.905 141.932 205.138ZM146.529 211.717C146.529 210.674 146.827 209.779 147.423 209.034C148.019 208.268 148.839 207.682 149.882 207.278C150.947 206.852 152.171 206.639 153.555 206.639C154.364 206.639 155.205 206.703 156.078 206.831C156.951 206.958 157.728 207.15 158.41 207.405V206C158.41 204.595 157.995 203.477 157.164 202.647C156.334 201.816 155.184 201.401 153.715 201.401C152.821 201.401 151.937 201.571 151.064 201.912C150.212 202.231 149.318 202.711 148.381 203.349L147.551 201.816C148.637 201.071 149.701 200.517 150.745 200.155C151.788 199.772 152.853 199.581 153.938 199.581C155.983 199.581 157.601 200.166 158.793 201.337C159.985 202.508 160.582 204.126 160.582 206.192V213.889C160.582 214.187 160.645 214.41 160.773 214.56C160.901 214.687 161.103 214.762 161.38 214.783V216.508C161.146 216.529 160.944 216.55 160.773 216.572C160.603 216.593 160.475 216.593 160.39 216.572C159.858 216.55 159.453 216.38 159.176 216.061C158.9 215.741 158.75 215.401 158.729 215.039L158.697 213.825C157.952 214.783 156.983 215.528 155.791 216.061C154.599 216.572 153.385 216.827 152.15 216.827C151.085 216.827 150.117 216.604 149.244 216.156C148.392 215.688 147.721 215.071 147.232 214.304C146.763 213.516 146.529 212.654 146.529 211.717ZM157.675 212.995C157.909 212.696 158.09 212.409 158.218 212.132C158.346 211.855 158.41 211.611 158.41 211.398V208.97C157.686 208.694 156.93 208.481 156.142 208.332C155.376 208.183 154.599 208.108 153.811 208.108C152.256 208.108 151 208.417 150.042 209.034C149.084 209.652 148.605 210.493 148.605 211.557C148.605 212.175 148.765 212.76 149.084 213.314C149.403 213.846 149.872 214.293 150.489 214.655C151.107 214.996 151.831 215.166 152.661 215.166C153.704 215.166 154.673 214.964 155.567 214.56C156.483 214.155 157.186 213.633 157.675 212.995ZM169.725 216.508L162.986 199.868H165.254L170.939 214.336L176.656 199.868H178.796L172.057 216.508H169.725ZM181.804 216.508V199.868H183.976V216.508H181.804ZM181.804 196.387V193.193H183.976V196.387H181.804ZM187.642 208.236C187.642 206.66 187.961 205.223 188.6 203.924C189.26 202.604 190.165 201.55 191.315 200.762C192.464 199.974 193.774 199.581 195.243 199.581C196.627 199.581 197.862 199.953 198.948 200.698C200.055 201.422 200.917 202.306 201.535 203.349V193.193H203.707V213.889C203.707 214.187 203.771 214.41 203.898 214.56C204.026 214.687 204.218 214.762 204.473 214.783V216.508C204.047 216.572 203.717 216.593 203.483 216.572C203.036 216.55 202.642 216.369 202.301 216.029C201.961 215.688 201.79 215.315 201.79 214.911V213.282C201.13 214.368 200.236 215.23 199.108 215.869C197.979 216.508 196.808 216.827 195.594 216.827C194.445 216.827 193.38 216.593 192.401 216.124C191.442 215.656 190.601 215.017 189.877 214.208C189.175 213.399 188.621 212.484 188.217 211.462C187.833 210.418 187.642 209.343 187.642 208.236ZM201.535 210.791V205.649C201.258 204.882 200.811 204.19 200.193 203.573C199.576 202.934 198.873 202.434 198.086 202.072C197.319 201.688 196.553 201.497 195.786 201.497C194.892 201.497 194.083 201.688 193.359 202.072C192.635 202.434 192.007 202.934 191.474 203.573C190.963 204.212 190.569 204.936 190.293 205.745C190.016 206.554 189.877 207.384 189.877 208.236C189.877 209.13 190.027 209.982 190.325 210.791C190.644 211.6 191.091 212.324 191.666 212.963C192.241 213.58 192.901 214.059 193.646 214.4C194.391 214.74 195.2 214.911 196.073 214.911C196.627 214.911 197.202 214.804 197.798 214.591C198.394 214.379 198.959 214.091 199.491 213.729C200.044 213.346 200.502 212.899 200.864 212.388C201.226 211.877 201.45 211.344 201.535 210.791ZM216.027 193.832L224.14 213.729L232.22 193.832H234.552L225.162 216.508H223.118L213.696 193.832H216.027ZM242.387 216.827C241.194 216.827 240.087 216.604 239.065 216.156C238.043 215.688 237.16 215.06 236.414 214.272C235.669 213.463 235.084 212.537 234.658 211.493C234.253 210.45 234.051 209.332 234.051 208.14C234.051 206.586 234.402 205.159 235.105 203.86C235.829 202.561 236.819 201.529 238.075 200.762C239.331 199.974 240.758 199.581 242.355 199.581C243.994 199.581 245.421 199.974 246.635 200.762C247.869 201.55 248.838 202.593 249.541 203.892C250.244 205.17 250.595 206.575 250.595 208.108C250.595 208.278 250.595 208.449 250.595 208.619C250.595 208.768 250.584 208.885 250.563 208.97H236.319C236.425 210.163 236.755 211.227 237.309 212.164C237.884 213.08 238.618 213.814 239.512 214.368C240.428 214.9 241.418 215.166 242.483 215.166C243.568 215.166 244.591 214.89 245.549 214.336C246.528 213.782 247.209 213.058 247.593 212.164L249.477 212.675C249.136 213.463 248.615 214.176 247.912 214.815C247.209 215.454 246.379 215.954 245.421 216.316C244.484 216.657 243.473 216.827 242.387 216.827ZM236.255 207.405H248.551C248.466 206.192 248.136 205.127 247.561 204.212C247.007 203.296 246.273 202.583 245.357 202.072C244.463 201.539 243.473 201.273 242.387 201.273C241.301 201.273 240.311 201.539 239.417 202.072C238.522 202.583 237.788 203.307 237.213 204.244C236.659 205.159 236.34 206.213 236.255 207.405ZM254.041 193.193H256.213V212.739C256.213 213.569 256.362 214.112 256.66 214.368C256.958 214.623 257.32 214.751 257.746 214.751C258.129 214.751 258.513 214.709 258.896 214.623C259.279 214.538 259.609 214.453 259.886 214.368L260.269 216.124C259.865 216.295 259.364 216.433 258.768 216.54C258.193 216.646 257.693 216.699 257.267 216.699C256.288 216.699 255.5 216.412 254.904 215.837C254.329 215.262 254.041 214.474 254.041 213.474V193.193ZM262.647 216.508V199.868H264.819V216.508H262.647ZM262.647 196.387V193.193H264.819V196.387H262.647ZM268.197 215.039L279.344 201.497H268.453V199.868H281.803V201.337L270.721 214.879H281.771V216.508H268.197V215.039Z" fill="#FBFBFE"/>
</g>
<g clip-path="url(#clip2_1_128)">
<path d="M51.1543 287.847H20.2704C11.1599 287.847 3.77432 295.233 3.77432 304.343V335.227C3.77432 344.338 11.1599 351.723 20.2704 351.723H51.1543C60.2648 351.723 67.6503 344.338 67.6503 335.227V304.343C67.6503 295.233 60.2648 287.847 51.1543 287.847Z" fill="#1C3441"/>
<path fill-rule="evenodd" clip-rule="evenodd" d="M37.8926 351.723H7.29998C5.35226 351.723 3.77432 350.144 3.77432 348.198V291.373C3.77432 289.425 5.35226 287.847 7.29998 287.847H64.1252C66.0719 287.847 67.6503 289.425 67.6503 291.373V348.198C67.6503 350.145 66.0719 351.723 64.1252 351.723H47.8478V326.987H56.1506L57.3937 317.346H47.8478V311.192C47.8478 308.401 48.6228 306.499 52.625 306.499L57.7296 306.497V297.875C56.8468 297.758 53.8167 297.495 50.291 297.495C42.9308 297.495 37.8921 301.988 37.8921 310.238V317.347H29.5682V326.987H37.8926V351.723Z" fill="#FEFEFE"/>
<path d="M109.358 311.009C110.933 311.009 112.413 311.307 113.797 311.903C115.202 312.478 116.437 313.308 117.502 314.394C118.588 315.459 119.44 316.736 120.057 318.227C120.674 319.717 120.983 321.367 120.983 323.177C120.983 323.539 120.951 324.029 120.887 324.646C120.845 325.264 120.738 325.924 120.568 326.627C120.398 327.329 120.142 328 119.802 328.639C119.482 329.256 119.035 329.767 118.46 330.172C117.885 330.576 117.172 330.779 116.32 330.779C115.618 330.779 115.075 330.64 114.691 330.363C114.329 330.087 114.074 329.725 113.925 329.277C113.797 328.83 113.701 328.351 113.637 327.84C113.063 328.458 112.296 328.99 111.338 329.437C110.401 329.884 109.368 330.108 108.24 330.108C106.728 330.108 105.547 329.703 104.695 328.894C103.864 328.085 103.449 327.063 103.449 325.828C103.449 324.742 103.747 323.891 104.344 323.273C104.94 322.656 105.685 322.219 106.579 321.964C107.495 321.687 108.421 321.548 109.358 321.548C110.295 321.548 111.114 321.644 111.817 321.836C112.541 322.006 113.073 322.155 113.414 322.283C113.414 321.261 113.297 320.367 113.063 319.6C112.85 318.834 112.456 318.238 111.881 317.812C111.306 317.365 110.497 317.141 109.454 317.141C108.623 317.141 107.825 317.279 107.058 317.556C106.292 317.812 105.6 318.174 104.982 318.642L104.407 317.397C105.174 316.885 105.994 316.481 106.867 316.183C107.74 315.885 108.666 315.736 109.645 315.736C110.838 315.736 111.774 315.927 112.456 316.311C113.158 316.694 113.68 317.216 114.021 317.876C114.361 318.514 114.585 319.217 114.691 319.983C114.798 320.75 114.851 321.517 114.851 322.283V326.403C114.851 327.02 114.883 327.574 114.947 328.064C115.032 328.554 115.192 328.937 115.426 329.214C115.66 329.469 116.022 329.597 116.512 329.597C117.172 329.597 117.715 329.373 118.141 328.926C118.588 328.479 118.929 327.915 119.163 327.233C119.418 326.552 119.589 325.839 119.674 325.094C119.78 324.348 119.833 323.688 119.833 323.113C119.833 321.559 119.567 320.122 119.035 318.802C118.524 317.46 117.789 316.289 116.831 315.289C115.873 314.288 114.755 313.511 113.478 312.957C112.2 312.382 110.816 312.095 109.326 312.095C107.857 312.095 106.483 312.361 105.206 312.893C103.928 313.426 102.8 314.181 101.82 315.161C100.841 316.119 100.074 317.269 99.5209 318.61C98.9673 319.93 98.6905 321.367 98.6905 322.922C98.6905 324.434 98.946 325.849 99.457 327.17C99.9893 328.49 100.724 329.65 101.661 330.651C102.619 331.651 103.737 332.429 105.014 332.982C106.292 333.557 107.676 333.845 109.166 333.845C110.06 333.845 110.901 333.727 111.689 333.493C112.477 333.28 113.265 332.993 114.053 332.631L114.468 333.653C113.616 334.079 112.733 334.398 111.817 334.611C110.923 334.824 110.028 334.93 109.134 334.93C107.537 334.93 106.036 334.632 104.631 334.036C103.247 333.44 102.023 332.599 100.958 331.513C99.8935 330.448 99.0525 329.182 98.435 327.712C97.8388 326.243 97.5407 324.646 97.5407 322.922C97.5407 321.112 97.8601 319.483 98.4989 318.035C99.1589 316.566 100.043 315.31 101.15 314.267C102.257 313.223 103.513 312.425 104.918 311.871C106.345 311.296 107.825 311.009 109.358 311.009ZM111.306 328.032C111.902 327.755 112.349 327.446 112.647 327.106C112.945 326.744 113.137 326.36 113.222 325.956C113.329 325.551 113.382 325.157 113.382 324.774V323.497C113.105 323.475 112.605 323.358 111.881 323.145C111.178 322.911 110.316 322.794 109.294 322.794C108.549 322.794 107.835 322.879 107.154 323.05C106.494 323.22 105.951 323.529 105.525 323.976C105.121 324.402 104.918 324.998 104.918 325.764C104.918 326.36 105.067 326.882 105.366 327.329C105.664 327.776 106.068 328.128 106.579 328.383C107.09 328.617 107.676 328.734 108.336 328.734C108.847 328.734 109.368 328.671 109.901 328.543C110.433 328.394 110.901 328.223 111.306 328.032ZM125.611 330.268V307.592H133.309C135.715 307.592 137.716 308.103 139.313 309.125C140.931 310.125 142.145 311.488 142.954 313.213C143.763 314.916 144.167 316.811 144.167 318.898C144.167 321.197 143.72 323.199 142.826 324.902C141.953 326.605 140.697 327.925 139.057 328.862C137.439 329.799 135.523 330.268 133.309 330.268H125.611ZM141.932 318.898C141.932 317.088 141.591 315.48 140.91 314.075C140.25 312.67 139.281 311.573 138.003 310.785C136.726 309.976 135.161 309.572 133.309 309.572H127.847V328.287H133.309C135.182 328.287 136.758 327.872 138.035 327.042C139.313 326.211 140.282 325.094 140.942 323.688C141.602 322.262 141.932 320.665 141.932 318.898ZM146.529 325.477C146.529 324.434 146.827 323.539 147.423 322.794C148.019 322.028 148.839 321.442 149.882 321.037C150.947 320.612 152.171 320.399 153.555 320.399C154.364 320.399 155.205 320.463 156.078 320.59C156.951 320.718 157.728 320.91 158.41 321.165V319.76C158.41 318.355 157.995 317.237 157.164 316.406C156.334 315.576 155.184 315.161 153.715 315.161C152.821 315.161 151.937 315.331 151.064 315.672C150.212 315.991 149.318 316.47 148.381 317.109L147.551 315.576C148.637 314.831 149.701 314.277 150.745 313.915C151.788 313.532 152.853 313.34 153.938 313.34C155.983 313.34 157.601 313.926 158.793 315.097C159.985 316.268 160.582 317.886 160.582 319.952V327.649C160.582 327.947 160.645 328.17 160.773 328.319C160.901 328.447 161.103 328.522 161.38 328.543V330.268C161.146 330.289 160.944 330.31 160.773 330.331C160.603 330.353 160.475 330.353 160.39 330.331C159.858 330.31 159.453 330.14 159.176 329.82C158.9 329.501 158.75 329.16 158.729 328.798L158.697 327.585C157.952 328.543 156.983 329.288 155.791 329.82C154.599 330.331 153.385 330.587 152.15 330.587C151.085 330.587 150.117 330.363 149.244 329.916C148.392 329.448 147.721 328.83 147.232 328.064C146.763 327.276 146.529 326.414 146.529 325.477ZM157.675 326.754C157.909 326.456 158.09 326.169 158.218 325.892C158.346 325.615 158.41 325.37 158.41 325.157V322.73C157.686 322.453 156.93 322.24 156.142 322.091C155.376 321.942 154.599 321.868 153.811 321.868C152.256 321.868 151 322.177 150.042 322.794C149.084 323.411 148.605 324.253 148.605 325.317C148.605 325.935 148.765 326.52 149.084 327.074C149.403 327.606 149.872 328.053 150.489 328.415C151.107 328.756 151.831 328.926 152.661 328.926C153.704 328.926 154.673 328.724 155.567 328.319C156.483 327.915 157.186 327.393 157.675 326.754ZM169.725 330.268L162.986 313.628H165.254L170.939 328.096L176.656 313.628H178.796L172.057 330.268H169.725ZM181.804 330.268V313.628H183.976V330.268H181.804ZM181.804 310.147V306.953H183.976V310.147H181.804ZM187.642 321.996C187.642 320.42 187.961 318.983 188.6 317.684C189.26 316.364 190.165 315.31 191.315 314.522C192.464 313.734 193.774 313.34 195.243 313.34C196.627 313.34 197.862 313.713 198.948 314.458C200.055 315.182 200.917 316.066 201.535 317.109V306.953H203.707V327.649C203.707 327.947 203.771 328.17 203.898 328.319C204.026 328.447 204.218 328.522 204.473 328.543V330.268C204.047 330.331 203.717 330.353 203.483 330.331C203.036 330.31 202.642 330.129 202.301 329.788C201.961 329.448 201.79 329.075 201.79 328.671V327.042C201.13 328.128 200.236 328.99 199.108 329.629C197.979 330.268 196.808 330.587 195.594 330.587C194.445 330.587 193.38 330.353 192.401 329.884C191.442 329.416 190.601 328.777 189.877 327.968C189.175 327.159 188.621 326.243 188.217 325.221C187.833 324.178 187.642 323.103 187.642 321.996ZM201.535 324.551V319.409C201.258 318.642 200.811 317.95 200.193 317.333C199.576 316.694 198.873 316.194 198.086 315.832C197.319 315.448 196.553 315.257 195.786 315.257C194.892 315.257 194.083 315.448 193.359 315.832C192.635 316.194 192.007 316.694 191.474 317.333C190.963 317.971 190.569 318.695 190.293 319.504C190.016 320.314 189.877 321.144 189.877 321.996C189.877 322.89 190.027 323.742 190.325 324.551C190.644 325.36 191.091 326.084 191.666 326.722C192.241 327.34 192.901 327.819 193.646 328.16C194.391 328.5 195.2 328.671 196.073 328.671C196.627 328.671 197.202 328.564 197.798 328.351C198.394 328.138 198.959 327.851 199.491 327.489C200.044 327.106 200.502 326.659 200.864 326.148C201.226 325.637 201.45 325.104 201.535 324.551ZM216.027 307.592L224.14 327.489L232.22 307.592H234.552L225.162 330.268H223.118L213.696 307.592H216.027ZM242.387 330.587C241.194 330.587 240.087 330.363 239.065 329.916C238.043 329.448 237.16 328.82 236.414 328.032C235.669 327.223 235.084 326.297 234.658 325.253C234.253 324.21 234.051 323.092 234.051 321.9C234.051 320.345 234.402 318.919 235.105 317.62C235.829 316.321 236.819 315.289 238.075 314.522C239.331 313.734 240.758 313.34 242.355 313.34C243.994 313.34 245.421 313.734 246.635 314.522C247.869 315.31 248.838 316.353 249.541 317.652C250.244 318.93 250.595 320.335 250.595 321.868C250.595 322.038 250.595 322.208 250.595 322.379C250.595 322.528 250.584 322.645 250.563 322.73H236.319C236.425 323.923 236.755 324.987 237.309 325.924C237.884 326.84 238.618 327.574 239.512 328.128C240.428 328.66 241.418 328.926 242.483 328.926C243.568 328.926 244.591 328.649 245.549 328.096C246.528 327.542 247.209 326.818 247.593 325.924L249.477 326.435C249.136 327.223 248.615 327.936 247.912 328.575C247.209 329.214 246.379 329.714 245.421 330.076C244.484 330.417 243.473 330.587 242.387 330.587ZM236.255 321.165H248.551C248.466 319.952 248.136 318.887 247.561 317.971C247.007 317.056 246.273 316.343 245.357 315.832C244.463 315.299 243.473 315.033 242.387 315.033C241.301 315.033 240.311 315.299 239.417 315.832C238.522 316.343 237.788 317.066 237.213 318.003C236.659 318.919 236.34 319.973 236.255 321.165ZM254.041 306.953H256.213V326.499C256.213 327.329 256.362 327.872 256.66 328.128C256.958 328.383 257.32 328.511 257.746 328.511C258.129 328.511 258.513 328.468 258.896 328.383C259.279 328.298 259.609 328.213 259.886 328.128L260.269 329.884C259.865 330.055 259.364 330.193 258.768 330.299C258.193 330.406 257.693 330.459 257.267 330.459C256.288 330.459 255.5 330.172 254.904 329.597C254.329 329.022 254.041 328.234 254.041 327.233V306.953ZM262.647 330.268V313.628H264.819V330.268H262.647ZM262.647 310.147V306.953H264.819V310.147H262.647ZM268.197 328.798L279.344 315.257H268.453V313.628H281.803V315.097L270.721 328.639H281.771V330.268H268.197V328.798Z" fill="#FBFBFE"/>
</g>
<g clip-path="url(#clip3_1_128)">
<path d="M21.029 403.179H46.847C56.3596 403.179 64.1016 410.921 64.1017 420.434V446.252C64.1017 455.764 56.3597 463.506 46.847 463.506H21.029C11.5163 463.506 3.77433 455.764 3.77433 446.252V420.434C3.77433 410.921 11.5163 403.179 21.029 403.179ZM46.847 460.629C54.7874 460.629 61.2244 454.192 61.2244 446.252V420.434C61.2244 412.493 54.7874 406.056 46.847 406.056H21.029C13.0886 406.056 6.65159 412.493 6.65159 420.434V446.252C6.65159 454.192 13.0886 460.629 21.029 460.629H46.847Z" fill="#2A3B47" stroke="#FBFBFE" stroke-width="3.54867"/>
<path d="M19.1911 433.342C19.1911 425.213 25.8078 418.596 33.9374 418.596C42.0669 418.596 48.6836 425.213 48.6836 433.342C48.6836 441.472 42.0669 448.088 33.9374 448.088C25.8078 448.088 19.1911 441.472 19.1911 433.342ZM22.0683 433.342C22.0683 439.897 27.3822 445.211 33.9374 445.211C40.4924 445.211 45.8064 439.897 45.8064 433.342C45.8064 426.787 40.4925 421.473 33.9374 421.473C27.3824 421.473 22.0683 426.787 22.0683 433.342Z" fill="#2A3B47" stroke="#FBFBFE" stroke-width="3.54867"/>
<path d="M52.6745 416.945C52.6745 418.152 51.6966 419.13 50.4902 419.13C49.2838 419.13 48.3058 418.152 48.3058 416.945C48.3058 415.739 49.2838 414.761 50.4902 414.761C51.6965 414.761 52.6745 415.739 52.6745 416.945Z" fill="#2A3B47" stroke="#FBFBFE" stroke-width="3.54867"/>
<path d="M107.583 424.566C109.159 424.566 110.639 424.864 112.023 425.461C113.428 426.035 114.663 426.866 115.728 427.952C116.814 429.016 117.665 430.294 118.283 431.784C118.9 433.275 119.209 434.925 119.209 436.735C119.209 437.097 119.177 437.586 119.113 438.204C119.071 438.821 118.964 439.481 118.794 440.184C118.623 440.887 118.368 441.557 118.027 442.196C117.708 442.814 117.261 443.325 116.686 443.729C116.111 444.134 115.398 444.336 114.546 444.336C113.843 444.336 113.3 444.198 112.917 443.921C112.555 443.644 112.3 443.282 112.151 442.835C112.023 442.388 111.927 441.909 111.863 441.398C111.288 442.015 110.522 442.547 109.564 442.995C108.627 443.442 107.594 443.665 106.466 443.665C104.954 443.665 103.772 443.261 102.921 442.452C102.09 441.643 101.675 440.621 101.675 439.386C101.675 438.3 101.973 437.448 102.569 436.831C103.165 436.213 103.911 435.777 104.805 435.521C105.72 435.244 106.647 435.106 107.583 435.106C108.52 435.106 109.34 435.202 110.043 435.393C110.767 435.564 111.299 435.713 111.64 435.84C111.64 434.818 111.522 433.924 111.288 433.158C111.075 432.391 110.681 431.795 110.107 431.369C109.532 430.922 108.723 430.698 107.679 430.698C106.849 430.698 106.05 430.837 105.284 431.114C104.517 431.369 103.825 431.731 103.208 432.2L102.633 430.954C103.4 430.443 104.219 430.038 105.092 429.74C105.965 429.442 106.891 429.293 107.871 429.293C109.063 429.293 110 429.485 110.681 429.868C111.384 430.251 111.906 430.773 112.246 431.433C112.587 432.072 112.811 432.774 112.917 433.541C113.024 434.307 113.077 435.074 113.077 435.84V439.96C113.077 440.578 113.109 441.132 113.173 441.621C113.258 442.111 113.417 442.494 113.652 442.771C113.886 443.027 114.248 443.154 114.738 443.154C115.398 443.154 115.941 442.931 116.366 442.484C116.814 442.036 117.154 441.472 117.388 440.791C117.644 440.109 117.814 439.396 117.899 438.651C118.006 437.906 118.059 437.246 118.059 436.671C118.059 435.117 117.793 433.679 117.261 432.359C116.75 431.018 116.015 429.847 115.057 428.846C114.099 427.845 112.981 427.068 111.703 426.515C110.426 425.94 109.042 425.652 107.552 425.652C106.082 425.652 104.709 425.918 103.432 426.451C102.154 426.983 101.026 427.739 100.046 428.718C99.0667 429.676 98.3002 430.826 97.7466 432.168C97.193 433.488 96.9162 434.925 96.9162 436.479C96.9162 437.991 97.1717 439.407 97.6827 440.727C98.215 442.047 98.9496 443.207 99.8864 444.208C100.845 445.209 101.962 445.986 103.24 446.54C104.517 447.115 105.901 447.402 107.392 447.402C108.286 447.402 109.127 447.285 109.915 447.051C110.703 446.838 111.491 446.55 112.278 446.188L112.694 447.21C111.842 447.636 110.958 447.956 110.043 448.169C109.148 448.381 108.254 448.488 107.36 448.488C105.763 448.488 104.262 448.19 102.857 447.594C101.473 446.997 100.248 446.156 99.1838 445.071C98.1192 444.006 97.2781 442.739 96.6607 441.27C96.0645 439.801 95.7664 438.204 95.7664 436.479C95.7664 434.669 96.0858 433.041 96.7245 431.593C97.3846 430.124 98.2682 428.867 99.3754 427.824C100.483 426.781 101.739 425.982 103.144 425.429C104.571 424.854 106.05 424.566 107.583 424.566ZM109.532 441.589C110.128 441.312 110.575 441.004 110.873 440.663C111.171 440.301 111.363 439.918 111.448 439.513C111.554 439.109 111.608 438.715 111.608 438.332V437.054C111.331 437.033 110.83 436.916 110.107 436.703C109.404 436.469 108.542 436.351 107.52 436.351C106.774 436.351 106.061 436.437 105.38 436.607C104.72 436.777 104.177 437.086 103.751 437.533C103.346 437.959 103.144 438.555 103.144 439.322C103.144 439.918 103.293 440.44 103.591 440.887C103.889 441.334 104.294 441.685 104.805 441.941C105.316 442.175 105.901 442.292 106.561 442.292C107.072 442.292 107.594 442.228 108.126 442.1C108.659 441.951 109.127 441.781 109.532 441.589ZM123.837 443.825V421.149H131.534C133.94 421.149 135.942 421.66 137.539 422.682C139.157 423.683 140.37 425.045 141.179 426.77C141.989 428.473 142.393 430.368 142.393 432.455C142.393 434.755 141.946 436.756 141.052 438.459C140.179 440.163 138.923 441.483 137.283 442.42C135.665 443.357 133.749 443.825 131.534 443.825H123.837ZM140.157 432.455C140.157 430.645 139.817 429.038 139.135 427.632C138.475 426.227 137.507 425.131 136.229 424.343C134.952 423.534 133.387 423.129 131.534 423.129H126.073V441.845H131.534C133.408 441.845 134.984 441.43 136.261 440.599C137.539 439.769 138.507 438.651 139.167 437.246C139.827 435.819 140.157 434.222 140.157 432.455ZM153.407 444.144C152.214 444.144 151.107 443.921 150.085 443.474C149.063 443.005 148.18 442.377 147.434 441.589C146.689 440.78 146.104 439.854 145.678 438.811C145.273 437.767 145.071 436.65 145.071 435.457C145.071 433.903 145.422 432.476 146.125 431.178C146.849 429.879 147.839 428.846 149.095 428.08C150.351 427.292 151.778 426.898 153.375 426.898C155.014 426.898 156.441 427.292 157.655 428.08C158.889 428.867 159.858 429.911 160.561 431.209C161.264 432.487 161.615 433.892 161.615 435.425C161.615 435.596 161.615 435.766 161.615 435.936C161.615 436.085 161.604 436.202 161.583 436.288H147.339C147.445 437.48 147.775 438.545 148.329 439.481C148.904 440.397 149.638 441.132 150.532 441.685C151.448 442.217 152.438 442.484 153.503 442.484C154.588 442.484 155.61 442.207 156.569 441.653C157.548 441.1 158.229 440.376 158.613 439.481L160.497 439.992C160.156 440.78 159.635 441.493 158.932 442.132C158.229 442.771 157.399 443.271 156.441 443.633C155.504 443.974 154.493 444.144 153.407 444.144ZM147.275 434.723H159.571C159.486 433.509 159.156 432.444 158.581 431.529C158.027 430.613 157.293 429.9 156.377 429.389C155.483 428.857 154.493 428.591 153.407 428.591C152.321 428.591 151.331 428.857 150.437 429.389C149.542 429.9 148.808 430.624 148.233 431.561C147.679 432.476 147.36 433.53 147.275 434.723ZM164.966 443.825V427.185H167.137V443.825H164.966ZM164.966 423.704V420.51H167.137V423.704H164.966ZM176.871 443.825L170.132 427.185H172.4L178.085 441.653L183.802 427.185H185.942L179.203 443.825H176.871ZM188.95 443.825V427.185H191.122V443.825H188.95ZM188.95 423.704V420.51H191.122V423.704H188.95ZM194.788 435.553C194.788 433.977 195.107 432.54 195.746 431.241C196.406 429.921 197.311 428.867 198.461 428.08C199.61 427.292 200.92 426.898 202.389 426.898C203.773 426.898 205.008 427.27 206.094 428.016C207.201 428.74 208.063 429.623 208.681 430.666V420.51H210.852V441.206C210.852 441.504 210.916 441.728 211.044 441.877C211.172 442.004 211.364 442.079 211.619 442.1V443.825C211.193 443.889 210.863 443.91 210.629 443.889C210.182 443.868 209.788 443.687 209.447 443.346C209.107 443.005 208.936 442.633 208.936 442.228V440.599C208.276 441.685 207.382 442.547 206.253 443.186C205.125 443.825 203.954 444.144 202.74 444.144C201.59 444.144 200.526 443.91 199.546 443.442C198.588 442.973 197.747 442.335 197.023 441.525C196.321 440.716 195.767 439.801 195.363 438.779C194.979 437.735 194.788 436.66 194.788 435.553ZM208.681 438.108V432.966C208.404 432.2 207.957 431.508 207.339 430.89C206.722 430.251 206.019 429.751 205.231 429.389C204.465 429.006 203.698 428.814 202.932 428.814C202.038 428.814 201.229 429.006 200.505 429.389C199.781 429.751 199.153 430.251 198.62 430.89C198.109 431.529 197.715 432.253 197.439 433.062C197.162 433.871 197.023 434.701 197.023 435.553C197.023 436.447 197.172 437.299 197.47 438.108C197.79 438.917 198.237 439.641 198.812 440.28C199.387 440.897 200.047 441.376 200.792 441.717C201.537 442.058 202.346 442.228 203.219 442.228C203.773 442.228 204.348 442.122 204.944 441.909C205.54 441.696 206.104 441.408 206.637 441.046C207.19 440.663 207.648 440.216 208.01 439.705C208.372 439.194 208.596 438.662 208.681 438.108ZM220.724 443.825L213.985 427.185H216.252L221.937 441.653L227.654 427.185H229.794L223.055 443.825H220.724ZM239.427 444.144C238.235 444.144 237.128 443.921 236.106 443.474C235.084 443.005 234.2 442.377 233.455 441.589C232.71 440.78 232.124 439.854 231.698 438.811C231.294 437.767 231.091 436.65 231.091 435.457C231.091 433.903 231.443 432.476 232.145 431.178C232.869 429.879 233.859 428.846 235.116 428.08C236.372 427.292 237.798 426.898 239.395 426.898C241.035 426.898 242.461 427.292 243.675 428.08C244.91 428.867 245.879 429.911 246.581 431.209C247.284 432.487 247.635 433.892 247.635 435.425C247.635 435.596 247.635 435.766 247.635 435.936C247.635 436.085 247.625 436.202 247.603 436.288H233.359C233.466 437.48 233.796 438.545 234.349 439.481C234.924 440.397 235.659 441.132 236.553 441.685C237.468 442.217 238.458 442.484 239.523 442.484C240.609 442.484 241.631 442.207 242.589 441.653C243.569 441.1 244.25 440.376 244.633 439.481L246.518 439.992C246.177 440.78 245.655 441.493 244.953 442.132C244.25 442.771 243.42 443.271 242.461 443.633C241.525 443.974 240.513 444.144 239.427 444.144ZM233.295 434.723H245.591C245.506 433.509 245.176 432.444 244.601 431.529C244.048 430.613 243.313 429.9 242.398 429.389C241.503 428.857 240.513 428.591 239.427 428.591C238.341 428.591 237.351 428.857 236.457 429.389C235.563 429.9 234.828 430.624 234.253 431.561C233.7 432.476 233.38 433.53 233.295 434.723ZM251.082 420.51H253.254V440.056C253.254 440.887 253.403 441.43 253.701 441.685C253.999 441.941 254.361 442.068 254.787 442.068C255.17 442.068 255.553 442.026 255.936 441.941C256.32 441.855 256.65 441.77 256.927 441.685L257.31 443.442C256.905 443.612 256.405 443.75 255.809 443.857C255.234 443.963 254.733 444.017 254.308 444.017C253.328 444.017 252.54 443.729 251.944 443.154C251.369 442.579 251.082 441.792 251.082 440.791V420.51ZM259.688 443.825V427.185H261.86V443.825H259.688ZM259.688 423.704V420.51H261.86V423.704H259.688ZM265.238 442.356L276.384 428.814H265.493V427.185H278.843V428.654L267.761 442.196H278.812V443.825H265.238V442.356ZM281.117 433.381C281.117 434.808 281.458 436.107 282.139 437.278C282.842 438.427 283.789 439.343 284.982 440.024C286.174 440.706 287.483 441.046 288.91 441.046C289.889 441.046 290.794 440.876 291.625 440.535C292.455 440.195 293.19 439.716 293.828 439.098C294.467 438.459 294.936 437.735 295.234 436.926C295.212 439.013 294.936 440.791 294.403 442.26C293.892 443.729 293.168 444.858 292.232 445.645C291.316 446.433 290.219 446.827 288.942 446.827C287.771 446.827 286.696 446.497 285.716 445.837C284.737 445.177 284.023 444.315 283.576 443.25L282.171 444.528C282.789 445.826 283.693 446.848 284.886 447.594C286.099 448.36 287.451 448.743 288.942 448.743C290.603 448.743 292.061 448.243 293.317 447.242C294.574 446.242 295.553 444.741 296.256 442.739C296.958 440.716 297.31 438.161 297.31 435.074C297.31 433.094 296.958 431.401 296.256 429.996C295.574 428.569 294.616 427.483 293.381 426.738C292.168 425.972 290.762 425.588 289.165 425.588C287.675 425.588 286.312 425.94 285.077 426.642C283.864 427.345 282.895 428.282 282.171 429.453C281.468 430.624 281.117 431.933 281.117 433.381ZM289.134 427.505C290.198 427.505 291.178 427.771 292.072 428.303C292.987 428.835 293.711 429.549 294.244 430.443C294.776 431.337 295.042 432.317 295.042 433.381C295.042 434.446 294.776 435.425 294.244 436.32C293.711 437.214 292.998 437.927 292.104 438.459C291.209 438.992 290.219 439.258 289.134 439.258C288.069 439.258 287.079 438.992 286.163 438.459C285.269 437.927 284.545 437.214 283.992 436.32C283.459 435.425 283.193 434.446 283.193 433.381C283.193 432.295 283.459 431.316 283.992 430.443C284.545 429.549 285.269 428.835 286.163 428.303C287.058 427.771 288.048 427.505 289.134 427.505ZM300.086 443.825C300.086 443.101 300.15 442.377 300.278 441.653C300.406 440.908 300.651 440.173 301.012 439.449C301.374 438.726 301.907 438.034 302.609 437.373C303.312 436.692 304.238 436.053 305.388 435.457C306.005 435.138 306.644 434.829 307.304 434.531C307.964 434.212 308.582 433.871 309.157 433.509C309.753 433.126 310.221 432.7 310.562 432.231C310.924 431.742 311.105 431.167 311.105 430.507C311.105 429.975 310.945 429.453 310.626 428.942C310.328 428.431 309.859 428.016 309.221 427.696C308.603 427.377 307.826 427.217 306.889 427.217C306.208 427.217 305.59 427.313 305.037 427.505C304.483 427.696 303.993 427.941 303.568 428.239C303.142 428.516 302.78 428.803 302.482 429.102C302.184 429.378 301.939 429.613 301.747 429.804L300.374 428.303C300.48 428.175 300.714 427.952 301.076 427.632C301.46 427.292 301.939 426.94 302.514 426.578C303.11 426.216 303.802 425.908 304.59 425.652C305.399 425.397 306.282 425.269 307.24 425.269C308.539 425.269 309.646 425.503 310.562 425.972C311.499 426.419 312.212 427.026 312.702 427.792C313.191 428.559 313.436 429.389 313.436 430.283C313.436 431.156 313.245 431.912 312.861 432.551C312.5 433.168 312.02 433.711 311.424 434.18C310.849 434.627 310.243 435.021 309.604 435.361C308.986 435.681 308.422 435.958 307.911 436.192C306.91 436.66 306.069 437.129 305.388 437.597C304.707 438.065 304.164 438.545 303.759 439.034C303.355 439.503 303.035 439.971 302.801 440.44C302.588 440.887 302.439 441.355 302.354 441.845H313.788V443.825H300.086Z" fill="#FBFBFE"/>
</g>
</g>
<defs>
<clipPath id="clip0_1_128">
<rect width="596.176" height="291.396" fill="white" transform="translate(2 173.885)"/>
</clipPath>
<clipPath id="clip1_1_128">
<rect width="592.627" height="64.2812" fill="white" transform="translate(3.77432 173.885)"/>
</clipPath>
<clipPath id="clip2_1_128">
<rect width="592.627" height="63.876" fill="white" transform="translate(3.77432 287.847)"/>
</clipPath>
<clipPath id="clip3_1_128">
<rect width="596.176" height="63.876" fill="white" transform="translate(2 401.405)"/>
</clipPath>
</defs>
</svg>
