<svg width="593" height="65" viewBox="0 0 593 65" fill="none" xmlns="http://www.w3.org/2000/svg">
<g clip-path="url(#clip0_1_110)">
<g clip-path="url(#clip1_1_110)">
<path d="M44.9029 0.864151H19.6909C16.2168 0.864151 13.3879 3.69299 13.3879 7.16715V57.5911C13.3879 61.0678 16.2168 63.8941 19.6909 63.8941H44.9029C48.3797 63.8941 51.2059 61.0678 51.2059 57.5911V7.16715C51.2059 3.69299 48.3797 0.864151 44.9029 0.864151ZM48.6847 57.5911C48.6847 59.6761 46.9879 61.3729 44.9029 61.3729H19.6909C17.6059 61.3729 15.9091 59.6761 15.9091 57.5911V7.16715C15.9091 5.08211 17.6059 3.38535 19.6909 3.38535H44.9029C46.9879 3.38535 48.6847 5.08211 48.6847 7.16715V57.5911Z" fill="#FBFBFE"/>
<path fill-rule="evenodd" clip-rule="evenodd" d="M12.9649 7.16716C12.9649 3.45938 15.9831 0.441147 19.6909 0.441147H44.9029C48.6134 0.441147 51.6289 3.45949 51.6289 7.16716V57.5911C51.6289 61.3015 48.6132 64.3171 44.9029 64.3171H19.6909C15.9832 64.3171 12.9649 61.3016 12.9649 57.5911V7.16716ZM19.6909 1.28719C16.4504 1.28719 13.8109 3.92664 13.8109 7.16716V57.5911C13.8109 60.8341 16.4503 63.4711 19.6909 63.4711H44.9029C48.146 63.4711 50.7828 60.8342 50.7828 57.5911V7.16716C50.7828 3.92652 48.1459 1.28719 44.9029 1.28719H19.6909ZM19.6909 3.80839C17.8395 3.80839 16.3321 5.31576 16.3321 7.16716V57.5911C16.3321 59.4425 17.8395 60.9499 19.6909 60.9499H44.9029C46.7543 60.9499 48.2616 59.4425 48.2616 57.5911V7.16716C48.2616 5.31576 46.7543 3.80839 44.9029 3.80839H19.6909ZM15.4861 7.16716C15.4861 4.8485 17.3722 2.96234 19.6909 2.96234H44.9029C47.2215 2.96234 49.1077 4.8485 49.1077 7.16716V57.5911C49.1077 59.9098 47.2215 61.7959 44.9029 61.7959H19.6909C17.3722 61.7959 15.4861 59.9098 15.4861 57.5911V7.16716Z" fill="#FBFBFE"/>
<path d="M34.8182 5.90645H29.7758C29.0799 5.90645 28.5152 6.47126 28.5152 7.16705C28.5152 7.86284 29.08 8.42765 29.7758 8.42765H34.8182C35.514 8.42765 36.0788 7.86284 36.0788 7.16705C36.0788 6.47126 35.514 5.90645 34.8182 5.90645Z" fill="#FBFBFE"/>
<path fill-rule="evenodd" clip-rule="evenodd" d="M28.0921 7.16707C28.0921 6.23767 28.8461 5.48344 29.7757 5.48344H34.8181C35.7475 5.48344 36.5017 6.23765 36.5017 7.16707C36.5017 8.09649 35.7475 8.85069 34.8181 8.85069H29.7757C28.8463 8.85069 28.0921 8.09649 28.0921 7.16707ZM29.7757 6.32949C29.3135 6.32949 28.9381 6.70488 28.9381 7.16707C28.9381 7.62923 29.3135 8.00464 29.7757 8.00464H34.8181C35.2803 8.00464 35.6557 7.62923 35.6557 7.16707C35.6557 6.7049 35.2803 6.32949 34.8181 6.32949H29.7757Z" fill="#FBFBFE"/>
<path d="M32.2969 56.3305C31.6011 56.3305 31.0363 56.8953 31.0363 57.5911C31.0363 58.2869 31.6011 58.8517 32.2969 58.8517C32.9927 58.8517 33.5575 58.2869 33.5575 57.5911C33.5575 56.8953 32.9927 56.3305 32.2969 56.3305Z" fill="#2A3B47" stroke="#FBFBFE" stroke-width="1.41947"/>
<path fill-rule="evenodd" clip-rule="evenodd" d="M30.6133 57.5911C30.6133 56.6617 31.3675 55.9075 32.2969 55.9075C33.2264 55.9075 33.9806 56.6617 33.9806 57.5911C33.9806 58.5205 33.2264 59.2747 32.2969 59.2747C31.3675 59.2747 30.6133 58.5205 30.6133 57.5911ZM32.2969 56.7535C31.8347 56.7535 31.4593 57.1289 31.4593 57.5911C31.4593 58.0532 31.8347 58.4287 32.2969 58.4287C32.7591 58.4287 33.1345 58.0532 33.1345 57.5911C33.1345 57.1289 32.7591 56.7535 32.2969 56.7535Z" fill="#2A3B47" stroke="#FBFBFE" stroke-width="1.41947"/>
<path d="M49.9453 10.949H14.6485C13.9526 10.949 13.3879 11.5138 13.3879 12.2096C13.3879 12.9055 13.9526 13.4702 14.6485 13.4702H49.9453C50.6411 13.4702 51.2059 12.9054 51.2059 12.2096C51.2059 11.5138 50.6411 10.949 49.9453 10.949Z" fill="#FBFBFE"/>
<path fill-rule="evenodd" clip-rule="evenodd" d="M12.9649 12.2096C12.9649 11.2802 13.7189 10.526 14.6485 10.526H49.9453C50.8747 10.526 51.6289 11.2802 51.6289 12.2096C51.6289 13.139 50.8747 13.8932 49.9453 13.8932H14.6485C13.719 13.8932 12.9649 13.1391 12.9649 12.2096ZM14.6485 11.372C14.1862 11.372 13.8109 11.7474 13.8109 12.2096C13.8109 12.6719 14.1862 13.0472 14.6485 13.0472H49.9453C50.4074 13.0472 50.7828 12.6717 50.7828 12.2096C50.7828 11.7474 50.4074 11.372 49.9453 11.372H14.6485Z" fill="#FBFBFE"/>
<path d="M49.9453 51.2882H14.6485C13.9526 51.2882 13.3879 51.853 13.3879 52.5488C13.3879 53.2446 13.9526 53.8094 14.6485 53.8094H49.9453C50.6411 53.8094 51.2059 53.2446 51.2059 52.5488C51.2059 51.853 50.6411 51.2882 49.9453 51.2882Z" fill="#FBFBFE"/>
<path fill-rule="evenodd" clip-rule="evenodd" d="M12.9649 52.5488C12.9649 51.6194 13.7189 50.8652 14.6485 50.8652H49.9453C50.8747 50.8652 51.6289 51.6194 51.6289 52.5488C51.6289 53.4782 50.8747 54.2324 49.9453 54.2324H14.6485C13.7189 54.2324 12.9649 53.4782 12.9649 52.5488ZM14.6485 51.7112C14.1862 51.7112 13.8109 52.0866 13.8109 52.5488C13.8109 53.011 14.1862 53.3864 14.6485 53.3864H49.9453C50.4074 53.3864 50.7828 53.011 50.7828 52.5488C50.7828 52.0866 50.4074 51.7112 49.9453 51.7112H14.6485Z" fill="#FBFBFE"/>
</g>
<path d="M105.506 31.4957V33.483H101.106V38.2737H98.8699V33.483H94.4695V31.4957H98.8699V26.705H101.106V31.4957H105.506ZM116.65 50.3747C114.876 50.3747 113.267 49.9252 111.824 49.0262C110.381 48.1508 109.304 46.9916 108.595 45.5485L110.192 44.3419C110.854 45.5012 111.753 46.4356 112.889 47.1454C114.048 47.8551 115.313 48.21 116.686 48.21C117.868 48.21 118.921 47.9497 119.844 47.4293C120.79 46.9088 121.535 46.1872 122.08 45.2646C122.647 44.3419 122.931 43.2773 122.931 42.0708C122.931 40.9115 122.659 39.8943 122.115 39.0189C121.595 38.1199 120.873 37.422 119.95 36.9252C119.051 36.4284 118.034 36.18 116.899 36.18C115.81 36.18 114.769 36.4284 113.776 36.9252C112.782 37.3984 111.978 38.0963 111.363 39.0189H109.127L111.93 24.8243H124.102V27.0599H113.74L112.001 36.109C112.616 35.4466 113.373 34.938 114.272 34.5831C115.171 34.2046 116.141 34.0153 117.182 34.0153C118.72 34.0153 120.104 34.3583 121.334 35.0444C122.588 35.7305 123.582 36.6768 124.315 37.8833C125.049 39.0899 125.415 40.4739 125.415 42.0353C125.415 43.6913 125.013 45.1463 124.209 46.4001C123.428 47.654 122.375 48.624 121.05 49.3101C119.726 50.0198 118.259 50.3747 116.65 50.3747ZM139.323 49.5939V43.2773H127.506V41.1481L140.104 24.8243H141.736V41.0771H144.859V43.2773H141.736V49.5939H139.323ZM130.061 41.0771H139.572V28.6213L130.061 41.0771ZM156.669 32.8088C156.669 30.3957 157.154 28.0535 158.123 25.7824C159.093 23.4876 160.265 21.181 161.637 18.8625L163.482 19.7497C163.009 20.4594 162.5 21.3347 161.956 22.3757C161.436 23.4166 160.939 24.5404 160.466 25.7469C160.016 26.9298 159.649 28.1363 159.366 29.3665C159.082 30.5968 158.94 31.7796 158.94 32.9152C158.94 34.7605 159.342 36.7714 160.146 38.9479C160.951 41.1245 162.051 43.2892 163.446 45.442L161.637 46.4001C160.643 44.9097 159.768 43.4074 159.011 41.8933C158.277 40.3792 157.698 38.8651 157.272 37.351C156.87 35.8133 156.669 34.2992 156.669 32.8088ZM176.809 36.7123C177.874 36.8779 178.785 37.2564 179.542 37.8479C180.299 38.4393 180.89 39.1845 181.316 40.0835C181.742 40.9825 181.955 41.9998 181.955 43.1354C181.955 44.5548 181.612 45.8087 180.926 46.897C180.24 47.9852 179.281 48.8251 178.051 49.4165C176.821 50.008 175.39 50.3037 173.757 50.3037C171.959 50.3037 170.386 49.937 169.038 49.2036C167.689 48.4939 166.672 47.5002 165.986 46.2227L167.654 44.6968C168.174 45.7141 168.943 46.5303 169.96 47.1454C170.978 47.7841 172.243 48.1035 173.757 48.1035C175.508 48.1035 176.892 47.6658 177.909 46.7905C178.95 45.9388 179.471 44.7086 179.471 43.0999C179.471 41.4912 178.927 40.2136 177.838 39.2673C176.774 38.2974 175.248 37.8124 173.26 37.8124H172.373V35.7541H173.331C175.153 35.7541 176.549 35.3283 177.519 34.4766C178.489 33.6249 178.974 32.5367 178.974 31.2119C178.974 30.2419 178.749 29.4375 178.3 28.7988C177.85 28.16 177.235 27.675 176.454 27.3438C175.697 27.0126 174.822 26.847 173.828 26.847C172.48 26.847 171.285 27.1545 170.244 27.7696C169.227 28.3611 168.458 29.1891 167.937 30.2537L166.376 28.7633C166.778 27.9353 167.358 27.2137 168.115 26.5986C168.872 25.9835 169.759 25.5103 170.776 25.1791C171.794 24.8243 172.882 24.6468 174.041 24.6468C175.508 24.6468 176.797 24.9189 177.909 25.463C179.021 25.9835 179.896 26.7169 180.535 27.6632C181.174 28.6095 181.493 29.7214 181.493 30.9989C181.493 31.9452 181.304 32.8206 180.926 33.6249C180.547 34.4293 180.003 35.1036 179.293 35.6477C178.607 36.1918 177.779 36.5467 176.809 36.7123ZM202.863 38.0963C202.863 39.5631 202.449 40.8406 201.621 41.9288C200.816 43.0171 199.74 43.8688 198.391 44.4839C197.067 45.0753 195.612 45.371 194.027 45.371C192.347 45.371 190.856 45.0398 189.555 44.3774C188.254 43.6913 187.225 42.7923 186.468 41.6804C185.735 40.5685 185.368 39.3265 185.368 37.9543C185.368 36.8897 185.616 35.9316 186.113 35.0799C186.633 34.2046 187.272 33.4712 188.029 32.8797C188.81 32.2883 189.603 31.8624 190.407 31.6022C189.674 31.2947 188.987 30.8925 188.349 30.3957C187.71 29.8752 187.201 29.2719 186.823 28.5858C186.444 27.8998 186.255 27.1427 186.255 26.3147C186.255 25.2738 186.48 24.3629 186.929 23.5822C187.402 22.7779 188.017 22.1036 188.775 21.5595C189.532 20.9917 190.371 20.5777 191.294 20.3174C192.24 20.0336 193.187 19.8916 194.133 19.8916C195.056 19.8916 195.978 20.0336 196.901 20.3174C197.847 20.5777 198.699 20.9799 199.456 21.524C200.237 22.0681 200.852 22.7424 201.301 23.5467C201.774 24.3274 202.011 25.2383 202.011 26.2792C202.011 27.1072 201.81 27.8761 201.408 28.5858C201.029 29.2719 200.521 29.8752 199.882 30.3957C199.243 30.8925 198.545 31.2947 197.788 31.6022C198.711 31.9098 199.551 32.3829 200.308 33.0217C201.088 33.6368 201.704 34.3702 202.153 35.2218C202.626 36.0735 202.863 37.0317 202.863 38.0963ZM200.414 37.9188C200.414 37.0672 200.225 36.3219 199.846 35.6832C199.492 35.0208 198.995 34.4648 198.356 34.0153C197.741 33.5658 197.055 33.2228 196.298 32.9862C195.564 32.7496 194.819 32.6313 194.062 32.6313C193.045 32.6313 192.051 32.8561 191.081 33.3056C190.135 33.7314 189.354 34.3465 188.739 35.1509C188.148 35.9316 187.852 36.8661 187.852 37.9543C187.852 38.7823 188.029 39.5157 188.384 40.1545C188.763 40.7933 189.26 41.3492 189.875 41.8224C190.49 42.2719 191.164 42.6149 191.897 42.8515C192.654 43.0881 193.411 43.2063 194.169 43.2063C195.186 43.2063 196.168 42.9934 197.114 42.5676C198.084 42.1181 198.876 41.4912 199.492 40.6868C200.107 39.8824 200.414 38.9598 200.414 37.9188ZM188.668 26.4212C188.668 27.3202 188.94 28.1009 189.484 28.7633C190.052 29.402 190.762 29.887 191.613 30.2182C192.465 30.5494 193.293 30.715 194.098 30.715C194.949 30.715 195.789 30.5494 196.617 30.2182C197.469 29.8634 198.167 29.3665 198.711 28.7278C199.279 28.0654 199.562 27.2728 199.562 26.3502C199.562 25.4512 199.302 24.6823 198.782 24.0435C198.261 23.4048 197.575 22.9198 196.724 22.5886C195.896 22.2574 195.008 22.0918 194.062 22.0918C193.163 22.0918 192.288 22.2692 191.436 22.6241C190.608 22.9553 189.934 23.4521 189.413 24.1145C188.916 24.7533 188.668 25.5222 188.668 26.4212ZM219.037 42.887V45.0871H207.007V42.887H212.046V27.6987C211.856 27.9826 211.537 28.2901 211.088 28.6213C210.638 28.9525 210.118 29.2601 209.526 29.544C208.958 29.8279 208.391 30.0645 207.823 30.2537C207.255 30.443 206.735 30.5376 206.261 30.5376V28.1955C206.806 28.1955 207.397 28.0417 208.036 27.7342C208.675 27.4266 209.29 27.0717 209.881 26.6696C210.473 26.2674 210.969 25.8889 211.372 25.534C211.774 25.1791 211.998 24.9425 212.046 24.8243H214.53V42.887H219.037ZM227.757 32.8088C227.757 34.2992 227.556 35.8133 227.154 37.351C226.751 38.8651 226.172 40.3792 225.415 41.8933C224.658 43.4074 223.782 44.9097 222.789 46.4001L221.014 45.442C222.41 43.2892 223.51 41.1245 224.315 38.9479C225.119 36.7714 225.521 34.7605 225.521 32.9152C225.521 31.7796 225.379 30.5968 225.095 29.3665C224.812 28.1363 224.433 26.9298 223.96 25.7469C223.487 24.5404 222.99 23.4166 222.469 22.3757C221.949 21.3347 221.44 20.4594 220.943 19.7497L222.824 18.8625C224.196 21.181 225.356 23.4876 226.302 25.7824C227.272 28.0535 227.757 30.3957 227.757 32.8088ZM250.982 49.5939V43.2773H239.164V41.1481L251.762 24.8243H253.395V41.0771H256.517V43.2773H253.395V49.5939H250.982ZM241.72 41.0771H251.23V28.6213L241.72 41.0771ZM277.486 34.6895C277.486 36.7714 277.096 38.6286 276.315 40.261C275.558 41.8697 274.506 43.1354 273.157 44.058C271.809 44.9807 270.283 45.442 268.579 45.442C266.876 45.442 265.35 44.9807 264.002 44.058C262.677 43.1354 261.624 41.8697 260.843 40.261C260.063 38.6286 259.672 36.7714 259.672 34.6895C259.672 32.6077 260.063 30.7624 260.843 29.1536C261.624 27.5212 262.677 26.2437 264.002 25.3211C265.35 24.3748 266.876 23.9016 268.579 23.9016C270.283 23.9016 271.809 24.3748 273.157 25.3211C274.506 26.2437 275.558 27.5212 276.315 29.1536C277.096 30.7624 277.486 32.6077 277.486 34.6895ZM275.038 34.6895C275.038 33.0098 274.766 31.5312 274.222 30.2537C273.678 28.9762 272.921 27.9826 271.951 27.2728C270.981 26.5394 269.857 26.1727 268.579 26.1727C267.302 26.1727 266.178 26.5394 265.208 27.2728C264.238 27.9826 263.469 28.9762 262.901 30.2537C262.357 31.5312 262.085 33.0098 262.085 34.6895C262.085 36.3693 262.357 37.8479 262.901 39.1254C263.469 40.4029 264.238 41.3965 265.208 42.1063C266.178 42.816 267.302 43.1709 268.579 43.1709C269.857 43.1709 270.981 42.816 271.951 42.1063C272.921 41.3729 273.678 40.3792 274.222 39.1254C274.766 37.8479 275.038 36.3693 275.038 34.6895ZM299.286 36.7833C299.286 35.1982 298.896 33.7669 298.115 32.4894C297.358 31.1882 296.317 30.1591 294.992 29.402C293.691 28.645 292.236 28.2665 290.627 28.2665C289.563 28.2665 288.557 28.4557 287.611 28.8342C286.688 29.2128 285.884 29.7451 285.198 30.4311C284.512 31.1172 283.991 31.9216 283.636 32.8442C283.636 30.5258 283.92 28.5504 284.488 26.918C285.08 25.2856 285.896 24.0317 286.937 23.1564C287.978 22.281 289.196 21.8434 290.592 21.8434C291.917 21.8434 293.111 22.2101 294.176 22.9435C295.264 23.6532 296.057 24.6113 296.554 25.8179L298.115 24.3984C297.429 22.9553 296.424 21.8197 295.099 20.9917C293.774 20.14 292.272 19.7142 290.592 19.7142C288.747 19.7142 287.126 20.2701 285.73 21.382C284.334 22.494 283.246 24.1737 282.465 26.4212C281.685 28.645 281.294 31.4721 281.294 34.9025C281.294 37.079 281.685 38.9598 282.465 40.5448C283.246 42.1299 284.311 43.3483 285.659 44.2C287.031 45.028 288.593 45.442 290.343 45.442C292.023 45.442 293.537 45.0517 294.886 44.2709C296.234 43.4902 297.299 42.4493 298.08 41.1481C298.884 39.8233 299.286 38.3683 299.286 36.7833ZM290.414 43.3128C289.208 43.3128 288.108 43.0171 287.114 42.4256C286.121 41.8342 285.316 41.0417 284.701 40.048C284.11 39.0544 283.814 37.9662 283.814 36.7833C283.814 35.5767 284.11 34.4885 284.701 33.5185C285.293 32.5249 286.085 31.7323 287.079 31.1409C288.096 30.5494 289.208 30.2537 290.414 30.2537C291.597 30.2537 292.686 30.5494 293.679 31.1409C294.673 31.7323 295.465 32.5249 296.057 33.5185C296.672 34.5121 296.979 35.6004 296.979 36.7833C296.979 37.9662 296.672 39.0544 296.057 40.048C295.465 41.0417 294.673 41.8342 293.679 42.4256C292.686 43.0171 291.597 43.3128 290.414 43.3128ZM302.109 33.483C302.109 35.0681 302.487 36.5112 303.244 37.8124C304.025 39.0899 305.078 40.1072 306.403 40.8642C307.727 41.6213 309.182 41.9998 310.767 41.9998C311.856 41.9998 312.861 41.8105 313.784 41.432C314.706 41.0535 315.523 40.5212 316.232 39.8351C316.942 39.1254 317.463 38.321 317.794 37.422C317.77 39.7405 317.463 41.7159 316.871 43.3483C316.303 44.9807 315.499 46.2345 314.458 47.1099C313.441 47.9852 312.222 48.4229 310.803 48.4229C309.502 48.4229 308.307 48.0562 307.219 47.3228C306.131 46.5894 305.338 45.6313 304.841 44.4484L303.28 45.8678C303.966 47.311 304.971 48.4465 306.296 49.2746C307.645 50.1263 309.147 50.5521 310.803 50.5521C312.648 50.5521 314.269 49.9961 315.665 48.8842C317.06 47.7723 318.149 46.1044 318.929 43.8806C319.71 41.6331 320.1 38.7942 320.1 35.3638C320.1 33.1636 319.71 31.2828 318.929 29.7214C318.172 28.1363 317.108 26.9298 315.736 26.1018C314.387 25.2501 312.826 24.8243 311.051 24.8243C309.395 24.8243 307.881 25.2146 306.509 25.9953C305.161 26.776 304.084 27.817 303.28 29.1181C302.499 30.4193 302.109 31.8743 302.109 33.483ZM311.016 26.9535C312.199 26.9535 313.287 27.2492 314.281 27.8406C315.298 28.4321 316.102 29.2246 316.694 30.2182C317.285 31.2119 317.581 32.3001 317.581 33.483C317.581 34.6659 317.285 35.7541 316.694 36.7478C316.102 37.7414 315.31 38.5339 314.316 39.1254C313.322 39.7168 312.222 40.0125 311.016 40.0125C309.833 40.0125 308.733 39.7168 307.716 39.1254C306.722 38.5339 305.918 37.7414 305.302 36.7478C304.711 35.7541 304.415 34.6659 304.415 33.483C304.415 32.2765 304.711 31.1882 305.302 30.2182C305.918 29.2246 306.722 28.4321 307.716 27.8406C308.709 27.2492 309.809 26.9535 311.016 26.9535ZM336.18 26.6341H322.588V24.3984H340.012L327.272 49.5939H324.504L336.18 26.6341ZM360.21 36.7833C360.21 35.1982 359.819 33.7669 359.038 32.4894C358.281 31.1882 357.24 30.1591 355.916 29.402C354.614 28.645 353.159 28.2665 351.551 28.2665C350.486 28.2665 349.481 28.4557 348.534 28.8342C347.612 29.2128 346.807 29.7451 346.121 30.4311C345.435 31.1172 344.915 31.9216 344.56 32.8442C344.56 30.5258 344.844 28.5504 345.412 26.918C346.003 25.2856 346.819 24.0317 347.86 23.1564C348.901 22.281 350.119 21.8434 351.515 21.8434C352.84 21.8434 354.035 22.2101 355.099 22.9435C356.188 23.6532 356.98 24.6113 357.477 25.8179L359.038 24.3984C358.352 22.9553 357.347 21.8197 356.022 20.9917C354.697 20.14 353.195 19.7142 351.515 19.7142C349.67 19.7142 348.049 20.2701 346.654 21.382C345.258 22.494 344.17 24.1737 343.389 26.4212C342.608 28.645 342.218 31.4721 342.218 34.9025C342.218 37.079 342.608 38.9598 343.389 40.5448C344.17 42.1299 345.234 43.3483 346.583 44.2C347.955 45.028 349.516 45.442 351.267 45.442C352.947 45.442 354.461 45.0517 355.809 44.2709C357.158 43.4902 358.222 42.4493 359.003 41.1481C359.807 39.8233 360.21 38.3683 360.21 36.7833ZM351.338 43.3128C350.131 43.3128 349.031 43.0171 348.038 42.4256C347.044 41.8342 346.24 41.0417 345.624 40.048C345.033 39.0544 344.737 37.9662 344.737 36.7833C344.737 35.5767 345.033 34.4885 345.624 33.5185C346.216 32.5249 347.008 31.7323 348.002 31.1409C349.019 30.5494 350.131 30.2537 351.338 30.2537C352.521 30.2537 353.609 30.5494 354.603 31.1409C355.596 31.7323 356.389 32.5249 356.98 33.5185C357.595 34.5121 357.903 35.6004 357.903 36.7833C357.903 37.9662 357.595 39.0544 356.98 40.048C356.389 41.0417 355.596 41.8342 354.603 42.4256C353.609 43.0171 352.521 43.3128 351.338 43.3128ZM376.553 26.6341H362.961V24.3984H380.385L367.645 49.5939H364.877L376.553 26.6341Z" fill="#FBFBFE"/>
</g>
<defs>
<clipPath id="clip0_1_110">
<rect width="592.627" height="63.876" fill="white" transform="translate(0.358902 0.441147)"/>
</clipPath>
<clipPath id="clip1_1_110">
<rect width="63.876" height="63.876" fill="white" transform="translate(0.358902 0.441147)"/>
</clipPath>
</defs>
</svg>
