<svg width="372" height="116" viewBox="0 0 372 116" fill="none" xmlns="http://www.w3.org/2000/svg">
<path d="M5.4635 22.0093H16.5353C21.3805 22.0093 24.9954 22.9367 27.3801 24.7914C29.7648 26.6083 30.9571 29.7501 30.9571 34.2167C30.9571 37.1313 30.5218 39.516 29.6512 41.3708C28.8185 43.1877 27.3611 44.5126 25.2793 45.3453L31.6952 68H23.292L17.7845 46.9351H13.81V68H5.4635V22.0093ZM16.4786 41.7115C18.8633 41.7115 20.5477 41.1626 21.5319 40.0649C22.5539 38.9672 23.0649 37.1692 23.0649 34.6709C23.0649 32.2484 22.6107 30.4882 21.7022 29.3905C20.8316 28.2928 19.2418 27.7439 16.9328 27.7439H13.81V41.7115H16.4786ZM37.2906 22.0093H56.5954V27.9143H45.6371V41.1437H54.2674V46.9919H45.6371V62.2654H56.7089V68H37.2906V22.0093ZM61.5768 22.0093H72.4215C76.1311 22.0093 79.0457 22.5203 81.1654 23.5423C83.2852 24.5265 84.7803 26.0595 85.6509 28.1414C86.5594 30.1854 87.0136 32.9108 87.0136 36.3175V53.0672C87.0136 56.5496 86.5594 59.3696 85.6509 61.5272C84.7803 63.6848 83.3041 65.3125 81.2222 66.4102C79.1403 67.4701 76.3203 68 72.7622 68H61.5768V22.0093ZM72.5351 62.1518C74.3898 62.1518 75.7336 61.8301 76.5664 61.1866C77.3991 60.5431 77.929 59.6535 78.1562 58.518C78.3833 57.3445 78.4968 55.6222 78.4968 53.3511V35.7497C78.4968 33.7057 78.3644 32.1537 78.0994 31.0939C77.8344 30.034 77.2666 29.258 76.396 28.7659C75.5633 28.236 74.2384 27.971 72.4215 27.971H69.9233V62.1518H72.5351ZM93.1821 22.0093H112.487V27.9143H101.529V41.1437H110.159V46.9919H101.529V62.2654H112.6V68H93.1821V22.0093ZM129.051 68.6246C124.887 68.6246 121.765 67.4511 119.683 65.1043C117.639 62.7574 116.522 59.2561 116.333 54.6002L123.544 53.1808C123.657 56.0954 124.111 58.3287 124.906 59.8807C125.739 61.3947 127.026 62.1518 128.767 62.1518C130.054 62.1518 131.001 61.7733 131.606 61.0162C132.25 60.2213 132.571 59.1615 132.571 57.8366C132.571 56.0197 132.155 54.4867 131.322 53.2375C130.527 51.9506 129.259 50.55 127.518 49.0359L121.727 43.9826C119.948 42.4685 118.604 40.8409 117.695 39.0997C116.825 37.3584 116.389 35.2766 116.389 32.854C116.389 29.258 117.43 26.4759 119.512 24.5075C121.632 22.5014 124.547 21.4983 128.256 21.4983C132.231 21.4983 135.07 22.6338 136.773 24.905C138.514 27.1383 139.517 30.1665 139.782 33.9896L132.571 35.2387C132.458 32.7404 132.098 30.8668 131.493 29.6176C130.925 28.3306 129.789 27.6871 128.086 27.6871C126.875 27.6871 125.928 28.1035 125.247 28.9363C124.566 29.7312 124.225 30.7532 124.225 32.0023C124.225 33.4786 124.509 34.7277 125.077 35.7497C125.682 36.7339 126.648 37.7937 127.972 38.9293L133.707 43.9826C135.865 45.8374 137.549 47.8246 138.76 49.9444C139.972 52.0641 140.577 54.5245 140.577 57.3256C140.577 59.5211 140.085 61.4705 139.101 63.1738C138.155 64.8772 136.811 66.2209 135.07 67.2051C133.328 68.1514 131.322 68.6246 129.051 68.6246ZM170.914 68.6246C166.751 68.6246 163.628 67.4511 161.546 65.1043C159.502 62.7574 158.385 59.2561 158.196 54.6002L165.407 53.1808C165.52 56.0954 165.975 58.3287 166.769 59.8807C167.602 61.3947 168.889 62.1518 170.63 62.1518C171.917 62.1518 172.864 61.7733 173.469 61.0162C174.113 60.2213 174.435 59.1615 174.435 57.8366C174.435 56.0197 174.018 54.4867 173.185 53.2375C172.391 51.9506 171.123 50.55 169.381 49.0359L163.59 43.9826C161.811 42.4685 160.467 40.8409 159.559 39.0997C158.688 37.3584 158.253 35.2766 158.253 32.854C158.253 29.258 159.294 26.4759 161.375 24.5075C163.495 22.5014 166.41 21.4983 170.119 21.4983C174.094 21.4983 176.933 22.6338 178.636 24.905C180.377 27.1383 181.381 30.1665 181.645 33.9896L174.435 35.2387C174.321 32.7404 173.961 30.8668 173.356 29.6176C172.788 28.3306 171.652 27.6871 169.949 27.6871C168.738 27.6871 167.791 28.1035 167.11 28.9363C166.429 29.7312 166.088 30.7532 166.088 32.0023C166.088 33.4786 166.372 34.7277 166.94 35.7497C167.545 36.7339 168.511 37.7937 169.836 38.9293L175.57 43.9826C177.728 45.8374 179.412 47.8246 180.623 49.9444C181.835 52.0641 182.44 54.5245 182.44 57.3256C182.44 59.5211 181.948 61.4705 180.964 63.1738C180.018 64.8772 178.674 66.2209 176.933 67.2051C175.192 68.1514 173.185 68.6246 170.914 68.6246ZM199.936 68.6246C195.167 68.6246 191.76 67.3565 189.716 64.8204C187.672 62.2464 186.65 58.499 186.65 53.5782V36.3175C186.65 31.4345 187.672 27.7439 189.716 25.2457C191.76 22.7474 195.167 21.4983 199.936 21.4983C204.668 21.4983 208.056 22.7474 210.1 25.2457C212.144 27.7439 213.166 31.4345 213.166 36.3175V53.5782C213.166 58.4612 212.125 62.1896 210.043 64.7636C207.999 67.3376 204.63 68.6246 199.936 68.6246ZM199.936 62.4357C201.791 62.4357 203.04 61.849 203.684 60.6756C204.327 59.5021 204.649 57.7988 204.649 55.5655V34.387C204.649 32.1537 204.327 30.4693 203.684 29.3337C203.078 28.1982 201.829 27.6304 199.936 27.6304C198.044 27.6304 196.776 28.2171 196.132 29.3905C195.489 30.5261 195.167 32.1916 195.167 34.387V55.5655C195.167 57.7988 195.489 59.5021 196.132 60.6756C196.776 61.849 198.044 62.4357 199.936 62.4357ZM231.759 68.6246C226.99 68.6246 223.602 67.2997 221.596 64.6501C219.628 61.9625 218.643 58.1773 218.643 53.2943V36.8853C218.643 31.8509 219.628 28.0278 221.596 25.416C223.564 22.8042 226.952 21.4983 231.759 21.4983C236.264 21.4983 239.462 22.6338 241.355 24.905C243.248 27.1761 244.194 30.4504 244.194 34.7277V38.5886H236.131V34.6141C236.131 32.9865 236.056 31.7184 235.904 30.81C235.753 29.8637 235.355 29.1066 234.712 28.5388C234.106 27.9332 233.141 27.6304 231.816 27.6304C230.453 27.6304 229.431 27.9521 228.75 28.5956C228.069 29.2012 227.614 30.034 227.387 31.0939C227.198 32.1159 227.103 33.4596 227.103 35.1251V55.0545C227.103 57.6663 227.444 59.5589 228.125 60.7323C228.807 61.8679 230.037 62.4357 231.816 62.4357C233.103 62.4357 234.049 62.1329 234.655 61.5272C235.299 60.9216 235.696 60.1267 235.847 59.1425C236.037 58.1205 236.131 56.7767 236.131 55.1112V50.9664H244.194V54.657C244.194 59.0857 243.266 62.5303 241.412 64.9907C239.557 67.4133 236.339 68.6246 231.759 68.6246ZM250.271 22.0093H258.561V68H250.271V22.0093ZM272.551 22.0093H281.522L290.72 68H282.941L281.124 57.3824H273.119L271.245 68H263.353L272.551 22.0093ZM280.216 52.0452L277.093 32.7404L273.97 52.0452H280.216ZM295.345 22.0093H303.692V62.2654H314.877V68H295.345V22.0093ZM319.243 22.0093H338.548V27.9143H327.59V41.1437H336.22V46.9919H327.59V62.2654H338.662V68H319.243V22.0093ZM355.112 68.6246C350.949 68.6246 347.826 67.4511 345.744 65.1043C343.7 62.7574 342.583 59.2561 342.394 54.6002L349.605 53.1808C349.718 56.0954 350.173 58.3287 350.967 59.8807C351.8 61.3947 353.087 62.1518 354.828 62.1518C356.115 62.1518 357.062 61.7733 357.667 61.0162C358.311 60.2213 358.633 59.1615 358.633 57.8366C358.633 56.0197 358.216 54.4867 357.383 53.2375C356.589 51.9506 355.32 50.55 353.579 49.0359L347.788 43.9826C346.009 42.4685 344.665 40.8409 343.757 39.0997C342.886 37.3584 342.451 35.2766 342.451 32.854C342.451 29.258 343.492 26.4759 345.573 24.5075C347.693 22.5014 350.608 21.4983 354.317 21.4983C358.292 21.4983 361.131 22.6338 362.834 24.905C364.575 27.1383 365.578 30.1665 365.843 33.9896L358.633 35.2387C358.519 32.7404 358.159 30.8668 357.554 29.6176C356.986 28.3306 355.85 27.6871 354.147 27.6871C352.936 27.6871 351.989 28.1035 351.308 28.9363C350.627 29.7312 350.286 30.7532 350.286 32.0023C350.286 33.4786 350.57 34.7277 351.138 35.7497C351.743 36.7339 352.709 37.7937 354.034 38.9293L359.768 43.9826C361.926 45.8374 363.61 47.8246 364.821 49.9444C366.033 52.0641 366.638 54.5245 366.638 57.3256C366.638 59.5211 366.146 61.4705 365.162 63.1738C364.216 64.8772 362.872 66.2209 361.131 67.2051C359.39 68.1514 357.383 68.6246 355.112 68.6246Z" fill="#889397"/>
<path d="M2 113.557H273.473" stroke="#889397" stroke-width="3.54867" stroke-linecap="round"/>
</svg>
